<?xml version="1.0" encoding="utf-8"?>
<!-- Generator: Adobe Illustrator 24.2.3, SVG Export Plug-In . SVG Version: 6.00 Build 0)  -->
<svg version="1.1" id="Calque_1" xmlns="http://www.w3.org/2000/svg" xmlns:xlink="http://www.w3.org/1999/xlink" x="0px" y="0px"
	 viewBox="0 0 512 512" style="enable-background:new 0 0 512 512;" xml:space="preserve">
<style type="text/css">
	.st0{fill:#FCEAA2;}
	.st1{fill:#EAEAF0;}
	.st2{fill:#DB8758;}
	.st3{fill:#F4A86C;}
</style>
<g>
	<path class="st0" d="M415.2,486H96.8c-6.9-25.1-14.4-62.7-11.8-108c1.9-32,6.7-32.3,11.9-70c13.1-95-11.4-137.7,17.7-217
		c1.1-3,2.1-5.5,2.7-7c0,0-1.1-2.6-2.9-7c-6.9-16.6-12.8-33.7-17.7-51h318.5c-4.9,17.3-10.8,34.4-17.7,51c-1.8,4.4-2.9,7-2.9,7
		c0.9,2.1,1.8,4.5,2.7,7c25.3,72.6,11.4,111.1,17.6,201c4.1,59.7,12.7,69.3,10.1,121C423.4,444,418.9,469.3,415.2,486z"/>
	<path class="st1" d="M391.3,439.4c-3.9,0-7-3.1-7-7c0,0,0,0,0,0l0.1-33.1c0-3.9,3.1-7,7-7c3.9,0,7,3.1,7,7l-0.1,33.2
		C398.3,436.3,395.2,439.4,391.3,439.4L391.3,439.4z"/>
	<g>
		<path class="st1" d="M148.3,84c0,3.9-3.1,7-7,7c0,0,0,0,0,0h-26.7c0.9-2.5,1.8-4.9,2.7-7c0,0-1.1-2.6-2.9-7h26.9
			C145.2,77,148.3,80.1,148.3,84C148.3,84,148.3,84,148.3,84z"/>
		<path class="st1" d="M324.8,77h-45.9c-3.9,0-7,3.1-7,7s3.1,7,7,7h45.9c3.9,0,7-3.1,7-7S328.7,77,324.8,77z M233.1,77h-45.9
			c-3.9,0-7,3.1-7,7s3.1,7,7,7h45.9c3.9,0,7-3.1,7-7S236.9,77,233.1,77z"/>
		<path class="st1" d="M394.7,84c0.9,2.1,1.8,4.5,2.7,7h-26.7c-3.9,0-7-3.1-7-7s3.1-7,7-7l0,0h26.9C395.8,81.4,394.7,84,394.7,84z"
			/>
	</g>
	<g>
		<g>
			<path class="st2" d="M293.4,291.6c11.5-16.6,3.3-43.5,3.3-43.5c-14.1,6.5-26.3,16.6-35.2,29.3
				C265.4,279.1,288.5,289.5,293.4,291.6L293.4,291.6z"/>
			<path class="st2" d="M218.6,291.6c-11.5-16.6-3.3-43.5-3.3-43.5c14.1,6.5,26.3,16.6,35.2,29.3
				C246.6,279.1,223.5,289.5,218.6,291.6L218.6,291.6z"/>
		</g>
		<path class="st3" d="M304.1,302.2c0,26.6-21.6,52.2-48.1,52.2s-48.1-25.6-48.1-52.2s21.6-44.1,48.1-44.1S304.1,275.6,304.1,302.2z
			"/>
		<g>
			<g>
				<path class="st2" d="M282.6,297.2c-1.2,0-2.3-0.5-3.1-1.4c-1.6-1.1-3.7-1.1-5.3,0c-1.4,1.8-4.1,2-5.8,0.6
					c-1.8-1.4-2-4.1-0.6-5.8c0.1-0.1,0.1-0.1,0.2-0.2c4.9-4.8,12.8-4.8,17.8,0c1.5,1.7,1.3,4.3-0.4,5.8
					C284.6,296.8,283.6,297.2,282.6,297.2z"/>
				<path class="st2" d="M229.4,297.2c-2.3,0-4.1-1.8-4.1-4.1c0-1,0.4-2,1-2.7c4.9-4.8,12.8-4.8,17.8,0c1.6,1.7,1.5,4.3-0.2,5.8
					c-1.7,1.6-4.3,1.5-5.8-0.2c-0.1-0.1-0.1-0.1-0.2-0.2c-1.6-1.1-3.7-1.1-5.3,0C231.7,296.7,230.6,297.2,229.4,297.2L229.4,297.2z"
					/>
			</g>
			<g>
				<path class="st2" d="M310.8,327.1c-0.5,0-1.1-0.1-1.6-0.3c-6.9-2.6-14.4-3-21.6-1.3c-2.2,0.6-4.5-0.7-5.1-2.9
					c-0.6-2.2,0.7-4.5,2.9-5.1c0,0,0,0,0,0c8.9-2.2,18.3-1.7,26.9,1.6c2.1,0.9,3.1,3.3,2.2,5.4C314,326,312.5,327.1,310.8,327.1
					L310.8,327.1z"/>
				<path class="st2" d="M304.1,339.9c-0.8,0-1.5-0.2-2.1-0.6c-4.6-2.2-9.7-3.2-14.8-2.8c-2.3,0.4-4.4-1.2-4.7-3.4
					c-0.4-2.3,1.2-4.4,3.4-4.7c0,0,0,0,0,0c7-0.7,14.1,0.6,20.3,3.9c2,1.2,2.6,3.7,1.4,5.7C306.9,339.1,305.5,339.9,304.1,339.9
					L304.1,339.9z"/>
				<path class="st2" d="M201.2,327.1c-2.3,0-4.1-1.9-4.1-4.1c0-1.7,1-3.2,2.6-3.8c8.6-3.3,18-3.9,26.9-1.6c2.2,0.6,3.5,2.9,2.9,5.1
					c-0.6,2.2-2.9,3.5-5.1,2.9c0,0,0,0,0,0c-7.2-1.7-14.7-1.3-21.6,1.3C202.3,327,201.8,327.1,201.2,327.1L201.2,327.1z"/>
				<path class="st2" d="M207.9,339.9c-2.3,0-4.1-1.8-4.1-4.1c0-1.4,0.8-2.8,2-3.5c6.2-3.3,13.3-4.6,20.3-3.9
					c2.3,0.3,3.8,2.4,3.5,4.7c-0.3,2.3-2.4,3.8-4.7,3.5c0,0,0,0,0,0c-5.1-0.4-10.2,0.5-14.8,2.8
					C209.4,339.6,208.7,339.9,207.9,339.9z"/>
			</g>
			<path class="st2" d="M263.3,339.9c-1.6,0-3.1-0.3-4.6-1c-3.7-1.9-6.2-5.6-6.6-9.7c-0.4-2.3,1.1-4.4,3.4-4.8s4.4,1.1,4.8,3.4
				c0,0,0,0.1,0,0.1c0.1,0.9,0.6,2.9,1.9,3.5c0.6,0.3,2.8,0.8,7.8-2.4c1.9-1.3,4.5-0.7,5.7,1.2c1.3,1.9,0.7,4.5-1.2,5.7
				c0,0-0.1,0-0.1,0.1C271.2,338.3,267.3,339.7,263.3,339.9L263.3,339.9z"/>
			<path class="st2" d="M248.7,339.9c-4-0.2-7.8-1.6-11-3.9c-1.9-1.2-2.5-3.8-1.3-5.7c1.2-1.9,3.8-2.5,5.7-1.3
				c5,3.2,7.2,2.6,7.8,2.4c1.3-0.6,1.7-2.6,1.9-3.5c0.3-2.3,2.4-3.8,4.7-3.5c2.3,0.3,3.8,2.4,3.5,4.7c0,0,0,0.1,0,0.1
				c-0.4,4.2-2.9,7.8-6.6,9.7C251.8,339.6,250.2,339.9,248.7,339.9L248.7,339.9z"/>
			<path class="st2" d="M262.9,321.2c0,3.8-3.1,9.5-6.9,9.5c-3.8,0-6.9-5.6-6.9-9.5s3.1-4.4,6.9-4.4
				C259.8,316.8,262.9,317.4,262.9,321.2z"/>
		</g>
	</g>
</g>
</svg>
