<svg id="Calque_1" data-name="Calque 1" xmlns="http://www.w3.org/2000/svg" viewBox="0 0 186.53 188.13"><defs><style>.cls-1{fill:#838689;}.cls-2{fill:#989c9f;}.cls-3{fill:#bdb2c1;}.cls-4{fill:#57595c;}.cls-5{fill:#31343a;}.cls-6{fill:#8d8c46;}.cls-7{fill:#bab863;}.cls-8{fill:#010101;}.cls-12,.cls-9{fill:#fff;}.cls-10{fill:#a7abae;}.cls-11{fill:#dadcdc;}.cls-11,.cls-12{fill-rule:evenodd;}.cls-13{fill:#868c74;}</style></defs><path class="cls-1" d="M131.22,189.15c-.39-3.75-5.53-2.73-7.26-4.59a9.18,9.18,0,0,1-2-7.13,43.64,43.64,0,0,1,1.77-7.41c2-7.29,2.16-14.94,2.12-22.5l-14.58-5.14q1,20.4,2.84,40.73a16.19,16.19,0,0,0,1.66,6.85,8.34,8.34,0,0,0,9.31,3.64C128.53,192.56,131.62,192.9,131.22,189.15Z" transform="translate(-6.95 -6.78)"/><path class="cls-1" d="M59.39,153.68c-.79,3.39.28,7,2.15,9.95a39.13,39.13,0,0,0,7.05,7.67,4.55,4.55,0,0,1,6,.44,5.38,5.38,0,0,1,.67,6.16c-1.08,1.94-4.54,1.91-6.75,2-3.52.17-5.36-.91-7.94-3.31-6.6-6.14-11.82-13.59-17-21,4.87-4.93,4.5-13.69,10-18,4.69-3.68,11.38-2.33,17.34-2.63C70.43,142.45,61.09,146.44,59.39,153.68Z" transform="translate(-6.95 -6.78)"/><path class="cls-2" d="M179.07,80.41c-1.72,10.2-16.09,31.29-22.52,40.23-2.48,3.46-5.89,6.17-8.43,9.59-5.19,7-6.34,16.28-5,24.86s4.9,16.63,8.43,24.56c.86,1.93,2,4.11,4.1,4.46,1.11.19,2.24-.21,3.36-.16,2.74.12,4.77,3.18,4.25,5.86a6.77,6.77,0,0,1-5.82,5,10.63,10.63,0,0,1-7.63-2.4,26.07,26.07,0,0,1-5.37-6.18c-9-13.22-15-29.13-28.05-38.39-8.06-5.75-18.06-8.28-27.95-8.83s-26.49-5-33.76,4.84-14,18.86-14.49,21.47c-.92,4.93.73,10,3.15,14.4,1.15,2.06,4.66,4.6,5.45,6.83,1.77,5-3.89,6.11-6.32,6.11-6.07,0-6.83-4.29-7.21-6.69-1.89-12-7-20.8-5.43-28.48,1.08-5.3,2.31-17.78.13-23.55-1.53-4-4.66-7.25-6.8-11-4.85-8.49-4.27-18.91-3.56-28.66C21.14,73.29,8.07,77.37,7,33.22a51.3,51.3,0,0,1,2.3-16.6c2.84-9,13-13.85,10.35-5.6a81.89,81.89,0,0,0-2.89,34.85c1.86,13.88,10.29,30,17.89,34s40.64-5.72,61.3-3.82c8.46.78,16.94,2.28,25.41,1.6s17.21-3.91,22.25-10.75C153,74.21,179.07,80.41,179.07,80.41Z" transform="translate(-6.95 -6.78)"/><path class="cls-1" d="M82.43,116.3a27.78,27.78,0,0,0-13.51-17c-2.18-1.17-4.73-2.27-5.57-4.59a5.59,5.59,0,0,1,1.38-5.46,12.69,12.69,0,0,1,5-3C80.22,82.29,91.8,83.63,103,84s23.35-.67,31.71-8.09c2-1.82,4.35-4.14,7-3.54a7.51,7.51,0,0,1,3.5,2.5q8.87,9.47,17.72,18.92c-6.12,3.92-10.28,10.23-13.87,16.55s-6.91,13-12,18.16-12.42,8.87-19.56,7.46c-5.83-1.16-11-5.53-16.9-5.29-3.36.14-6.73,1.77-10,.88-2.93-.81-5-3.53-6-6.38S83.22,119.24,82.43,116.3Z" transform="translate(-6.95 -6.78)"/><path class="cls-2" d="M138,46.32c2.94-.94,10,4.88,13.68,11.62,6-.94,14.93-.17,14.93-.17s9.61-12.18,13.14-10.92c5,1.79-.34,18.77-.51,22.78s1.79,9.47-2.56,16.05c-1.55,2.34-8.93,9.74-15.27,10.58-8.45,1.11-23-7.1-24.13-15.57-1-8,1.09-14.21.3-17.88C137.09,60.43,134,47.62,138,46.32Z" transform="translate(-6.95 -6.78)"/><path class="cls-1" d="M154.87,62.83a24.36,24.36,0,0,1,2-1.7,3.07,3.07,0,0,1,2.45-.58,7.12,7.12,0,0,1,3.65,3.33c1.54,2.64,4.71,4.06,7.55,5.21a12,12,0,0,1,6.46,5.21,8.24,8.24,0,0,1,.09,7.58,12.15,12.15,0,0,1-5.57,5.38,23.71,23.71,0,0,1-7.54,2.14,52.27,52.27,0,0,1-12,.19,22.12,22.12,0,0,1-7-1.58,10,10,0,0,1-5.18-4.8,13.16,13.16,0,0,1-.78-6.3,12.36,12.36,0,0,1,1.64-6c1.52-2.32,4.21-3.56,6.82-4.5S152.76,64.63,154.87,62.83Z" transform="translate(-6.95 -6.78)"/><path class="cls-3" d="M146.48,55.25A13.54,13.54,0,0,0,140,48.43c-.92-.46-2.12-.77-2.88-.09a2.82,2.82,0,0,0-.58,2.35A50.76,50.76,0,0,0,138,60c.41,1.64,1,3.39,2.44,4.3a4.2,4.2,0,0,0,4.56-.2A5.8,5.8,0,0,0,147.29,60,9.29,9.29,0,0,0,146.48,55.25Z" transform="translate(-6.95 -6.78)"/><path class="cls-3" d="M171.23,64a4.37,4.37,0,0,1-1-3.07c0-3.61,2.65-6.7,5.14-9.48C176.6,50,179,47.37,180,48.22s1.33,4.76,1.08,7.21a39.18,39.18,0,0,1-1.65,7.19,4.49,4.49,0,0,1-1.68,2.79,4.84,4.84,0,0,1-3.81,0A6.2,6.2,0,0,1,171.23,64Z" transform="translate(-6.95 -6.78)"/><path class="cls-4" d="M165.49,72.3A8.7,8.7,0,0,1,170,71a5.86,5.86,0,0,1,4.22,1.77,4.43,4.43,0,0,1,1,4.37c-.68,1.9-2.69,3-4.61,3.59a6.57,6.57,0,0,1-7.38-3,3.48,3.48,0,0,1-.1-2.78A5,5,0,0,1,165.49,72.3Z" transform="translate(-6.95 -6.78)"/><path class="cls-5" d="M164.27,77.53c0,.61,2,2.29,4.6,2.29a4.78,4.78,0,0,0,4.59-4.62c0-2.25-2.45-4.06-5-3.54S164.27,75.28,164.27,77.53Z" transform="translate(-6.95 -6.78)"/><path class="cls-6" d="M164.84,77.31c0,.53,1.77,2,4,2a4.19,4.19,0,0,0,4-4c0-2-2.15-3.56-4.39-3.1S164.84,75.33,164.84,77.31Z" transform="translate(-6.95 -6.78)"/><path class="cls-7" d="M166.06,77.84a2.84,2.84,0,0,1-.17-2.5,1.43,1.43,0,0,1,.35-.68.58.58,0,0,1,.71-.11.72.72,0,0,1,.21.65,3.43,3.43,0,0,0-.08.71c.06.6.71,1,1.31,1.08a4,4,0,0,0,4-1.67,4.1,4.1,0,0,1-4.92,3.32A2.37,2.37,0,0,1,166.06,77.84Z" transform="translate(-6.95 -6.78)"/><ellipse class="cls-8" cx="161.78" cy="68.62" rx="0.88" ry="3.24"/><ellipse class="cls-9" cx="163.09" cy="67.54" rx="0.81" ry="0.85"/><path class="cls-4" d="M156,77.53a3.17,3.17,0,0,1-1.16,1.55,6.78,6.78,0,0,1-5.59,1.16,8.44,8.44,0,0,1-4.81-3.2,4.66,4.66,0,0,1-1.09-3.83,4.1,4.1,0,0,1,2.91-2.69,12,12,0,0,1,4.11-.26c2.79.16,4.84,3.83,5.22,4.72A3.9,3.9,0,0,1,156,77.53Z" transform="translate(-6.95 -6.78)"/><path class="cls-5" d="M155.09,77.54c-.05.61-2,2.3-4.62,2.3a4.81,4.81,0,0,1-4.62-4.64c0-2.27,2.47-4.08,5-3.56S155.09,75.28,155.09,77.54Z" transform="translate(-6.95 -6.78)"/><path class="cls-6" d="M154.5,77.31c0,.53-1.77,2-4,2a4.19,4.19,0,0,1-4-4c0-2,2.15-3.56,4.38-3.1S154.5,75.33,154.5,77.31Z" transform="translate(-6.95 -6.78)"/><path class="cls-7" d="M147,76.25a2.66,2.66,0,0,1,.63-2c.23-.32.59-.65,1-.52a.72.72,0,0,1,.41.62,6.77,6.77,0,0,1,0,.78,2.6,2.6,0,0,0,1.53,2.16,6.81,6.81,0,0,0,2.69.55,4.24,4.24,0,0,1-5.54-.45A2.34,2.34,0,0,1,147,76.25Z" transform="translate(-6.95 -6.78)"/><path class="cls-8" d="M149.47,75.16c0,1.66.41,3,.92,3s.92-1.35.92-3-.41-3-.92-3S149.47,73.5,149.47,75.16Z" transform="translate(-6.95 -6.78)"/><path class="cls-9" d="M150.87,74.32a.81.81,0,1,0,.81-.88A.85.85,0,0,0,150.87,74.32Z" transform="translate(-6.95 -6.78)"/><path class="cls-10" d="M152.06,93.87a9.45,9.45,0,0,1-3.66-2.76,4.84,4.84,0,0,1-.82-4.37,7.6,7.6,0,0,1,3.07-3.29L155.43,80a8.62,8.62,0,0,1,3.69-1.81A6.37,6.37,0,0,1,163.85,80c1.32,1.12,2.38,2.51,3.65,3.69a34.34,34.34,0,0,1,2.79,2.59,4.6,4.6,0,0,1,1.27,3.48c-.21,1.65-1.66,2.86-3.11,3.67A18.17,18.17,0,0,1,152.06,93.87Z" transform="translate(-6.95 -6.78)"/><path class="cls-11" d="M164.73,92.34c-1.83.13-3.57-1.12-5.4-.91a18.45,18.45,0,0,0-3,1,5.28,5.28,0,0,1-5.54-1.56,4.52,4.52,0,0,1,0-5.63c1.12-1.3,2.93-1.75,4.64-2a32.7,32.7,0,0,1,5.42-.36,12.73,12.73,0,0,1,6.84,1.67,5.17,5.17,0,0,1,1.77,1.83,3.18,3.18,0,0,1,.27,2.5A4.64,4.64,0,0,1,167.83,91,6.26,6.26,0,0,1,164.73,92.34Z" transform="translate(-6.95 -6.78)"/><path class="cls-8" d="M160.1,88.41s-4-2.63-3.22-4.06,7-1.3,6.58.42S160.1,88.41,160.1,88.41Z" transform="translate(-6.95 -6.78)"/><path class="cls-8" d="M154.56,92.69c1,.24,1.86-.42,2.68-.82a7.22,7.22,0,0,1,2.35-.69h.13a.19.19,0,0,1,0-.08l.11-3.39c0-.22,1,0,1,.26,0,1.09-.07,2.18-.1,3.28a4.46,4.46,0,0,1,.92.29c1,.43,1.9,1.15,3,.7.27-.11,1.14.28.77.43a3.56,3.56,0,0,1-2.45,0c-1.17-.34-2-1.16-3.29-.91-1.85.34-3.24,1.86-5.21,1.37C153.87,93,154,92.54,154.56,92.69Z" transform="translate(-6.95 -6.78)"/><path class="cls-12" d="M189.39,87.13c-.45-.13-1-.28-1.54-.41L187,86.5l-.9-.2c-1.21-.27-2.43-.47-3.37-.6-1.1-.16-2.09-.27-3.09-.34-.49,0-1-.07-1.5-.1s-1,0-1.6-.05-1.2,0-1.88,0c-.33,0-.67,0-1,0s-.7,0-1.05.06c-.7.06-1.41.12-2.07.2-.33,0-.66.07-1,.12l-.88.12c-.44,0-1.53.27-2,.34-.23,0-.15,0,.19,0,.17,0,.4,0,.69-.07l1-.13.71-.09.4,0,.42,0c.58-.05,1.22-.11,1.91-.15,1.38-.11,2.74-.18,4.34-.17a53.57,53.57,0,0,1,6.39.54l1.18.17,1.3.22c.89.17,1.81.34,2.65.54l.62.14.59.15c.37.1.72.18,1,.27l1.23.36c.22.07.18,0-.14-.09l-.69-.25-.5-.17Z" transform="translate(-6.95 -6.78)"/><path class="cls-12" d="M191.3,94l-.76-.32-.85-.33c-.58-.24-1.22-.47-1.85-.7L186,92l-1.66-.54c-2.32-.72-4.15-1.22-6.51-1.78-1.2-.29-2.7-.58-4.21-.84s-3-.45-4.26-.56l-.46,0-.61,0-1.08-.06c-.25,0-.17,0,.2.07l.74.09.51,0,.6.08.78.09c.28,0,.58.08.89.13l1,.15,1.07.18,1.11.2,1.13.2,1.17.23.61.13.62.15c2.23.51,4.72,1.24,6.73,1.87,1.54.47,3.62,1.15,5.39,1.8.89.32,1.69.64,2.33.89l1.29.55c.22.1.18.06-.14-.11S192.25,94.35,191.3,94Z" transform="translate(-6.95 -6.78)"/><path class="cls-12" d="M185.89,96.77c-.72-.39-1.69-.84-2.66-1.3-.48-.24-1-.45-1.44-.66l-1.27-.56-.65-.27-.63-.25L178,93.24c-.4-.17-.8-.31-1.22-.46l-1.31-.47c-.46-.18-1-.34-1.54-.51l-1.72-.53-1.74-.48c-.28-.08-.55-.16-.82-.22l-.75-.2-1.67-.4c-.4-.11.24.17,1.56.53l.61.17.33.09.35.11c.48.16,1,.32,1.59.49s1.15.34,1.74.53l.91.28,1,.32,1.32.49c.44.17.9.33,1.34.51l1.3.54c.43.17.84.33,1.23.5l2,.86,2.14,1,.51.23.47.23.83.4,1,.48C187.8,97.87,187.34,97.53,185.89,96.77Z" transform="translate(-6.95 -6.78)"/><path class="cls-12" d="M130.2,86.18,131,86c.26-.07.55-.12.84-.18l.89-.19.93-.15c1.25-.21,2.5-.33,3.46-.4,1.13-.08,2.14-.11,3.15-.1.5,0,1,0,1.52,0s1.05.06,1.62.11,1.2.12,1.88.19c.33,0,.67.1,1,.15s.7.09,1,.17c.7.13,1.4.26,2.06.43.32.08.65.15,1,.24l.87.26c.43.11,1.49.47,1.91.62.23.07.16,0-.15-.13-.15-.08-.37-.17-.64-.28a7.3,7.3,0,0,0-1-.36l-.7-.23-.38-.13-.42-.11-.9-.25c-.31-.09-.65-.15-1-.23a36,36,0,0,0-4.39-.62c-1.07-.1-2.22-.18-3.35-.19-.56,0-1.12,0-1.66,0s-1.07,0-1.56.09-.8.06-1.23.11l-1.34.19c-.92.16-1.87.34-2.74.56l-.64.16-.6.17c-.38.11-.74.2-1.05.3l-1.26.41c-.23.07-.18.08.17,0l.73-.17.53-.15Z" transform="translate(-6.95 -6.78)"/><path class="cls-12" d="M128.91,92.3l.72-.35c.25-.13.53-.24.81-.37l.87-.38.9-.35c.61-.25,1.23-.45,1.81-.65l.42-.15.42-.12.76-.22a31.88,31.88,0,0,1,3.16-.76c.51-.12,1-.18,1.55-.27s1.08-.15,1.65-.22,1.25-.12,1.94-.19l.53,0,.54,0,.54,0h.55c.73,0,1.47,0,2.16,0,.35,0,.69,0,1,.06l.93.09c.45,0,1.6.2,2,.26.24,0,.16,0-.18-.1l-.7-.16a10.29,10.29,0,0,0-1.06-.17l-.75-.09-.42-.06-.44,0-1-.08c-.33,0-.68,0-1.05,0a35.25,35.25,0,0,0-4.56.25c-1.1.11-2.27.27-3.41.49-.57.12-1.14.22-1.68.36s-1.08.25-1.57.41-.78.23-1.21.38l-1.32.48c-.45.17-.9.37-1.35.55l-.33.14-.33.16-.64.3-.61.3-.57.3c-.36.2-.71.36-1,.54l-1.19.69c-.21.12-.15.11.18,0l.7-.34.5-.26Z" transform="translate(-6.95 -6.78)"/><path class="cls-12" d="M135.88,94.14c.64-.32,1.53-.62,2.4-1,.43-.18.88-.32,1.29-.46l1.15-.37.3-.1.29-.08.57-.15,1.09-.29c.36-.11.73-.17,1.11-.25l1.18-.25c.41-.1.88-.16,1.38-.25l.76-.13.38-.07.4,0,1.55-.18c.25,0,.49-.06.72-.07l.67,0,1.49-.08c.36,0-.24-.13-1.43-.11h-.85l-.32,0c-.43,0-.92.06-1.44.11-.26,0-.52,0-.78.09l-.79.13-.82.14c-.28,0-.57.09-.86.16l-1.21.24c-.41.09-.82.15-1.23.26l-1.19.31a11.36,11.36,0,0,0-1.12.32l-1.81.63c-.64.26-1.3.55-1.91.82l-.44.19-.42.21-.72.37-.88.44C134.07,94.84,134.57,94.73,135.88,94.14Z" transform="translate(-6.95 -6.78)"/><path class="cls-11" d="M162.88,93.78c0,.3-.34.48-.62.57a7.48,7.48,0,0,1-3.95-.12c-.4-.09-.88-.25-1-.65a.73.73,0,0,1,.34-.7,2.33,2.33,0,0,1,.78-.27,8.34,8.34,0,0,1,2.17-.22,3.07,3.07,0,0,1,2,.84A.72.72,0,0,1,162.88,93.78Z" transform="translate(-6.95 -6.78)"/><path class="cls-13" d="M149.24,80.24a7.65,7.65,0,0,1-4.81-3.2A3.43,3.43,0,0,0,142,79.75a3.19,3.19,0,0,0,.84,2.22c1.64,2,4.59,2,5,2,4.16-.12,6.54-4.34,6.71-4.65A7.58,7.58,0,0,1,149.24,80.24Z" transform="translate(-6.95 -6.78)"/><path class="cls-13" d="M48.43,80.36c-.15.11-2.18,1.58-1.85,2.52s2.54.85,3.82.62a9.31,9.31,0,0,0,5.71-4.12Z" transform="translate(-6.95 -6.78)"/><path class="cls-13" d="M58.7,79.33c-.39.14-.82.51-.76.84s.94.75,1.49.42a.91.91,0,0,0,.42-1.07C59.64,79.16,59,79.21,58.7,79.33Z" transform="translate(-6.95 -6.78)"/><path class="cls-13" d="M97,79.33c-.39.14-.83.51-.77.84s.94.75,1.49.42a.88.88,0,0,0,.42-1.07C98,79.16,97.34,79.21,97,79.33Z" transform="translate(-6.95 -6.78)"/><path class="cls-13" d="M63,78.4c-.59.43-1.13.95-1,1.35.36,1.28,7.39.9,7.57-.23,0-.34-.51-.86-2.58-1.68Z" transform="translate(-6.95 -6.78)"/><path class="cls-13" d="M102.72,76.81c-1.1.84-1.85,1.64-1.66,2.19.48,1.47,7.31,1.09,7.57-.23.09-.45-.62-1-1.44-1.48Z" transform="translate(-6.95 -6.78)"/><path class="cls-13" d="M71.32,78.18a1,1,0,0,0-.69,1.34,1.07,1.07,0,0,0,1.57-.08A1.05,1.05,0,0,0,71.32,78.18Z" transform="translate(-6.95 -6.78)"/><path class="cls-13" d="M72.27,77.53a.5.5,0,0,0,0,.42.67.67,0,0,0,.84.46.61.61,0,0,0,.27-.8A.71.71,0,0,0,72.27,77.53Z" transform="translate(-6.95 -6.78)"/><path class="cls-13" d="M77.39,76.57c-1.28,1.07-1.53,1.56-1.41,1.8.35.72,4.37-.11,4.43-1.07,0-.35-.49-.69-1-.93Z" transform="translate(-6.95 -6.78)"/><path class="cls-13" d="M82.1,77.49a.71.71,0,0,0-.31.92.65.65,0,0,0,.77.15.72.72,0,0,0,.38-1A.67.67,0,0,0,82.1,77.49Z" transform="translate(-6.95 -6.78)"/><path class="cls-13" d="M113.4,77.92a.71.71,0,0,0-.31.92.65.65,0,0,0,.77.15.72.72,0,0,0,.38-.95A.67.67,0,0,0,113.4,77.92Z" transform="translate(-6.95 -6.78)"/><path class="cls-13" d="M86.57,76.31c-.62,0-1.35.3-1.34.61s.5.49.92.5c.65,0,1.26-.57,1.18-.84S86.65,76.31,86.57,76.31Z" transform="translate(-6.95 -6.78)"/><path class="cls-13" d="M117.62,78.69c-.62,0-1.34.3-1.34.61s.5.49.92.5c.65,0,1.26-.57,1.19-.85S117.7,78.69,117.62,78.69Z" transform="translate(-6.95 -6.78)"/><path class="cls-13" d="M90.55,75.84c-.27.25-1,1-.77,1.46s1.64.55,2.64.5c1.17-.06,3.32-.35,3.36-1,0-.19-.17-.47-1.06-.85Z" transform="translate(-6.95 -6.78)"/><path class="cls-13" d="M111,78.28c-.81,0-1.42.83-1.29,1.23.21.65,2.54.76,2.78.17C112.63,79.28,112,78.21,111,78.28Z" transform="translate(-6.95 -6.78)"/></svg>