<?xml version="1.0" encoding="utf-8"?>
<!-- Generator: Adobe Illustrator 24.2.3, SVG Export Plug-In . SVG Version: 6.00 Build 0)  -->
<svg version="1.1" id="Calque_1" xmlns="http://www.w3.org/2000/svg" xmlns:xlink="http://www.w3.org/1999/xlink" x="0px" y="0px"
	 viewBox="0 0 512 512" style="enable-background:new 0 0 512 512;" xml:space="preserve">
<style type="text/css">
	.st0{fill:#AA3917;}
	.st1{fill:#C6491B;}
	.st2{fill:#DDCD8C;}
	.st3{fill:#B45A4F;}
	.st4{fill:#FFE442;}
	.st5{fill:#FAE9A1;}
	.st6{fill:#CC5A21;}
	.st7{fill:#AF4B1E;}
</style>
<g id="Flat">
	<path class="st0" d="M416,72l37,66.6c2,3.6,3,7.6,3,11.7V464c0,13.3-10.7,24-24,24l0,0H136V150.2c0-4.1-1-8.1-3-11.7L96,72L416,72z
		"/>
	<path class="st0" d="M104,24h304c4.4,0,8,3.6,8,8v40l0,0H96l0,0V32C96,27.6,99.6,24,104,24z"/>
	<path class="st1" d="M96,72l-37,66.6c-2,3.6-3,7.6-3,11.7V464c0,13.3,10.7,24,24,24l0,0h296V150.2c0-4.1,1-8.1,3-11.7L416,72L96,72
		z"/>
	<path class="st2" d="M400,368h56v64h-56V368z"/>
	<path class="st2" d="M400,328h56v16h-56V328z"/>
	<path class="st2" d="M400,296h56v16h-56V296z"/>
	<path class="st2" d="M400,264h56v16h-56V264z"/>
	<path class="st2" d="M400,232h56v16h-56V232z"/>
	<path class="st3" d="M200,424H56v40c0,13.3,10.7,24,24,24l0,0h144L200,424z"/>
	<path class="st4" d="M184,416v8H56v-30.6c2.6-0.9,5.3-1.4,8-1.4c0-13.3,10.7-24,24-24c0-13.3,10.7-24,24-24s24,10.7,24,24
		c13.3,0,24,10.7,24,24C173.3,392,184,402.7,184,416z"/>
	<path class="st5" d="M244.2,196.6c-23.8,4.8-48.4,4.5-72.2-0.8c-23.7-5.3-48.3-5.5-72.2-0.8l-3.8,0.8v-60.1c0-2.3,1.6-4.2,3.8-4.7
		c23.8-4.8,48.4-4.5,72.2,0.8c23.7,5.3,48.3,5.5,72.2,0.8l3.8-0.8v60.1C248,194.2,246.4,196.2,244.2,196.6z"/>
	<path class="st6" d="M264,488l-72-216l5.1-1.2c14.1-3.3,28.8,1.4,38.4,12.2l4.4,5l64-24c-1.5-16.5,7.5-32.2,22.5-39.3l1.5-0.7
		l48,88v176H264z"/>
	<path class="st7" d="M260,328c-6.6,0-12,5.4-12,12s5.4,12,12,12s12-5.4,12-12C272,333.4,266.6,328,260,328z"/>
	<path class="st7" d="M324,304c-6.6,0-12,5.4-12,12s5.4,12,12,12s12-5.4,12-12C336,309.4,330.6,304,324,304z"/>
	<path class="st7" d="M336.1,346.4l-0.6,5.6c-0.7,6.5-6.6,11.1-13,10.4c-3.4-0.4-6.5-2.2-8.4-5c5-4.4,5.4-12,1-16.9
		c-3.3-3.7-8.5-5-13.1-3.3l-7.5,2.7c-6.2,2.3-9.4,9.1-7.2,15.4c1.7,4.6,6.1,7.8,11,7.9c0.6,6.5-4.1,12.2-10.6,12.9
		c-3.4,0.3-6.8-0.8-9.2-3.2l-4.1-3.9l-11,11.6l4.1,3.9c5.1,4.9,11.9,7.6,19,7.6c3.3,0,6.5-0.6,9.6-1.7c6.9-2.5,12.6-7.7,15.7-14.4
		c0-0.1,0.1-0.1,0.1-0.2c13.9,6.6,30.4,0.7,37-13.2c1.3-2.8,2.2-5.7,2.5-8.8l0.6-5.6L336.1,346.4z"/>
	<g>
		<g>
			<path class="st5" d="M88,224h16v16H88V224z"/>
			<path class="st5" d="M120,224h48v16h-48V224z"/>
			<path class="st5" d="M88,256h16v16H88V256z"/>
			<path class="st5" d="M120,256h48v16h-48V256z"/>
			<path class="st5" d="M88,288h16v16H88V288z"/>
			<path class="st5" d="M120,288h48v16h-48V288z"/>
		</g>
	</g>
</g>
</svg>
