<?xml version="1.0" encoding="utf-8"?>
<!-- Generator: Adobe Illustrator 24.2.3, SVG Export Plug-In . SVG Version: 6.00 Build 0)  -->
<svg version="1.1" id="Calque_1" xmlns="http://www.w3.org/2000/svg" xmlns:xlink="http://www.w3.org/1999/xlink" x="0px" y="0px"
	 viewBox="0 0 200 101.1" style="enable-background:new 0 0 200 101.1;" xml:space="preserve">
<style type="text/css">
	.st0{fill:#FDD7AF;}
	.st1{fill:#B8B8B8;}
	.st2{fill:#CFCFCF;}
	.st3{fill:#463A3A;}
	.st4{fill:#E0E0E0;}
	.st5{fill:#FFFFFF;}
</style>
<g>
	<g>
		<ellipse class="st0" cx="99.2" cy="76.9" rx="97.3" ry="17.7"/>
	</g>
	<g>
		<path class="st1" d="M30,36.8c6.8-2.2,17.1-6.5,17.1-6.5c2.3-9.7,9.9-15.3,9.9-15.3c3.5,5.6,6.2,7.9,8.4,18.5
			c4.6,1.5,5.6,4,5.4,5.5c-0.4,3.4,3.4,3,2,6.8c-0.6,1.6,2.9,1.3,0.3,4.2c-0.7,0.8,2.1,2.9,1.1,3.8c-3,2.6,0.2,7-3,8.4
			c-3.2,1.4-6.4,2.9-9.2,4.4c-2.8,1.5-5.5,0-7.4,2.2c-1.8,2.2-5.5,5.4-8.1,6.1c-2.6,0.7-5.8-2.7-8.2-2c-2.4,0.7-8.1-2-9-3.3
			c-0.9-1.3-1.4-3.7-3.1-4.4c-3.8-1.6-0.6-3.1-3.2-5.8c-2.2-2.3-1-5.2-1-5.2C18.2,47.1,10.2,44,8.9,36.2
			C16.7,33.8,23.7,34.3,30,36.8z"/>
	</g>
	<g>
		<path class="st2" d="M61.7,34c-3.8-2.2-6.6-1-7-1.8c-1.3-4.9,2.3-8.8,2.3-8.8c1.4,2.8,0.5,5.6,2.2,7.5C60.9,32.8,61.7,34,61.7,34z
			"/>
	</g>
	<g>
		<path class="st2" d="M23,51.4c-0.5-4.7,2.4-7.1,1.5-8.1c-0.9-1-5.2-2.4-8.4-2.2c2.2,1.9,4.6,2.4,5,4.9C21.6,49,23,51.4,23,51.4z"
			/>
	</g>
	<g>
		<path class="st3" d="M43.9,57.6c-2.3,3.1-6.2,2.9-6.2,2.9C42.1,61.8,43.7,60,43.9,57.6z"/>
	</g>
	<g>
		<path class="st3" d="M31.3,52c0-0.2,0-4,5.1-6.7l0.3,0.5c-4.9,2.6-4.8,6.2-4.8,6.2L31.3,52z"/>
	</g>
	<g>
		<path class="st3" d="M52.6,53.5c3.9,0,6-3.2,6-3.2C57.1,54.6,54.7,54.8,52.6,53.5z"/>
	</g>
	<g>
		<path class="st3" d="M47.6,40.6l-0.2-0.5c5.3-2.5,8.3-0.2,8.5-0.1l-0.4,0.4C55.3,40.4,52.5,38.3,47.6,40.6z"/>
	</g>
	<g>
		<path class="st3" d="M52.6,62.5c-3.1-0.2-4.4-1.1-1.5-2.8C53.5,58.3,54.3,59.5,52.6,62.5z"/>
	</g>
	<g>
		<path class="st3" d="M51,66c-0.3,0-0.7,0-1.1-0.1l0.1-0.6c1,0.2,1.8,0.1,2.2-0.2c0.4-0.3,0.6-0.9,0.5-1.7l0-0.5l0.4,0.2
			c0.6,0.3,1.5,0.4,2.1,0c0.4-0.3,0.6-0.8,0.6-1.4l0.6,0c0,1.1-0.4,1.6-0.8,1.9C54.9,64,54,64,53.3,63.8c0,0.8-0.3,1.3-0.7,1.7
			C52.2,65.9,51.7,66,51,66z"/>
	</g>
	<g>
		<path class="st1" d="M63.2,31c8.6-3.3,22.1-3.2,28.3-3.3c10-0.2,29.7-13.1,51.7-7.7c13.3,3.3,22.4,18,25.1,24.2
			c2.7,6.2-9.4,21.3-14.8,21.5c-35.7,2.4-54.6,0.3-55.3,1.3c-13.7,1.4-16.9,3.1-16.9,3.1c-17.5-2.7-20.4-17.6-19.7-25.1
			C62.4,37.6,52.2,35.3,63.2,31z"/>
	</g>
	<g>
		<path class="st4" d="M99.9,55.2c-3.4,2.9-5.2,5.7-15,7.4c0,0-0.3,3.7-0.4,6.6c2.5-0.6,6.8-1.4,13.7-2.1c0.1-0.2,0.7-0.2,1.7-0.3
			C99.8,65,97.5,63,99.9,55.2z"/>
	</g>
	<g>
		<path class="st1" d="M13.8,76.1c-2-2.4-0.9-7.6,4.1-12.1c5-4.5,3.7-8.9,6.2-10.1c6.3,5.6,11.2,21.2,11.2,21.2
			C32.3,75.7,13.8,76.1,13.8,76.1z"/>
	</g>
	<g>
		<path class="st5" d="M102,70.3c-3.6-4.7-4.4-10.2-2.3-15.6c2.6-6.5,9.2-11.6,16.3-12.6l0.1,0.6c-6.9,1-13.3,5.9-15.9,12.2
			c-2.1,5.2-1.3,10.5,2.2,15L102,70.3z"/>
	</g>
	<g>
		<path class="st5" d="M29,69.8c-0.3-0.4-0.6-1-0.8-1.5c-0.5-1.1-1.1-2.3-2.2-2.8c-2.2-0.9-2.2-1.9-2.2-3c0-0.8,0-1.7-1.1-2.8
			l0.4-0.4c1.2,1.3,1.2,2.4,1.2,3.2c0,1,0,1.7,1.9,2.5c1.3,0.5,1.9,1.9,2.5,3.1c0.3,0.5,0.5,1.1,0.8,1.5L29,69.8z"/>
	</g>
	<g>
		<path class="st5" d="M54.8,69l-0.4-0.4c1.1-1.3,2.5-1.4,4-1.5c1.1-0.1,2.3-0.1,3.5-0.8c3-1.6,6.2-3.1,9.2-4.4
			c1.5-0.6,1.4-1.9,1.4-3.5c0-1.6-0.1-3.4,1.5-4.8c0.3-0.3,0-0.8-0.6-1.6c-0.5-0.8-1-1.6-0.5-2.1c0.6-0.7,0.9-1.2,0.9-1.6
			c0-0.3-0.3-0.6-0.6-0.8c-0.4-0.4-1-0.8-0.7-1.6c0.7-1.9,0-2.7-0.7-3.5c-0.7-0.7-1.5-1.6-1.3-3.3c0.2-1.7-1.1-3.9-5.2-5.2l0.2-0.5
			c4.4,1.4,5.8,4,5.6,5.8c-0.2,1.5,0.5,2.1,1.1,2.8c0.8,0.9,1.7,1.8,0.8,4.1c-0.2,0.4,0.1,0.6,0.5,1c0.4,0.3,0.8,0.6,0.8,1.2
			c0,0.6-0.3,1.2-1,2c-0.2,0.2,0.2,0.9,0.6,1.4c0.6,0.8,1.2,1.8,0.5,2.4c-1.4,1.2-1.4,2.8-1.3,4.4c0,1.6,0.1,3.3-1.8,4.1
			c-3,1.3-6.1,2.8-9.2,4.4c-1.3,0.7-2.6,0.8-3.7,0.8C56.9,67.8,55.7,67.9,54.8,69z"/>
	</g>
	<g>
		<path class="st1" d="M23.2,65.7c11,3.3,17.9,10.6,17.9,12.7c-1.2,2.2-14.5,0.7-17.2,0.5s-9.5-0.4-10.3-3.4
			C12.6,72.4,18.2,64.5,23.2,65.7z"/>
	</g>
	<g>
		<path class="st5" d="M36.7,73.3c-2.2-1.8-6.8-5.2-13.6-7.3l0.2-0.5c6.9,2.1,11.6,5.5,13.8,7.4L36.7,73.3z"/>
	</g>
	<g>
		<path class="st1" d="M90,49.8c1.2,7.3,2.6,17.1,0.6,21.3c-2,4.2-28.1,6.2-35,7.1c-10.7,1.4-13.5-0.2-13.5-0.2
			c0.7-5.2,11.1-9.9,20.3-12.9c4.5-1.5,9.4-3.9,9.4-3.9C72.7,52.6,90,49.8,90,49.8z"/>
	</g>
	<g>
		<path class="st5" d="M47.7,79.1c-4.3,0-5.7-0.8-5.8-0.8l-0.2-0.1l0-0.2c0.8-5.9,13.2-10.8,20.5-13.1l0.2,0.5
			c-12,3.9-19.3,8.4-20.1,12.4c0.8,0.3,4.1,1.3,13.1,0c1.3-0.2,3.2-0.4,5.4-0.6C66,76.8,73.1,76,79,75c8.6-1.5,10.9-3,11.3-4
			c1.3-3.3,1.3-6.3,0.8-10.7l0.6-0.1c0.5,4.5,0.5,7.6-0.8,11c-1.3,3.4-16.1,5.2-29.9,6.7c-2.2,0.2-4.1,0.4-5.4,0.6
			C52.2,79,49.7,79.1,47.7,79.1z"/>
	</g>
	<g>
		<path class="st1" d="M168.4,44.2C170.5,52,179,58.3,179,68.3c0,4.2-8.3,7-18.3,7.5c-10,0.4-23.8,6.4-37.9,6.4
			c-14,0-32.2,3.5-39.8,0c8.2-12.4,20.8-20.3,34.1-22.6c13.3-2.3,29.9,3.9,34.7,4.4c4.9,0.5,8.9-5.8,8.7-6.4
			C160.2,53.5,168.4,44.2,168.4,44.2z"/>
	</g>
	<g>
		<path class="st4" d="M83,82.2c5.8,2.6,17.5,1.3,28.9,0.5c-1.7-0.5-3.5-1-1.7-2.1c3.8-2.2,3.3-3.9,0.9-4.4c-4.9-0.8-9.2,0.8-4.2-2
			c3.7-2.1,1.6-2.5-2.8-2.1c-5.5,0.5-12.7,6.9-10.6,1.7c0.7-1.8,0.7-2.9,0.4-3.6C89.9,73.5,86.1,77.5,83,82.2z"/>
	</g>
	<g>
		<path class="st5" d="M98.2,67.4L97.8,67c5.8-3.9,12.5-6.5,19.2-7.7c9.9-1.7,21.4,1.2,29,3.1c2.6,0.7,4.6,1.2,5.8,1.3
			c2.1,0.2,4-1,5.3-2c1.9-1.7,3.1-3.7,3.1-4.1c0,0,0,0,0,0l0.5-0.2c0.2,0.5-0.8,1.9-1.5,2.8c-1.1,1.3-4,4.4-7.5,4
			c-1.3-0.1-3.3-0.7-5.9-1.3c-7.5-1.9-18.9-4.8-28.7-3.1C110.5,61,103.9,63.6,98.2,67.4z"/>
	</g>
</g>
</svg>
