<?xml version="1.0" encoding="utf-8"?>
<!-- Generator: Adobe Illustrator 24.2.3, SVG Export Plug-In . SVG Version: 6.00 Build 0)  -->
<svg version="1.1" id="Calque_1" xmlns="http://www.w3.org/2000/svg" xmlns:xlink="http://www.w3.org/1999/xlink" x="0px" y="0px"
	 viewBox="0 0 512 383" style="enable-background:new 0 0 512 383;" xml:space="preserve">
<style type="text/css">
	.st0{fill:#EDD464;}
	.st1{fill:#7FBD98;}
	.st2{fill:#57AD7B;}
	.st3{fill:#D8951E;}
	.st4{fill:#EAEAEA;}
	.st5{fill:#CCCCCC;}
</style>
<path class="st0" d="M441,106.6c0,47.6-83.3,86.1-186,86.1c-89.2,0-163.7-29.1-181.8-67.8c-2.8-5.9-4.2-12-4.2-18.3
	c0-47.4,82.8-85.9,185.1-86.1c0.3,0,0.6,0,0.9,0C357.7,20.5,441,59,441,106.6z"/>
<path class="st1" d="M511,342.7c-168.6,37.7-343.4,37.7-512,0c9.3-70.5,18.7-141,28-211.7c0.5-3.7,1-7.4,1.5-11.1
	c3.6-26.8,28.3-45.5,55-41.5c113.7,16.8,229.3,16.8,343,0c26.7-3.9,51.5,14.8,55,41.5c0.5,3.7,1,7.4,1.5,11.1
	C492.3,201.7,501.7,272.3,511,342.7z"/>
<path class="st2" d="M121.3,83.3c-16.7,6.3-29.7,22.2-32.2,42.5c-0.5,4-1,8-1.5,12c-8.9,72.4-17.8,144.8-26.6,217
	c-20.8-3.5-41.4-7.5-62-12.1c9.3-70.5,18.7-141,28-211.7c0.5-3.7,1-7.4,1.5-11.1c3.6-26.8,28.3-45.5,55-41.5
	C96.1,80.2,108.7,81.8,121.3,83.3z"/>
<path class="st3" d="M254.1,20.5c-37.8,1-103.6,66.4-103.6,97.2c0,10-32.8,10.7-77.3,7.2c-2.8-5.9-4.2-12-4.2-18.3
	C69,59.2,151.8,20.7,254.1,20.5z"/>
<path class="st4" d="M483,131c-130.5,25.9-264.4,29.3-395.8,10.3C67.1,138.4,47,135,27,131c0.5-3.7,1-7.4,1.5-11.1
	c3.6-26.8,28.3-45.5,55-41.5c12.6,1.8,25.1,3.5,37.8,4.9c101.5,11.6,204.1,10,305.2-4.9c26.7-3.9,51.5,14.8,55,41.5
	C482,123.6,482.5,127.3,483,131z"/>
<path class="st5" d="M121.3,83.3c-16.7,6.3-29.7,22.2-32.2,42.5c-0.5,4-1,8-1.5,12c-0.1,1.2-0.3,2.3-0.4,3.5
	C67.1,138.4,47,135,27,131c0.5-3.7,1-7.4,1.5-11.1c3.6-26.8,28.3-45.5,55-41.5C96.1,80.2,108.7,81.8,121.3,83.3z"/>
<g>
	<path class="st4" d="M387.7,252.1c0-24.5-64.3-44.4-88.8-44.4c-24.5,0,0,19.9,0,44.4c0,24.5-24.5,44.4,0,44.4
		C323.3,296.6,387.7,276.7,387.7,252.1z"/>
	<path class="st4" d="M187.6,252.1c0-27.2-42-49.3-58.1-49.3c-16,0,0,22.1,0,49.3s-16,49.3,0,49.3
		C145.5,301.5,187.6,279.4,187.6,252.1z"/>
	<path class="st4" d="M298.8,260H187.6c-4.3,0-7.8-3.5-7.8-7.8s3.5-7.8,7.8-7.8h111.3c4.3,0,7.8,3.5,7.8,7.8S303.1,260,298.8,260z"
		/>
	<path class="st4" d="M251.1,303.8c-1.9,0-3.8-0.7-5.3-2c-3.2-2.9-3.4-7.9-0.5-11.1c7.9-8.7,12.6-23.1,12.6-38.5
		s-4.7-29.8-12.6-38.5c-2.9-3.2-2.7-8.2,0.5-11.1s8.2-2.7,11.1,0.5c10.6,11.7,16.7,29.5,16.7,49s-6.1,37.4-16.7,49
		C255.4,302.9,253.3,303.8,251.1,303.8z"/>
	<path class="st4" d="M210.8,303.8c-1.9,0-3.8-0.7-5.3-2c-3.2-2.9-3.4-7.9-0.5-11.1c7.9-8.7,12.6-23.1,12.6-38.5
		s-4.7-29.8-12.6-38.5c-2.9-3.2-2.7-8.2,0.5-11.1s8.2-2.7,11.1,0.5c10.6,11.7,16.7,29.5,16.7,49s-6.1,37.4-16.7,49
		C215.1,302.9,212.9,303.8,210.8,303.8z"/>
</g>
</svg>
