<?xml version="1.0" encoding="utf-8"?>
<!-- Generator: Adobe Illustrator 24.2.3, SVG Export Plug-In . SVG Version: 6.00 Build 0)  -->
<svg version="1.1" id="Capa_1" xmlns="http://www.w3.org/2000/svg" xmlns:xlink="http://www.w3.org/1999/xlink" x="0px" y="0px"
	 viewBox="0 0 512 512" style="enable-background:new 0 0 512 512;" xml:space="preserve">
<style type="text/css">
	.st0{fill:#DD8976;}
	.st1{fill:#FEAA92;}
	.st2{fill:#BA7367;}
	.st3{fill:#FFBC23;}
	.st4{fill:#EAA51C;}
	.st5{fill:#D8941D;}
</style>
<path class="st0" d="M9.3,322.5c-0.6,0-1.2,0-1.7,0c-4.2-0.2-7.6-3.7-7.6-7.9v0c0-4.3,3.4-7.8,7.7-7.9c7.3-0.3,18.7-2.9,28.3-14.9
	c0.5-0.7,1-1.3,1.5-2c-16.2-3.5-26-9-29.8-16.9c-2.3-4.6-3.4-12.2,3.8-21.7c5-6.6,12.1-9.8,19.7-8.8c9.6,1.3,18.6,9.1,23,20.1
	c2,4.9,2.9,10,2.8,15.1c4.6,0.5,9.2,0.8,13.7,0.9c4.1,0.1,7.7,3.3,7.7,7.5c0.1,4.3-3.4,7.7-7.7,7.7c-0.4,0-7.7-0.2-17.2-1.2
	c-1.4,3.1-3.3,6.1-5.5,8.9C33.5,319.1,18.6,322.5,9.3,322.5z M28.3,257.2c-1.3,0-3,0.5-4.9,3c-1.2,1.5-3,4.4-2.2,6
	c1.8,3.6,9.9,6.8,20.4,8.9c-0.2-3.1-1-5.6-1.6-7.1c-2.6-6.4-7.5-10.2-10.9-10.7C28.9,257.2,28.6,257.2,28.3,257.2z"/>
<path class="st1" d="M497.4,279.3l-21.3-6.8c-5.1-1.6-9-5.7-10.7-10.8C441,183.8,350,148.1,258.5,148.1
	c-107.1,0-193.9,48.9-193.9,157c0,62.3,30.5,105.9,77.7,131.1c1.2,0.6,2,1.7,2.2,3l10.6,54.9c1,5.2,5.5,8.9,10.8,8.9h35.7
	c5.3,0,9.8-3.7,10.8-8.9l5.8-30.5c0.4-2.3,2.5-3.8,4.8-3.5c11.5,1.3,23.4,2,35.5,2c16.2,0,32.4-1.2,48.2-3.6c2.3-0.4,4.5,1.2,5,3.5
	l6.1,32.1c1,5.2,5.5,8.9,10.8,8.9h35.7c5.3,0,9.8-3.7,10.8-8.9l11-58.2c0.2-1.3,1.1-2.4,2.3-3c28-14.6,51.2-34.6,66-60.2
	c2-3.4,5.1-6,8.8-7.2l34.3-11c8.7-2.8,14.6-10.9,14.6-20v-35.3C512,290.1,506.1,282.1,497.4,279.3z"/>
<g>
	<path class="st0" d="M509.3,289c-0.9-1.7-2.1-3.2-3.4-4.5c0,0-0.1-0.1-0.1-0.1c-2.3-2.3-5.2-4.1-8.4-5.1l-15.8-5.1v18.6
		c0,23.1-14.7,43.6-36.5,51l0,0c-9.9,3.2-18.5,9.5-24.8,17.8c-7.7,10.2-16.9,19.3-27.2,27.5c-12.2,9.6-20.4,23.3-22.7,38.6
		c-1.7,10.9-3,22.5-3.8,30.8c-0.6,6.3-6,11.2-12.3,11.2h-25.7c-5.3,0-9.8-3.7-10.8-8.9l-6.1-32.1c-0.4-2.3-2.6-3.8-5-3.5
		c-15.8,2.4-32,3.6-48.2,3.6c-12.1,0-24-0.7-35.5-2c-2.3-0.3-4.4,1.3-4.8,3.5l-5.8,30.5c-1,5.2-5.5,8.9-10.8,8.9h-35.7
		c-5.3,0-9.8-3.7-10.8-8.9l-10.6-54.9c-0.2-1.3-1.1-2.4-2.2-3c-42.9-22.9-72-61-77-114.5c0,0,0,0,0,0c-0.1,1.3-0.2,2.6-0.3,4
		c0,0,0,0.1,0,0.1c0,0.1,0,0.3,0,0.4c-0.1,1.2-0.1,2.4-0.2,3.6c0,0.5,0,1-0.1,1.5c0,0.9-0.1,1.8-0.1,2.8c0,1.5-0.1,3-0.1,4.6
		c0,7.8,0.5,15.3,1.4,22.5c1.1,8.8,3,17.2,5.4,25.2c0.1,0.4,0.3,0.9,0.4,1.3c0.3,1.1,0.7,2.1,1.1,3.2c0.1,0.4,0.3,0.8,0.4,1.3
		c1,2.8,2.1,5.6,3.3,8.3c0.1,0.3,0.2,0.6,0.4,0.9c0.6,1.3,1.2,2.6,1.8,3.9c0.1,0.2,0.2,0.4,0.3,0.6c0.6,1.2,1.2,2.4,1.8,3.5
		c0.1,0.2,0.2,0.4,0.3,0.6c0.7,1.3,1.3,2.5,2,3.7c0.2,0.3,0.3,0.5,0.5,0.8c2.2,3.9,4.7,7.7,7.3,11.3c0.2,0.3,0.5,0.7,0.8,1
		c0.6,0.9,1.3,1.7,1.9,2.6c0.3,0.3,0.5,0.7,0.8,1c0.9,1.1,1.8,2.2,2.7,3.3c0,0,0,0,0,0c0.9,1.1,1.9,2.2,2.8,3.2
		c0.3,0.3,0.6,0.6,0.9,1c0.7,0.8,1.4,1.6,2.2,2.3c0.3,0.3,0.6,0.6,0.9,0.9c1,1,2,2,3,3c0,0,0,0,0,0c1.1,1.1,2.3,2.2,3.5,3.3
		c2.4,2.2,4.8,4.2,7.4,6.2c2.5,2,5.1,3.9,7.8,5.8c1.3,0.9,2.7,1.8,4.1,2.7c1.2,0.8,2.5,1.6,3.8,2.4c0.4,0.2,0.7,0.4,1.1,0.7
		c1,0.6,1.9,1.1,2.9,1.7c0.4,0.2,0.8,0.4,1.1,0.7c1.3,0.7,2.6,1.5,3.9,2.2c0.3,0.2,0.6,0.3,0.8,0.6c0.2,0.2,0.4,0.4,0.6,0.6
		c0.1,0.1,0.1,0.1,0.1,0.2c0.1,0.2,0.2,0.4,0.3,0.6c0,0.1,0.1,0.2,0.1,0.2c0.1,0.3,0.2,0.5,0.3,0.8l10.6,54.9
		c0.1,0.6,0.3,1.3,0.5,1.9c0.1,0.3,0.2,0.6,0.4,0.9s0.3,0.6,0.4,0.8c0.2,0.3,0.3,0.5,0.5,0.8c0.2,0.3,0.4,0.5,0.6,0.7
		c0.2,0.3,0.5,0.5,0.7,0.8c0.1,0.1,0.2,0.1,0.2,0.2c0.2,0.2,0.4,0.3,0.6,0.5c0.1,0.1,0.2,0.2,0.3,0.2c0.2,0.1,0.4,0.3,0.6,0.4
		c0.1,0.1,0.2,0.1,0.3,0.2c0.3,0.2,0.6,0.3,0.9,0.5c0,0,0,0,0,0c0.3,0.1,0.7,0.3,1,0.4c0.1,0,0.2,0.1,0.3,0.1
		c0.2,0.1,0.5,0.1,0.7,0.2c0.1,0,0.2,0.1,0.4,0.1c0.2,0.1,0.5,0.1,0.8,0.1c0.1,0,0.2,0,0.3,0c0.4,0,0.7,0.1,1.1,0.1c0,0,0,0,0,0
		h35.7c1.6,0,3.2-0.4,4.6-1c0.6-0.3,1.1-0.6,1.6-0.9c0.5-0.4,1-0.8,1.4-1.2c0.7-0.7,1.2-1.4,1.7-2.2c0.6-1.1,1.1-2.3,1.4-3.6
		l5.8-30.5v0c0-0.3,0.1-0.5,0.2-0.7c0-0.1,0.1-0.1,0.1-0.2c0.1-0.2,0.2-0.3,0.2-0.5c0-0.1,0.1-0.1,0.1-0.2c0.1-0.2,0.3-0.4,0.4-0.6
		c0.4-0.5,1-0.8,1.6-1.1c0.1,0,0.1,0,0.2-0.1c0.1,0,0.3-0.1,0.4-0.1c0.1,0,0.2,0,0.4-0.1c0.1,0,0.2,0,0.3,0c0.2,0,0.5,0,0.8,0
		c1.9,0.2,3.9,0.4,5.8,0.6c0.5,0,1,0.1,1.5,0.1c1.9,0.2,3.9,0.3,5.8,0.5c0,0,0,0,0,0c2,0.1,3.9,0.3,5.9,0.4c0.5,0,1,0,1.5,0.1
		c2,0.1,4,0.2,6,0.2c3,0.1,6,0.1,9.1,0.1c4.1,0,8.1-0.1,12.2-0.2c2.1-0.1,4.1-0.2,6.2-0.3c0.2,0,0.4,0,0.6,0
		c1.9-0.1,3.8-0.2,5.6-0.4c0,0,0.1,0,0.1,0c4.1-0.3,8.2-0.7,12.3-1.2c0,0,0,0,0,0c1.9-0.2,3.7-0.4,5.6-0.7c0.9-0.1,1.8-0.3,2.7-0.4
		c1-0.1,2-0.3,3-0.4c2-0.3,3.9,0.8,4.6,2.6c0,0,0,0,0,0.1c0.1,0.3,0.2,0.5,0.2,0.8l3,16.1l3,16.1c1,5.2,5.5,8.9,10.8,8.9h35.7
		c0,0,0,0,0,0c0.4,0,0.7,0,1.1-0.1c0.1,0,0.2,0,0.3,0c0.3,0,0.5-0.1,0.8-0.1c0.1,0,0.3-0.1,0.4-0.1c0.2-0.1,0.5-0.1,0.7-0.2
		c0.1,0,0.2-0.1,0.3-0.1c0.3-0.1,0.7-0.3,1-0.4c0,0,0,0,0,0c0.3-0.2,0.6-0.3,0.9-0.5c0.1-0.1,0.2-0.1,0.3-0.2
		c0.2-0.1,0.4-0.3,0.6-0.4c0.1-0.1,0.2-0.1,0.3-0.2c0.2-0.2,0.4-0.3,0.6-0.5c0.1-0.1,0.2-0.1,0.2-0.2c0.3-0.2,0.5-0.5,0.7-0.8
		c0.1-0.1,0.2-0.2,0.3-0.3c0.3-0.4,0.6-0.8,0.8-1.2c0.3-0.5,0.6-1.1,0.8-1.7c0.2-0.6,0.4-1.2,0.5-1.9l2.4-12.7l2.5-13.2l1.6-8.3
		L386,436l0,0l0.4-2.1c0.7-0.4,1-0.5,1.8-0.9c0,0,0,0,0.1,0c0,0,0,0,0,0c0.9-0.4,1.7-0.9,2.5-1.4c0.9-0.5,1.8-0.9,2.7-1.4
		c0.8-0.4,1.5-0.9,2.3-1.3c0.9-0.5,1.9-1.1,2.8-1.6c0.8-0.5,1.5-0.9,2.3-1.4c0.9-0.5,1.8-1.1,2.7-1.7c0.8-0.5,1.6-1,2.3-1.5
		c0.8-0.5,1.7-1.1,2.5-1.6c0.8-0.5,1.5-1.1,2.3-1.6c0.8-0.6,1.6-1.1,2.4-1.7c0.7-0.5,1.5-1.1,2.2-1.6c0.8-0.6,1.6-1.2,2.4-1.8
		c0.7-0.6,1.4-1.1,2.1-1.7c0.8-0.6,1.6-1.2,2.3-1.9c0.7-0.6,1.4-1.2,2.1-1.8c0.7-0.6,1.5-1.3,2.2-1.9c0.7-0.6,1.3-1.2,2-1.8
		c0.7-0.7,1.4-1.3,2.1-2c0.6-0.6,1.2-1.3,1.9-1.9c0.7-0.7,1.4-1.4,2.1-2.1c0.6-0.6,1.2-1.3,1.8-2c0.7-0.7,1.3-1.4,2-2.1
		c0.6-0.7,1.1-1.3,1.7-2c0.6-0.7,1.3-1.5,1.9-2.2c0.6-0.7,1.1-1.4,1.6-2.1c0.6-0.8,1.2-1.5,1.8-2.3c0.5-0.7,1-1.4,1.6-2.2
		c0.6-0.8,1.1-1.5,1.7-2.3c0.5-0.7,1-1.5,1.5-2.2c0.5-0.8,1.1-1.6,1.6-2.4c0.6-1,1.2-2,1.8-3c0.4-0.6,0.7-1.2,1.1-1.8
		c1.9-3.3,5-5.8,8.6-7l0.1,0h0l17.5-5.6l16.8-5.4c8.7-2.8,14.6-10.9,14.6-20v-35.3c0-3.1-0.7-6.1-2-8.8
		C509.8,290,509.6,289.5,509.3,289z"/>
	<path class="st0" d="M341.7,167.1c1.1-5.2,4.7-9.4,9.4-11.6c18.4-8.4,65.3-28.7,77.3-22.4c15.1,7.9,7.2,93.3-15.8,106.3
		C390.4,252,326,241.7,341.7,167.1z"/>
	<path class="st0" d="M411.6,303.1c-13.6,0-24.7-11.1-24.7-24.7c0-4.2,3.4-7.6,7.6-7.6s7.6,3.4,7.6,7.6c0,5.3,4.3,9.6,9.6,9.6
		c5.3,0,9.6-4.3,9.6-9.6c0-4.2,3.4-7.6,7.6-7.6s7.6,3.4,7.6,7.6C436.3,292,425.2,303.1,411.6,303.1z"/>
	<path class="st2" d="M300.4,211c-0.8,0-1.6-0.1-2.4-0.4c-41.2-13.8-86.7-13.8-127.9,0c-4,1.3-8.2-0.8-9.6-4.8
		c-1.3-4,0.8-8.2,4.8-9.6c44.3-14.8,93.2-14.8,137.5,0c4,1.3,6.1,5.6,4.8,9.6C306.5,209,303.6,211,300.4,211z"/>
</g>
<circle class="st3" cx="234.1" cy="104.6" r="95.6"/>
<path class="st1" d="M422.1,143c-10.5,0-35.9,8.6-66.3,22.6c-1.7,0.8-2.9,2.2-3.2,3.8c-4.4,21-2.1,38,6.9,49c1,1.3,2.2,2.5,3.4,3.6
	c1.4,1.3,3.7,0.6,4.2-1.3C377.6,178.8,428.9,143,422.1,143z"/>
<path class="st4" d="M302.9,38.2L167.7,173.4c37.4,36.2,97.1,35.8,134.1-1.2S339.1,75.6,302.9,38.2z"/>
<g>
	<path class="st5" d="M263.1,144.1c-4.2,2.8-11.1,5.6-20,5.6c-10.9,0-20.5-4.2-27.2-11.9c-5.1-5.6-8.5-13.4-9.7-23.1h-8.3v-6.6h7.7
		c0-0.7,0-1.3,0-2c0-2.1,0.1-4.2,0.3-6h-7.9v-6.7h8.9c1.6-9.4,5.6-17.2,11-22.7c6.8-7.1,15.6-11.1,26.6-11.1
		c7.9,0,14.1,2.3,17.9,4.3l-2.7,8.9c-3.4-2-9-3.8-15-3.8c-7.2,0-13.2,2.6-17.7,7.4c-4,3.9-6.7,9.9-8.1,17h37.5v6.7h-38.7
		c-0.1,1.7-0.3,3.8-0.3,5.6c0,0.8,0,1.5,0,2.4h38.9v6.6h-38c1.1,7.8,3.8,13.6,7.4,17.6c5,5.2,11.7,7.8,18.9,7.8
		c7.1,0,13.3-2.7,16.4-4.4L263.1,144.1z"/>
</g>
</svg>
