<?xml version="1.0" encoding="utf-8"?>
<!-- Generator: Adobe Illustrator 24.2.3, SVG Export Plug-In . SVG Version: 6.00 Build 0)  -->
<svg version="1.1" id="Calque_1" xmlns="http://www.w3.org/2000/svg" xmlns:xlink="http://www.w3.org/1999/xlink" x="0px" y="0px"
	 viewBox="0 0 200 200" style="enable-background:new 0 0 200 200;" xml:space="preserve">
<style type="text/css">
	.st0{fill:#383938;}
	.st1{fill:#C8BCB6;}
	.st2{fill:#020203;}
	.st3{fill:#ECE7E5;}
	.st4{fill:#FFFFFF;}
	.st5{fill:#1F1F1F;}
	.st6{fill:#B77A80;}
	.st7{fill:#E0D8D5;}
	.st8{fill:#928F8E;}
	.st9{fill:#5C5A5A;}
	.st10{fill:#BCBB4B;}
	.st11{fill:#DDDA73;}
	.st12{fill:#9F9C2C;}
	.st13{fill-rule:evenodd;clip-rule:evenodd;fill:#FFFFFF;}
</style>
<g>
	<g>
		<path class="st0" d="M88.1,150.4c-1.9,0.4-4.1-0.2-5.7,0.9c-1.5,1.1-1.7,3.4-0.8,5c0.9,1.6,2.7,2.5,4.5,2.8c3,0.6,6.2-0.2,8.9-1.7
			c2.7-1.5,5-3.6,7.2-5.8c5.1-5.2,9.6-11.3,11.6-18.4c-6-2.5-12-5.1-18.3-6.7c-6.3-1.7-12.9-2.4-19.3-1.3c1,4.7,4.8,8.6,9.4,9.9
			c2,0.5,4.2,0.6,6.2,1.2c2,0.6,4,2.1,4.3,4.1c0.4,2.4-1.3,4.5-3,6.3C91.7,148.4,90.2,150,88.1,150.4z"/>
		<path class="st0" d="M34,150.5c-0.8-8.7,1-17.4,3.3-25.8c0.5-1.7,0.9-3.8-0.1-5.3c-0.6-0.9-1.6-1.4-2.5-1.9c-5.9-3-11.8-6-17.6-9
			c4.2,6.2,6.3,13.6,7,21.1c0.7,7.4,0.2,15-0.3,22.4c-3-0.1-5.6,3-5.1,5.9c2.4,1.3,5.2,2,7.9,2c2.6,0.1,5.5-0.7,6.9-2.9
			C34.5,155.2,34.2,152.7,34,150.5z"/>
	</g>
	<g>
		<path class="st1" d="M100.2,148.4c-0.7-0.2-1.4-0.3-2-0.8s0.2-1.3-0.2-3.2c-0.2-0.8-1.2-0.8-2.6-0.5c-0.6,1.1-1.5,2.1-2.3,3
			c-1.4,1.5-3,3.1-5,3.6c-1.9,0.4-4.1-0.2-5.7,0.9c-1.5,1.1-1.7,3.4-0.8,5c0.9,1.6,2.7,2.5,4.5,2.8c3,0.6,6.2-0.2,8.9-1.7
			c2.7-1.5,5-3.6,7.2-5.8c0.7-0.8,1.5-1.5,2.2-2.3C103,149,101.6,148.7,100.2,148.4z"/>
		<path class="st1" d="M32.8,153.5c-1.5-0.4-3-1.2-4.5-1c-1.2,0.1-2.2,0.8-3.4,0.6c-0.8-0.1-1.5-0.6-2.2-1c-2.5,0.6-4.5,3.2-4.1,5.8
			c2.4,1.3,5.2,2,7.9,2c2.6,0.1,5.5-0.7,6.9-2.9c0.6-1,0.8-2.2,0.8-3.5C33.7,153.7,33.2,153.6,32.8,153.5z"/>
	</g>
	<path class="st2" d="M15.9,38.3c3.4-0.3,8.3,10,8.3,10S34,49.7,35.6,49s9-7.4,12.5-6.5c2.2,0.5-5.6,14.4-5.2,17.4
		c0.5,3,0.5,4.8,0.4,8.8c27.1-6.2,69.9,6,84,21.6c14.1,15.7,27.2,22.7,37.6,20.5c10.4-2.2,18.7-12,21.6-14.9
		c3.8-3.9,7.5-8.9,8.8-2.7s-7,23-30.2,26.2c-23.2,3.2-35.6-9.5-42.7-14.5c-4.9,10.4,7.3,19.5,9.3,21.4c2,1.9,0.2,7.2,0,13.6
		c-0.2,6.4-3.3,18.3-5.3,19.3c-3.4,1.6-8.3,1.2-10.6-0.6c-3.2-2.6-1-6.4,4.2-6.7c1.7-0.1,4.6-15.5,0.8-15.4
		c-29.8,1-31.6-10.8-34.8-9.9c-8.7,2.5-23.4-1.3-28.8-3.6c0.1,1.4-1.9,6.2-3.4,12.1c-2.5,9.3-5.1,20.8-6,22.4c-1.4,2.5-3.9,4-9.2,4
		c-2.1,0-4.6-0.7-4.9-3.7c-0.3-3,3.6-3,5.8-6.7c2.2-3.8-1.7-27.7-1.7-27.7c-6.4-1-18.2-8.7-21.8-13.8C8.9,99.3,9,91.7,9.8,86.9
		C10.6,82,10,72.9,9,66.8c-0.9-6.1,2.3-14.9,2.3-14.9S12.5,38.6,15.9,38.3z"/>
	<path class="st3" d="M38,124.4c0-4.9-1.3-9.9-3.9-14.1c-1.7-2.8-4-5.3-4.9-8.4c-0.9-2.9-0.6-6.2,0.4-9.1c1-2.9,2.5-5.6,4.1-8.3
		c1.3-2.2,2.5-4.3,3.8-6.5c-5.2,1.7-10.8,1.7-16,0.1c-4.5-1.4-8.6-4.1-11.8-7.6c0.6,5.6,0.9,12.3,0.2,16.3C9,91.7,8.9,99.3,16,109.6
		c3.6,5.1,15.4,12.8,21.8,13.8C37.8,123.4,37.9,123.8,38,124.4z"/>
	<g>
		<path class="st4" d="M131,141.7c-1.2-0.2-2.3-0.8-3.4-0.5c-1,0.3-1.8,1.2-2.4,2c-0.6,0.9-1.2,1.8-2.1,2.4
			c-0.3,0.2-0.6,0.3-0.9,0.3c-0.6,3.2-1.5,5.9-2.2,5.9c-5.2,0.3-7.4,4.1-4.2,6.7c2.3,1.8,7.3,2.2,10.6,0.6
			c1.8-0.9,4.6-10.9,5.2-17.5C131.5,141.7,131.2,141.7,131,141.7z"/>
		<path class="st4" d="M47.8,140.3c-0.8-0.4-1.4-1.1-2.2-1.4c-1.8-0.6-3.9,1-5.7,1c0.4,5.1,0.5,9.7-0.3,11.2
			c-2.2,3.8-6.1,3.7-5.8,6.7c0.3,3,2.8,3.7,4.9,3.7c5.3,0,7.8-1.5,9.2-4c0.7-1.3,2.7-9.4,4.7-17.5C51.1,140.8,49.3,141.1,47.8,140.3
			z"/>
	</g>
	<path class="st5" d="M86.9,106.9c1.8-1.4,2.4-3.9,3.5-5.9c1.5-2.8,4.1-4.7,6.3-7c2.2-2.2,4.2-5.1,3.9-8.2c-0.2-2.7-2.1-5.1-4.4-6.5
		s-4.9-2.2-7.6-2.9c-9.3-2.5-18.7-5.1-28.3-5.4c-1.6,0-3.5,0-4.6,1.2c-1.6,1.7-0.9,4.4-1.3,6.7c-0.3,2.2-1.6,4-2.6,5.9
		s-1.9,4.1-1.3,6.2c0.6,2.1,2.6,3.6,4.6,4.6c2,1,4.2,1.8,5.7,3.4c1,1,1.6,2.3,2.5,3.3c1.9,2.4,4.8,3.9,7.8,4.7
		c3,0.8,6.1,0.9,9.1,1.1C82.5,108.3,85.1,108.3,86.9,106.9z"/>
	<g>
		<path class="st6" d="M15.7,39.7c-0.6,0.2-0.8,0.8-1.1,1.4c-1.7,4-2.6,8.3-2.6,12.7c3.1-2.5,6.8-4.2,10.6-4.8
			c-0.6-3.2-2.2-6.1-4.5-8.4C17.5,39.9,16.5,39.3,15.7,39.7z"/>
		<path class="st6" d="M39.5,50.9c2.3-2.9,7.2-6.7,8.3-7.3c1.1-0.5-4.1,11.4-5.1,14.2C42,55.6,41.1,52.5,39.5,50.9z"/>
	</g>
	<path class="st7" d="M39,66.7c-1.5-1.1-3.5-0.9-4.7-2.2c-1.9-2-1-5.9-2.7-8c-0.3-0.4-0.8-0.6-1.1-0.4C30,56.3,30,57,30,57.5
		c0.1,1.1,0.2,2.3,0.3,3.4c0.1,1,0.1,2.2-0.4,3c-0.3,0.5-0.8,0.8-1.3,1.1c-1.6,0.9-3.3,1.4-5,1.6c-1.2,0.1-2.5,0.1-3.5,0.9
		c-0.9,0.7-1.3,2-1.7,3.2c-0.4,1.5-0.7,3.1,0,4.4c0.6,1.3,1.9,1.8,3.2,2.2c4.4,1.5,9.1,2.1,13.4,0.6c1.4-0.5,2.8-1.3,3.8-2.4
		c1.1-1.2,1.9-2.7,1.9-4.4C40.9,69.4,40.2,67.6,39,66.7z"/>
	<path class="st4" d="M23.8,88c-0.7-1.8-2.5-3-4.4-3.5c-1.9-0.5-5.6-2.8-6.7-0.3c-1.1,2.5-1.4,11.1,1.1,16.3
		c2.5,5.2,7.5,9.1,13.1,10.3c1.7-1.8,0.8-4.7-0.5-6.7c-1.4-2-3.3-3.8-3.6-6.3C22.4,94.6,25,91.2,23.8,88z"/>
	<g>
		<path class="st4" d="M36.6,70.7c-3.7-1.2-2.3-6.3-5.6-6.3c-3.1,0-1.1,4.7-4.6,5.9c-1,0.3-3.3,1.6-3.4,2.8
			c-0.1,1.5,1.4,1.7,2.5,2.2c2.9,1.1,5.3-0.4,6.1-0.4c1.7,0.1,3,0.8,3.8,0.8c0.8-0.1,2-0.9,2.4-1.7C38.4,73.2,38.1,71.2,36.6,70.7z"
			/>
		<path class="st4" d="M33.8,76c-1.3-0.4-2.8-0.4-4.1,0c-0.4,0.1-0.7,0.3-1,0.6c-0.2,0.1-0.3,0.3-0.3,0.5c0,0.2,0.1,0.3,0.3,0.4
			c0.2,0.1,0.4,0.2,0.6,0.2c1.4,0.3,2.9,0.3,4.3,0.1c0.3,0,0.5-0.1,0.8-0.2c0.2-0.1,0.4-0.3,0.5-0.5c0.1-0.3-0.1-0.5-0.3-0.7
			C34.3,76.2,34.1,76.1,33.8,76z"/>
	</g>
	<g>
		<path class="st8" d="M36.6,75.2c-1.3,1.3-3.2-0.1-4.7-0.2c0,0-0.1,0-0.1,0c0,0,0,0,0,0c0-0.6,0-1.1,0-1.7c0-0.2-0.4-0.2-0.4,0
			c0,0.6,0,1.1,0,1.7c-1.8,0.1-3.6,1.5-5.2,0.3c-0.1-0.1-0.5,0.1-0.3,0.2c0.7,0.5,1.6,0.6,2.5,0.5c0.6-0.1,1.1-0.3,1.7-0.5
			c1-0.3,1.9-0.3,2.9,0c1.2,0.4,2.9,0.9,4-0.2C37.1,75.1,36.7,75.1,36.6,75.2z"/>
		<path class="st2" d="M33.6,68.6c-1.3-0.4-2.8-0.4-4.2,0c-0.4,0.1-0.8,0.3-1.1,0.6c-0.3,0.3-0.5,0.7-0.5,1.1
			c0.1,0.4,0.3,0.6,0.5,0.9c0.9,0.9,1.9,1.7,3,2.4c0.2,0.1,0.3,0.2,0.5,0.2c0.2,0,0.3-0.1,0.5-0.2c0.5-0.3,2.9-2,2.7-3.7
			c0-0.3-0.2-0.6-0.5-0.8C34.2,68.8,33.9,68.7,33.6,68.6z"/>
		<path class="st9" d="M33.8,69.6c0.1-0.1,0.1-0.2,0-0.3c-0.1-0.1-0.1-0.2-0.2-0.3c-0.6-0.5-3.7-0.6-4.2,0c-0.1,0.1-0.2,0.3-0.1,0.5
			c0.1,0.1,0.3,0.1,0.4,0.2c1.3,0,2.5,0.1,3.8,0.1C33.5,69.7,33.7,69.7,33.8,69.6z"/>
	</g>
	<g>
		<path class="st10" d="M27.4,63.4c0,0-0.4-3-3.1-3.2C21.6,60,20,61.3,20,61.8c0,1.6,1.3,3.3,3.5,3.4C25.7,65.2,26.6,64.5,27.4,63.4
			z"/>
		<path class="st11" d="M20.5,62.2c0-0.1,0-0.3,0.1-0.4c0.1-0.1,0.3-0.1,0.5,0c0.1,0.1,0.2,0.3,0.3,0.4c0.8,1.4,2.5,2.3,4.2,2.1
			c-1,0.3-2.1,0.4-3.1,0C21.5,64.1,20.6,63.3,20.5,62.2z"/>
		<path class="st12" d="M26.4,61.9c0.1,0.1,0.1,0.3,0.1,0.4c0,0.1,0,0.2-0.1,0.3c-0.1,0.1-0.4,0.1-0.5,0c-0.5-0.2-0.7-0.6-1.1-0.9
			c-0.6-0.6-1.7-0.9-2.7-0.8c0.7-0.2,1.5-0.2,2.2-0.1C25.2,60.9,26.1,61.3,26.4,61.9z"/>
		<path class="st2" d="M25.2,62.5c0,1.1-0.4,2-1,2c-0.5,0-1-0.9-1-2c0-1.1,0.4-2,1-2C24.8,60.4,25.2,61.3,25.2,62.5z"/>
		<path class="st4" d="M24.1,62.2c0,0.4-0.3,0.7-0.8,0.7c-0.4,0-0.8-0.3-0.8-0.7c0-0.4,0.3-0.7,0.8-0.7
			C23.7,61.5,24.1,61.8,24.1,62.2z"/>
	</g>
	<g>
		<path class="st10" d="M34.7,63c0,0,0.7-3,3-2.9c2.3,0.1,3.6,1.5,3.5,2c-0.2,1.6-1.5,3.2-3.4,3C35.9,65,35.2,64.2,34.7,63z"/>
		<path class="st11" d="M35.2,62.6c0-0.1,0-0.3,0-0.4c0.1-0.1,0.2-0.1,0.3,0c0.1,0.1,0.2,0.3,0.2,0.4c0.6,1.4,1.8,2.3,2.9,2.1
			c-0.7,0.3-1.5,0.4-2.2,0C35.8,64.4,35.2,63.6,35.2,62.6z"/>
		<path class="st12" d="M40.7,61.7c0.1,0.1,0.1,0.3,0.1,0.4c0,0.1,0,0.2-0.1,0.3c-0.1,0.1-0.4,0.1-0.5,0c-0.5-0.2-0.7-0.6-1.1-0.9
			c-0.6-0.6-1.7-0.9-2.7-0.8c0.7-0.2,1.5-0.2,2.2-0.1C39.4,60.7,40.4,61.1,40.7,61.7z"/>
		<path class="st2" d="M39.4,62.6c0,1.1-0.4,2-1,2c-0.5,0-1-0.9-1-2c0-1.1,0.4-2,1-2C38.9,60.5,39.4,61.5,39.4,62.6z"/>
		<path class="st4" d="M38.1,62.1c0,0.4-0.3,0.7-0.8,0.7s-0.8-0.3-0.8-0.7s0.3-0.7,0.8-0.7S38.1,61.7,38.1,62.1z"/>
	</g>
	<g>
		<path class="st13" d="M7.4,71.9c0.4-0.1,0.8-0.3,1.3-0.4c0.2-0.1,0.5-0.1,0.7-0.2c0.3-0.1,0.5-0.1,0.8-0.2c1-0.2,2.1-0.4,2.9-0.6
			c0.9-0.1,1.8-0.2,2.6-0.3c0.4,0,0.8-0.1,1.3-0.1c0.4,0,0.9,0,1.4-0.1c0.5,0,1,0,1.6,0c0.3,0,0.6,0,0.9,0c0.3,0,0.6,0,0.9,0.1
			c0.6,0.1,1.2,0.1,1.8,0.2c0.3,0,0.6,0.1,0.8,0.1c0.3,0,0.5,0.1,0.8,0.1c0.4,0,1.3,0.2,1.7,0.3c0.2,0,0.1,0-0.2,0
			c-0.1,0-0.3,0-0.6-0.1c-0.2,0-0.5-0.1-0.9-0.1c-0.2,0-0.4,0-0.6-0.1c-0.1,0-0.2,0-0.3,0c-0.1,0-0.2,0-0.4,0c-0.5,0-1-0.1-1.6-0.1
			c-1.2-0.1-2.3-0.2-3.7-0.1c-1.8,0-3.8,0.2-5.5,0.5c-0.3,0.1-0.7,0.1-1,0.2c-0.4,0.1-0.7,0.1-1.1,0.2c-0.8,0.2-1.5,0.3-2.3,0.5
			c-0.2,0-0.4,0.1-0.5,0.1c-0.2,0-0.3,0.1-0.5,0.1c-0.3,0.1-0.6,0.2-0.9,0.2c-0.5,0.2-0.9,0.3-1,0.3c-0.2,0.1-0.2,0,0.1-0.1
			c0.1-0.1,0.3-0.1,0.6-0.2c0.1,0,0.3-0.1,0.4-0.2C7,72,7.2,72,7.4,71.9z"/>
		<path class="st13" d="M5.9,78.1c0.2-0.1,0.4-0.2,0.6-0.3c0.2-0.1,0.5-0.2,0.7-0.3c0.5-0.2,1-0.4,1.6-0.6c0.5-0.2,1.1-0.4,1.6-0.6
			c0.5-0.2,1-0.3,1.4-0.5c2-0.7,3.5-1.1,5.5-1.6c1-0.3,2.3-0.5,3.6-0.8c1.3-0.2,2.6-0.4,3.6-0.5c0.1,0,0.2,0,0.4,0
			c0.2,0,0.3,0,0.5,0c0.4,0,0.7,0,0.9-0.1c0.2,0,0.1,0-0.2,0.1c-0.2,0-0.4,0.1-0.6,0.1c-0.1,0-0.3,0-0.4,0.1c-0.2,0-0.3,0-0.5,0.1
			c-0.2,0-0.4,0.1-0.7,0.1c-0.2,0-0.5,0.1-0.8,0.1c-0.3,0-0.5,0.1-0.8,0.1c-0.3,0.1-0.6,0.1-0.9,0.2c-0.3,0.1-0.6,0.1-0.9,0.2
			c-0.3,0.1-0.6,0.1-1,0.2c-0.3,0.1-0.7,0.1-1,0.2c-0.2,0-0.3,0.1-0.5,0.1c-0.2,0-0.4,0.1-0.5,0.1c-1.9,0.5-4,1.1-5.7,1.7
			c-1.3,0.4-3.1,1-4.6,1.6c-0.8,0.3-1.4,0.6-2,0.8c-0.5,0.2-0.9,0.4-1.1,0.5C4,79.1,4,79,4.3,78.9C4.6,78.7,5.1,78.4,5.9,78.1z"/>
		<path class="st13" d="M10.6,80.6c0.6-0.4,1.4-0.8,2.2-1.2c0.4-0.2,0.8-0.4,1.2-0.6c0.4-0.2,0.8-0.4,1.1-0.5
			c0.2-0.1,0.4-0.2,0.6-0.2c0.2-0.1,0.4-0.2,0.5-0.2c0.3-0.2,0.7-0.3,1-0.4c0.3-0.2,0.7-0.3,1-0.4c0.4-0.1,0.7-0.3,1.1-0.4
			c0.4-0.2,0.8-0.3,1.3-0.5c0.5-0.2,1-0.3,1.5-0.5c0.5-0.1,1-0.3,1.5-0.4c0.2-0.1,0.5-0.1,0.7-0.2c0.2-0.1,0.4-0.1,0.6-0.2
			c0.3-0.1,1.1-0.3,1.4-0.4c0.3-0.1-0.2,0.2-1.3,0.5c-0.2,0-0.3,0.1-0.5,0.2c-0.1,0-0.2,0.1-0.3,0.1c-0.1,0-0.2,0.1-0.3,0.1
			c-0.4,0.1-0.9,0.3-1.3,0.4c-0.5,0.1-1,0.3-1.5,0.5c-0.3,0.1-0.5,0.2-0.8,0.3c-0.3,0.1-0.5,0.2-0.8,0.3c-0.4,0.1-0.7,0.3-1.1,0.4
			c-0.4,0.2-0.8,0.3-1.1,0.5c-0.4,0.2-0.7,0.3-1.1,0.5c-0.4,0.2-0.7,0.3-1,0.5c-0.5,0.2-1.1,0.5-1.7,0.8c-0.6,0.3-1.2,0.6-1.8,0.9
			c-0.1,0.1-0.3,0.1-0.4,0.2c-0.1,0.1-0.3,0.1-0.4,0.2c-0.3,0.1-0.5,0.3-0.7,0.4c-0.4,0.2-0.7,0.4-0.8,0.4
			C9,81.6,9.4,81.3,10.6,80.6z"/>
		<path class="st13" d="M49.5,72.7c-0.1-0.1-0.3-0.1-0.4-0.2c-0.2-0.1-0.3-0.1-0.5-0.2c-0.2-0.1-0.3-0.1-0.5-0.2
			c-0.2-0.1-0.4-0.1-0.6-0.2c-0.7-0.3-1.5-0.5-2.1-0.6c-0.7-0.2-1.3-0.3-1.9-0.3c-0.3,0-0.6-0.1-0.9-0.1c-0.3,0-0.7,0-1,0
			c-0.4,0-0.8,0-1.2,0c-0.2,0-0.4,0-0.6,0c-0.2,0-0.4,0-0.7,0c-0.4,0.1-0.9,0.1-1.3,0.2c-0.2,0-0.4,0.1-0.6,0.1
			c-0.2,0-0.4,0.1-0.6,0.1c-0.3,0.1-1,0.3-1.2,0.3c-0.1,0-0.1,0,0.1-0.1c0.1,0,0.2-0.1,0.4-0.2c0.2-0.1,0.4-0.1,0.6-0.2
			c0.1,0,0.3-0.1,0.5-0.1c0.1,0,0.2,0,0.3-0.1c0.1,0,0.2,0,0.3-0.1c0.2,0,0.4-0.1,0.6-0.1c0.2,0,0.4-0.1,0.6-0.1
			c0.9-0.1,1.8-0.1,2.8-0.1c0.7,0,1.4,0,2.1,0.1c0.3,0,0.7,0.1,1,0.1c0.3,0.1,0.7,0.1,0.9,0.2c0.2,0.1,0.5,0.1,0.7,0.2
			c0.3,0.1,0.5,0.2,0.8,0.3c0.5,0.2,1.1,0.4,1.6,0.7c0.1,0.1,0.3,0.1,0.4,0.2c0.1,0.1,0.2,0.1,0.3,0.2c0.2,0.1,0.4,0.2,0.6,0.3
			c0.4,0.2,0.6,0.4,0.7,0.4c0.1,0.1,0.1,0.1-0.1,0c-0.1,0-0.2-0.1-0.4-0.2c-0.1,0-0.2-0.1-0.3-0.2C49.7,72.8,49.6,72.7,49.5,72.7z"
			/>
		<path class="st13" d="M49.5,77.7c-0.1-0.1-0.3-0.2-0.4-0.3c-0.1-0.1-0.3-0.2-0.5-0.4c-0.2-0.1-0.3-0.3-0.5-0.4
			c-0.2-0.1-0.3-0.2-0.5-0.4c-0.3-0.3-0.7-0.5-1-0.7c-0.1-0.1-0.2-0.1-0.2-0.2c-0.1,0-0.2-0.1-0.2-0.1c-0.2-0.1-0.3-0.2-0.4-0.2
			c-0.7-0.4-1.2-0.6-1.8-0.9c-0.3-0.1-0.6-0.2-0.9-0.3c-0.3-0.1-0.6-0.2-1-0.3c-0.3-0.1-0.7-0.2-1.2-0.3c-0.1,0-0.2-0.1-0.3-0.1
			c-0.1,0-0.2,0-0.3-0.1c-0.1,0-0.2,0-0.3-0.1c-0.1,0-0.2,0-0.3-0.1c-0.4-0.1-0.9-0.1-1.3-0.2c-0.2,0-0.4,0-0.6,0
			c-0.2,0-0.4,0-0.6,0c-0.3,0-1,0-1.3,0c-0.2,0-0.1,0,0.1-0.1c0.1,0,0.3,0,0.5-0.1c0.2,0,0.4-0.1,0.7,0c0.1,0,0.3,0,0.5,0
			c0.1,0,0.2,0,0.3,0c0.1,0,0.2,0,0.3,0c0.2,0,0.4,0,0.6,0c0.2,0,0.4,0,0.6,0.1c0.9,0.1,1.8,0.3,2.8,0.6c0.7,0.2,1.4,0.4,2,0.7
			c0.3,0.1,0.7,0.3,1,0.4c0.3,0.2,0.6,0.3,0.9,0.5c0.2,0.1,0.5,0.3,0.7,0.4c0.2,0.2,0.5,0.3,0.8,0.5c0.3,0.2,0.5,0.4,0.8,0.6
			c0.1,0,0.1,0.1,0.2,0.1c0.1,0.1,0.1,0.1,0.2,0.2c0.1,0.1,0.2,0.2,0.4,0.3c0.1,0.1,0.2,0.2,0.3,0.3c0.1,0.1,0.2,0.2,0.3,0.3
			c0.2,0.2,0.4,0.4,0.5,0.5c0.3,0.3,0.5,0.6,0.6,0.7c0.1,0.1,0.1,0.1-0.1,0c-0.1-0.1-0.2-0.2-0.4-0.3c-0.1-0.1-0.2-0.2-0.3-0.3
			C49.8,77.9,49.7,77.8,49.5,77.7z"/>
		<path class="st13" d="M45,78.6c-0.4-0.3-0.9-0.6-1.4-1c-0.2-0.2-0.5-0.3-0.7-0.5c-0.2-0.1-0.5-0.3-0.7-0.4c-0.1,0-0.1-0.1-0.2-0.1
			c-0.1,0-0.1-0.1-0.2-0.1c-0.1-0.1-0.2-0.1-0.3-0.2c-0.2-0.1-0.4-0.2-0.6-0.3c-0.2-0.1-0.4-0.2-0.6-0.3c-0.2-0.1-0.4-0.2-0.7-0.3
			c-0.2-0.1-0.5-0.2-0.8-0.3c-0.1-0.1-0.3-0.1-0.5-0.2c-0.1,0-0.2-0.1-0.2-0.1c-0.1,0-0.2-0.1-0.2-0.1c-0.3-0.1-0.6-0.2-0.9-0.3
			c-0.2,0-0.3-0.1-0.4-0.1c-0.1,0-0.3-0.1-0.4-0.1c-0.2,0-0.7-0.1-0.9-0.2c-0.2,0,0.2-0.1,0.9,0c0.1,0,0.2,0,0.3,0.1
			c0.1,0,0.1,0,0.2,0c0.1,0,0.1,0,0.2,0c0.3,0.1,0.6,0.1,0.9,0.2c0.2,0,0.3,0.1,0.5,0.1c0.2,0.1,0.3,0.1,0.5,0.2
			c0.2,0.1,0.3,0.1,0.5,0.2c0.2,0.1,0.3,0.1,0.5,0.2c0.2,0.1,0.5,0.2,0.7,0.3c0.2,0.1,0.5,0.2,0.7,0.3c0.2,0.1,0.5,0.2,0.7,0.3
			c0.2,0.1,0.4,0.2,0.6,0.4c0.3,0.2,0.7,0.4,1,0.7c0.4,0.3,0.7,0.6,1.1,0.8c0.1,0.1,0.2,0.1,0.2,0.2c0.1,0.1,0.2,0.1,0.2,0.2
			c0.1,0.1,0.3,0.3,0.4,0.4c0.2,0.2,0.4,0.4,0.5,0.4C46.1,79.3,45.8,79.2,45,78.6z"/>
	</g>
</g>
</svg>
