<?xml version="1.0" encoding="utf-8"?>
<!-- Generator: Adobe Illustrator 24.2.3, SVG Export Plug-In . SVG Version: 6.00 Build 0)  -->
<svg version="1.1" id="Calque_1" xmlns="http://www.w3.org/2000/svg" xmlns:xlink="http://www.w3.org/1999/xlink" x="0px" y="0px"
	 viewBox="0 0 200 200" style="enable-background:new 0 0 200 200;" xml:space="preserve">
<style type="text/css">
	.st0{fill:#D9D6D3;}
	.st1{fill:#232323;}
	.st2{fill:#2E2E2E;}
	.st3{fill:#343434;}
	.st4{fill:#F49F83;}
	.st5{fill:#E6C93D;}
	.st6{fill:#EBD26D;}
	.st7{fill:#020203;}
	.st8{fill:#FFFFFF;}
	.st9{fill:#AF9881;}
	.st10{fill:#E28F7A;}
	.st11{fill-rule:evenodd;clip-rule:evenodd;fill:#FFFFFF;}
</style>
<g>
	<g>
		<path class="st0" d="M102.8,116.3c-1.8-2.2-1.4-5.6,0.2-8c1.6-2.4,4.1-3.9,6.6-5.4c3.1-1.9,6.3-3.8,9.8-4.5
			c1.5-0.3,3.2-0.3,4.3,0.8c0.9,0.9,1.1,2.1,1.1,3.3c0.2,2.5,0.1,5-0.2,7.4c-0.3,2-0.8,4-2,5.6c-1.3,1.7-3.4,2.7-5.6,3.1
			c-2.1,0.4-4.3,0.3-6.5,0.2C107.7,118.7,104.5,118.5,102.8,116.3z"/>
		<path class="st1" d="M134.4,106.1c-0.3-2.7,0.8-5.3,2.5-7.4c1.6-2.1,3.8-3.8,5.9-5.4c3.6-2.8,8.5-5.5,12.1-8.3
			c-3.2,6.9-2,13.5-2.3,22.4c-0.3,7.6,1.6,14.9,4.1,22c2.1,5.8,2.6,11.6,7.2,17.2c1.8-0.5,3.7-0.9,5.6-0.5c1.8,0.4,3.6,1.9,3.6,3.8
			c0,2.4-5.8,3.7-8.2,3.5c-3.9-0.2-4.6,0.5-6.9-2.1c-2.1-2.5-3.6-5.2-5.1-8c-3-5.7-6-11.4-9-17.1c-2.5-4.8-5-9.5-7.5-14.3
			C135.5,109.9,134.6,108.1,134.4,106.1z"/>
		<path class="st1" d="M99.8,140.4c7.2,2.4,14,0.1,16.7-0.1c1.5-0.1,3-0.2,4.3,0.6c1.8,1.1,2.2,3.8,1.2,5.6c-0.9,1.9-2.9,3.1-5,3.6
			c-2.1,0.5-4.2,0.4-6.3,0.2c-6.8-0.4-13.5-0.8-20.3-1.2c2.1-2.6,5.1-4.4,8.3-5.5C101.9,142.6,96.6,139.4,99.8,140.4z"/>
	</g>
	<path class="st2" d="M155.9,66.8c-0.8-2.4-0.4-10.2-2-17.6c-1.6-7.4-1.4-14.8-1.4-17.4c0-2.6-0.2-17-1-19.6
		c-0.8-2.6-4.2-7.8-6.6-6.2c-2.4,1.6-8.2,16-8.2,16s-9,1.8-12.2,4.6c-6.2-3.4-16.2-7-17.6-4.8c-1.4,2.2,9.4,13.6,11.6,17.6
		c2.2,4,7,7.4,7,9.2s-3.5,2.8-5.8,5.6c-3.2,3.8-3.7,5.1-5.6,6.5c0,0,0,0.1,0,0.1c-14-0.1-27.1,9.1-34.5,21.1
		c-7.5,12.2-10,26.9-10.5,41.2c-0.2,4.5-0.2,9.1-2.2,13.1c-2.6,5.1-8.1,8.3-13.7,9.5c-5.6,1.2-10.7,5.6-15.2,9.2
		c-4.5,3.6-8.3,8.4-9.6,14c-1.4,5.6,0.1,12.1,4.5,15.8c4,3.4,13.8,5.6,19.5,6.5c18.1,3,35.2,4.2,52.3-2.6c2.7-1.1,4-8.5-3.7-7.2
		c-15.6,2.5-13.2,3.6-34.4,2.9c-6.9-0.2-20.5-3.1-23.3-3.7c-2.8-0.6-5.5-2.2-6.6-4.9c-1.7-4,0.8-8.6,3.9-11.7
		c8.9-8.9,22-11.8,34.4-14.3c-0.9,1.5,0.1,3.5,1.6,4.4c1.5,0.9,3.3,0.9,5.1,0.9c11.5,0,22.9,0,34.4,0.1c2.7,0,5-0.6,5.4-3.2
		c0.4-2.7-1.9-4.3-4.6-4.8c-7.1-1.2-16.5,0.1-23.7,1c7-1.8,16.2-5.4,21.7-10.1c4-3.4,7.2-7.4,8.8-11.9c2.9,10.4,6.3,22.7,7.2,25.1
		c1.4,4,8.2,3.2,11.6,2.8c3.4-0.4,4.2-1.4,3-5c-1.2-3.6-6-1.6-7.2-3c-1.2-1.4-3.6-15.4-3.6-15.4s-2.2-16.6,0.4-21.6
		c2.6-5,10-10,16.8-18.2C158.3,82.7,156.7,69.1,155.9,66.8z M111.7,107.6c2.3-0.5,4.4-1.7,6-3.4c-0.2,1.2,0.1,2.6,0.5,4.4
		C116.4,107.6,114.1,107.2,111.7,107.6z"/>
	<path class="st0" d="M156.5,77.3c-0.4,4.6-1.8,9.7-5,13.6c-6.8,8.2-14.2,13.2-16.8,18.2c-0.4,0.8-0.7,1.9-0.9,3.2
		c-0.4-5.9,1.3-11.9,4.1-17.2c1.3-2.4,2.8-4.8,4.7-6.7C146.8,84.2,152.8,81.9,156.5,77.3z"/>
	<path class="st3" d="M114.6,137.9c-3.3,2.8-7.9,5.3-12.6,7.1c1-1.6,2-3.2,3-4.7c2.3-3.6,4.7-7.3,8.1-9.8c1.4-1,2.9-1.8,3.9-3.2
		c1.3-1.8,1.4-4.1,1.5-6.2c0.1-3.1,0.2-6.4-1.3-9.1c-1.5-2.8-5-4.7-7.8-3.2c0.4-0.3,1.4-1.1,2.3-1.2c7.2-1,12.6,4.3,12.8,11.5
		C124.8,126.3,120.6,132.8,114.6,137.9z"/>
	<g>
		<path class="st0" d="M124.6,50.2c0.6-0.5,0.9-1,0.9-1.6c0-0.2,0-0.4-0.1-0.6c4.3,2.3,9.5,2.6,14,0.7c4.9-2,8.6-6.6,9.7-11.8
			c1.3,3.2-0.6,6.7-0.8,10.1c-0.3,6.3,5.4,11.5,6.3,17.7c0.6,4.2-1,8.4-2.8,12.3c-0.5,1.1-1.1,2.3-2,3.1c-0.9,0.8-2.4,1.3-3.5,0.7
			c-1.4-0.7-1.8-2.6-1.9-4.2c-0.5-5-1.4-10.3-4.8-13.9c-2.6-2.8-6.3-4.3-9.5-6.3C127.8,55,125.5,52.8,124.6,50.2z"/>
		<path class="st1" d="M119.8,54.2c-3.2,3.8-3.7,5.1-5.6,6.5c0,0,0,0.1,0,0.1c-14-0.1-27.1,9.1-34.5,21.1
			c-7.5,12.2-10,26.9-10.5,41.2c-0.2,4.5-0.2,9.1-2.2,13.1c-2.6,5.1-8.1,8.3-13.7,9.5c-5.6,1.2-10.7,5.6-15.2,9.2
			c-2.8,2.3-5.4,5-7.2,8.1c5.7-6,13-10.4,20.9-12.7c6-1.7,12.7-2.4,17.2-6.8c3.3-3.2,4.7-8,5-12.6c0.3-4.6-0.3-9.2-0.4-13.8
			c-0.2-9.1,1.5-18.3,5.7-26.4c4.1-8.1,10.7-15,18.9-19c5-2.4,10.5-3.8,15.2-6.7c4.3-2.7,8-7.2,8-12.2
			C120.7,53.1,120.2,53.6,119.8,54.2z"/>
	</g>
	<g>
		<path class="st3" d="M133.3,63.4c-1.6-1-3.2-1.9-5-2.3c-1.8-0.4-3.9-0.2-5.3,1c-1.9,1.7-2,4.5-2.1,7C120.7,75,120,81,120,87
			c0,6,0.9,12.1,3.6,17.4c0.4,0.8,1,1.7,1.9,1.9c0.9,0.2,1.9-0.4,2.4-1.2c0.5-0.8,0.6-1.8,0.8-2.8c1.1-8.2,2.8-16.8,7.8-23.4
			c1.6-2.2,3.6-4.3,3.7-7c0.1-1.9-0.9-3.7-2.2-5.1C136.6,65.4,135,64.4,133.3,63.4z"/>
		<path class="st3" d="M102.9,99.7c1.5-4.7,3.6-9.1,5.1-13.8c1.5-4.6,6.9-13.4,1.5-14.4c-5.4-1-21.1,9.2-26.4,19
			c-3.5,6.4-5.1,13.7-5.5,21c-0.5,7.3,0.1,14.6,0.7,21.8c0.1,1.4,0.3,2.9,1.2,4c1.6,2,4.6,1.7,7.1,1.2c2.8-0.6,5.6-1.2,8.1-2.4
			c2.5-1.3,4.8-3.3,5.8-5.9c1.2-3.1,0.6-6.5,0.3-9.8C100.1,113.4,100.8,106.4,102.9,99.7z"/>
	</g>
	<g>
		<g>
			<path class="st4" d="M140.7,23.2c-0.6-2.1,0.3-4.3,1.2-6.3c1.3-3,2.6-5.9,4-8.9c0.2-0.5,0.5-1,1-1.1c0.4,0,0.7,0.2,1,0.5
				c2.6,2.6,3.8,6.5,4,10.2c0.2,3.7-0.3,7.4-0.5,11.2c-1.5-1.3-3.1-2.7-4.9-3.8C144.7,24.1,142.7,23.3,140.7,23.2z"/>
			<path class="st4" d="M121.9,28.6c-0.2-0.4-0.5-0.6-0.8-0.8c-3.9-2.6-8.3-4.5-12.8-5.5c-0.5,0.3-0.7,1-0.5,1.6
				c0.1,0.6,0.5,1.1,0.9,1.5c3.6,4.5,7.1,9.7,11,13.9c-0.4-5,1-7.2,2.2-9.3C122.1,29.6,122.1,29.1,121.9,28.6z"/>
		</g>
		<path class="st2" d="M138,26.8c2.8-0.8,4.6,0,5.8,0.8c1,0.7,1.3,2.1,1,3.3c-0.3,1.2-1.1,2.2-2,3c-1.8,1.5-4.2,2.4-6.6,2.4
			c-1.4,0-2.9-0.3-4.2,0c-1.7,0.4-3,1.8-4.4,3c-1.3,1.2-3.1,2.2-4.8,1.7c-1.7-0.5-2.7-2.4-2.5-4.2c0.2-1.7,1.1-3.8,2.8-4.3
			c1.8-0.5,7.4,0.7,8.4-0.7C132.9,29.8,136.2,27.3,138,26.8z"/>
		<path class="st1" d="M125.5,30c-1-1-1.2-3.5-1-3.4c2.8-2.4,9.8-4.1,11.7-4.5c0.1,0.7,0.2,1.4,0.3,2.1c0,0.2,0.1,0.4,0,0.6
			c-0.2,0.4-0.9,0.3-1.4,0.3c-1.3,0.2-1.4,2.3-2.6,2.9c-0.7,0.3-1.5,0.1-2.2,0.1C128.6,28.1,127,29.1,125.5,30z"/>
		<path class="st0" d="M139.4,48.7c-3.8,1.6-8.2,1.6-12,0.2c-0.7-0.7-1.2-1.7-1.2-2.7c-0.1-2.2,1.9-4.1,4-4.8
			c2.1-0.7,4.4-0.5,6.7-0.6c2.8-0.1,5.5-0.5,8.1-1.3c0.4-0.1,0.8-0.2,1.1-0.1c0.4,0.2,0.5,0.6,0.6,1.1c0.1,0.7,0.1,1.5,0,2.2
			C144.9,45.3,142.4,47.5,139.4,48.7z"/>
		<g>
			<path class="st1" d="M135.4,29.3c0.4-0.5,1.1-0.8,1.8-0.9c1-0.2,2-0.1,2.9,0.4c0.9,0.5,1.6,1.3,1.8,2.3c0.2,1-0.1,2.2-0.9,2.9
				c-0.7,0.8-1.7,1.3-2.8,1.4c-1,0.2-2.1,0-3.1-0.3c-0.4-0.1-0.8-0.3-1-0.7c-0.1-0.3-0.1-0.7,0-1c0.2-0.7,0.3-1.5,0.5-2.2
				C134.8,30.6,134.9,29.9,135.4,29.3z"/>
			<path class="st5" d="M134.7,34.2c0,0,0.2-4,2.8-4.8c2.7-0.8,4,1.4,4,2c0,0.6-0.9,3.2-3.4,3.5C135.6,35.2,134.7,34.2,134.7,34.2z"
				/>
			<path class="st6" d="M140.8,30.7c0.2,0.2,0.2,0.4,0.2,0.6c-0.1,1.1-0.7,2.2-1.7,2.8c-1,0.6-2.2,0.7-3.3,0.2
				c1.4-0.2,2.7-1.1,3.3-2.5c0.2-0.4,0.3-0.8,0.6-1.1C140.2,30.5,140.6,30.4,140.8,30.7z"/>
			<path class="st7" d="M136.7,32.1c-0.2-0.6-0.3-1.3-0.3-2c0.3-0.3,0.7-0.5,1.1-0.6c0.2-0.1,0.4-0.1,0.6-0.1
				c0.8,1.3,0.4,3.8,0.2,4.2c-0.1,0.4-0.8-0.1-1.1-0.4C137,32.8,136.8,32.4,136.7,32.1z"/>
			<path class="st8" d="M137.1,31.3c0,0.5,0.4,0.9,0.9,0.9c0.5,0,0.9-0.4,0.9-0.9c0-0.5-0.4-0.9-0.9-0.9
				C137.5,30.4,137.1,30.8,137.1,31.3z"/>
		</g>
		<g>
			<path class="st1" d="M123.4,34.3c0.6-0.1,1.2,0.1,1.8,0.4c0.5,0.3,1,0.6,1.4,1c0.3,0.3,0.6,0.7,0.7,1.1c0.1,0.5,0,0.9-0.3,1.4
				c-0.5,1-1.5,1.7-2.6,1.9c-0.7,0.2-1.5,0.1-2.2-0.3c-0.7-0.3-1.2-1-1.4-1.7c-0.2-1,0.2-2,0.8-2.7
				C122.1,34.8,122.7,34.4,123.4,34.3z"/>
			<path class="st5" d="M127,37.1c-0.8-0.7-2.3-2.6-3.7-1.8c-1.4,0.8-1.9,2.1-1.9,2.6c0.1,0.5,1.2,2.3,2.1,2.1
				C124.5,39.9,126.2,39.6,127,37.1z"/>
			<path class="st6" d="M126.2,37.6c-0.1,0.8-0.8,1.5-1.5,1.6c-0.8,0.2-1.7-0.2-2.1-0.8c1.1,0.3,2.3-0.2,3-1
				c0.1-0.1,0.1-0.2,0.2-0.3c0.1-0.1,0.2-0.1,0.3,0C126.2,37.2,126.2,37.5,126.2,37.6z"/>
			<path class="st7" d="M122.9,35.5C122.9,35.5,122.9,35.5,122.9,35.5c0.1-0.1,0.2-0.2,0.4-0.2c0.4-0.2,0.9-0.2,1.3-0.1
				c0.5,0.8,0.8,1.9,0.8,2.9c0,0.2,0,0.4-0.1,0.5c-0.2,0.2-0.5,0.2-0.7,0.2c-0.6-0.1-1.1-0.7-1.4-1.3
				C122.9,36.8,122.9,36.2,122.9,35.5z"/>
			<path class="st8" d="M123.6,36.8c0,0.4,0.4,0.8,0.9,0.8c0.5,0,0.9-0.3,0.9-0.8c0-0.4-0.4-0.8-0.9-0.8
				C124,36,123.6,36.3,123.6,36.8z"/>
		</g>
		<g>
			<path class="st8" d="M134.4,41.8c1-0.1,2,0,3,0.2c0.4,0.1,0.9,0.2,1.1,0.6c0.2,0.4,0,0.8-0.2,1.1c-0.3,0.3-0.6,0.5-1,0.6
				c-1.2,0.5-2.6,0.7-3.9,0.7c-0.4,0-0.8,0-1.1-0.2c-0.5-0.3-0.6-0.9-0.5-1.5c0.1-0.5,0.6-1,1-1.2C133.3,41.9,133.9,41.8,134.4,41.8
				z"/>
			<path class="st8" d="M130.8,45.3c-0.2,0.5-0.5,0.8-0.9,1.1c-0.8,0.6-1.7,1.1-2.7,1c-0.1,0-0.2,0-0.3-0.1
				c-0.2-0.2-0.2-0.5-0.2-0.7c0.1-0.8,0.4-1.5,0.8-2.2c0.3-0.5,0.7-0.9,1.2-1.1c0.6-0.2,1.2-0.1,1.6,0.3
				C130.9,44,131,44.7,130.8,45.3z"/>
			<path class="st8" d="M136.3,47.8c-1,0.8-2.3,1.2-3.6,1.2c-0.5,0-1.2-0.2-1.3-0.8c-0.1-0.4,0.1-0.8,0.4-1.1c1-1,2.4-1.2,3.8-1.2
				c0.5,0,1,0.1,1.2,0.5c0.1,0.2,0.1,0.6,0,0.8C136.7,47.4,136.5,47.6,136.3,47.8z"/>
		</g>
		<path class="st9" d="M128.4,47.5c1,0.2,1.7-0.8,2.4-1.4c0.3-0.2,0.5-0.4,0.8-0.5c-0.3-0.7-0.7-1.5-1-2.2c-0.1-0.1,0.6-0.1,0.6,0.1
			c0.3,0.6,0.6,1.3,0.8,1.9c0.1,0,0.2,0,0.3-0.1c1.5-0.3,3.3,0.4,4.6-0.7c0.2-0.1,0.8,0.1,0.6,0.3c-1.3,1-2.9,0.7-4.4,0.7
			c-1.2,0.1-1.9,0.8-2.7,1.6c-0.6,0.5-1.3,0.8-2,0.7C128.2,47.8,128,47.4,128.4,47.5z"/>
		<g>
			<path class="st4" d="M127.3,42.2c-0.3-1.1,0.9-2.3,2-2.9c1.1-0.5,2.5-0.4,3.5,0.2c0.6,0.6,0.5,1.6,0,2.3c-0.4,0.7-1,1.6-1.6,1.9
				S127.7,43.3,127.3,42.2z"/>
			<path class="st10" d="M130.3,42.4c1-0.1,2.7-1.4,2.9-1.6c0,0.4-0.2,0.8-0.4,1.1c-0.4,0.7-1,1.6-1.6,1.9s-3.6-0.5-3.9-1.6
				c-0.1-0.3-0.1-0.6,0.1-0.9C127.8,42.2,128.5,42.5,130.3,42.4z"/>
			<path class="st8" d="M131.9,39.8c-0.1,0.1-0.2,0.1-0.3,0.1c-1,0.3-2.6,0.5-3.1,0.8c-0.5,0.3,0-0.5,0.1-0.7
				c0.1-0.2,0.3-0.3,0.5-0.5c0.7-0.4,1.5-0.5,2.3-0.3c0.1,0,0.2,0.1,0.3,0.2C132,39.5,132,39.7,131.9,39.8z"/>
		</g>
		<g>
			<path class="st11" d="M162.3,32.9c-0.3,0-0.6,0-1-0.1c-0.3,0-0.7,0-1.1,0c-0.4,0-0.8,0-1.1,0c-0.4,0-0.8,0-1.2,0
				c-0.8,0-1.6,0-2.3,0.1c-0.2,0-0.4,0-0.5,0c-0.2,0-0.4,0-0.5,0c-0.3,0-0.7,0.1-1,0.1c-1.4,0.1-2.7,0.3-3.9,0.5
				c-0.6,0.1-1.3,0.2-1.9,0.4c-0.6,0.1-1.3,0.3-2,0.5c-0.7,0.2-1.5,0.4-2.3,0.6c-0.1,0-0.2,0.1-0.3,0.1c-0.1,0-0.2,0.1-0.3,0.1
				c-0.2,0.1-0.4,0.1-0.6,0.2c-0.2,0.1-0.4,0.1-0.6,0.2l-0.3,0.1l-0.3,0.1c-0.4,0.2-0.8,0.3-1.3,0.5c-0.1,0-0.2,0.1-0.3,0.1
				c-0.1,0-0.2,0.1-0.3,0.1c-0.2,0.1-0.4,0.2-0.6,0.2c-0.4,0.2-0.8,0.3-1.1,0.5c-0.4,0.2-0.7,0.3-1,0.5c-0.5,0.2-1.8,0.9-2.3,1.1
				c-0.3,0.1-0.2,0.1,0.2-0.1c0.2-0.1,0.5-0.2,0.8-0.4c0.2-0.1,0.4-0.2,0.6-0.3c0.2-0.1,0.4-0.2,0.6-0.3c0.3-0.1,0.5-0.2,0.8-0.4
				c0.2-0.1,0.3-0.1,0.5-0.2c0.2-0.1,0.3-0.1,0.5-0.2c0.3-0.1,0.7-0.3,1.1-0.4c0.1,0,0.2-0.1,0.3-0.1c0.1,0,0.2-0.1,0.3-0.1
				c0.2-0.1,0.4-0.1,0.6-0.2c1.7-0.6,3.3-1.1,5.3-1.7c1.3-0.3,2.7-0.6,4.1-0.8c0.7-0.1,1.4-0.2,2.1-0.3c0.7-0.1,1.3-0.2,1.9-0.2
				c0.5,0,1-0.1,1.5-0.1c0.5,0,1.1-0.1,1.7-0.1c0.6,0,1.2,0,1.7-0.1c0.1,0,0.3,0,0.4,0c0.1,0,0.3,0,0.4,0c0.3,0,0.6,0,0.8,0
				c0.3,0,0.5,0,0.8,0c0.3,0,0.5,0,0.8,0c0.5,0,1,0,1.4,0.1c0.8,0.1,1.4,0.1,1.6,0.1c0.3,0,0.2,0-0.2-0.1c-0.2,0-0.5-0.1-0.9-0.1
				c-0.2,0-0.4,0-0.7-0.1C162.9,33,162.6,33,162.3,32.9z"/>
			<path class="st11" d="M162.7,40.8c-0.6-0.1-1.2-0.3-1.9-0.4c-0.3-0.1-0.7-0.1-1.1-0.2c-0.4-0.1-0.7-0.1-1.1-0.2
				c-1.5-0.3-3-0.5-4.1-0.6c-1.3-0.2-2.5-0.3-3.7-0.3c-0.6,0-1.2-0.1-1.8-0.1c-0.6,0-1.3,0-1.9,0c-0.7,0-1.5,0-2.3,0
				c-0.4,0-0.8,0-1.2,0.1c-0.4,0-0.8,0-1.3,0.1c-0.8,0.1-1.7,0.1-2.5,0.2c-0.4,0-0.8,0.1-1.2,0.1c-0.4,0-0.7,0.1-1.1,0.1
				c-0.5,0.1-1.9,0.3-2.4,0.4c-0.3,0-0.2,0.1,0.2,0c0.2,0,0.5,0,0.8-0.1c0.3,0,0.8-0.1,1.2-0.2c0.3,0,0.6-0.1,0.9-0.1
				c0.2,0,0.3,0,0.5-0.1c0.2,0,0.3,0,0.5,0c0.7-0.1,1.5-0.1,2.3-0.2c1.7-0.1,3.3-0.2,5.3-0.2c2.5,0,5.4,0.2,7.8,0.5
				c0.4,0.1,0.9,0.1,1.4,0.2c0.5,0.1,1,0.1,1.6,0.2c1.1,0.2,2.2,0.4,3.2,0.6c0.3,0.1,0.5,0.1,0.8,0.1c0.2,0.1,0.5,0.1,0.7,0.2
				c0.5,0.1,0.9,0.2,1.3,0.3c0.7,0.2,1.3,0.3,1.5,0.4c0.3,0.1,0.2,0-0.2-0.1c-0.2-0.1-0.5-0.2-0.8-0.3c-0.2-0.1-0.4-0.1-0.6-0.2
				C163.3,40.9,163,40.8,162.7,40.8z"/>
			<path class="st11" d="M161.3,49.3c-0.2-0.2-0.5-0.3-0.8-0.5c-0.3-0.2-0.6-0.4-0.9-0.5c-0.3-0.2-0.6-0.4-0.9-0.6
				c-0.3-0.2-0.6-0.4-1-0.5c-0.2-0.1-0.3-0.2-0.5-0.3l-0.2-0.1c-0.1,0-0.2-0.1-0.2-0.1c-0.3-0.2-0.7-0.3-1-0.5
				c-0.2-0.1-0.3-0.2-0.5-0.2c-0.2-0.1-0.3-0.1-0.5-0.2c-0.3-0.1-0.6-0.3-0.8-0.4c-1.2-0.5-2.3-1-3.5-1.4c-0.6-0.2-1.1-0.4-1.7-0.6
				c-0.6-0.2-1.2-0.4-1.9-0.5c-0.7-0.2-1.4-0.3-2.2-0.5c-0.1,0-0.2,0-0.3-0.1c-0.1,0-0.2,0-0.3-0.1c-0.2,0-0.4-0.1-0.6-0.1
				c-0.2,0-0.4-0.1-0.6-0.1l-0.3-0.1l-0.3,0c-0.4-0.1-0.8-0.1-1.3-0.2c-0.1,0-0.2,0-0.3,0c-0.1,0-0.2,0-0.3,0c-0.2,0-0.4,0-0.6-0.1
				c-0.4,0-0.8-0.1-1.2-0.1c-0.4,0-0.7,0-1.1-0.1c-0.5-0.1-1.9,0-2.4-0.1c-0.3,0-0.2,0,0.2,0.1c0.2,0,0.5,0,0.8,0.1
				c0.2,0,0.4,0,0.6,0c0.2,0,0.4,0,0.7,0c0.3,0,0.6,0,0.9,0.1c0.2,0,0.3,0,0.5,0c0.2,0,0.3,0,0.5,0.1c0.3,0,0.7,0.1,1.1,0.1
				c0.1,0,0.2,0,0.3,0c0.1,0,0.2,0,0.3,0c0.2,0,0.4,0.1,0.6,0.1c1.7,0.2,3.3,0.5,5.1,1c1.2,0.3,2.5,0.7,3.8,1.2
				c0.6,0.2,1.2,0.5,1.8,0.7c0.6,0.2,1.2,0.5,1.7,0.7c0.4,0.2,0.8,0.4,1.3,0.6c0.5,0.2,0.9,0.5,1.4,0.7c0.5,0.2,1,0.5,1.5,0.8
				c0.1,0.1,0.2,0.1,0.4,0.2c0.1,0.1,0.2,0.1,0.3,0.2c0.2,0.1,0.5,0.3,0.7,0.4c0.2,0.1,0.4,0.3,0.7,0.4c0.2,0.1,0.4,0.3,0.6,0.4
				c0.4,0.3,0.8,0.5,1.1,0.7c0.6,0.4,1.1,0.8,1.3,0.9c0.2,0.2,0.2,0.1-0.1-0.1c-0.2-0.1-0.4-0.3-0.7-0.6c-0.2-0.1-0.3-0.2-0.5-0.4
				C161.8,49.6,161.6,49.5,161.3,49.3z"/>
			<path class="st11" d="M105.7,50.2c0.8-0.4,1.9-0.9,2.9-1.5c0.5-0.3,1.1-0.5,1.6-0.7c0.5-0.2,1-0.4,1.4-0.6
				c0.1-0.1,0.2-0.1,0.4-0.2c0.1,0,0.2-0.1,0.4-0.1c0.2-0.1,0.5-0.2,0.7-0.3c0.5-0.2,0.9-0.4,1.3-0.5c0.4-0.2,0.9-0.3,1.4-0.5
				c0.5-0.2,0.9-0.3,1.4-0.5c0.5-0.2,1.1-0.4,1.7-0.6c0.6-0.2,1.2-0.4,1.9-0.6c0.6-0.2,1.3-0.4,1.9-0.6c0.3-0.1,0.6-0.2,0.9-0.3
				c0.3-0.1,0.6-0.1,0.8-0.2c0.4-0.1,1.4-0.4,1.8-0.5c0.4-0.1-0.3,0-1.8,0.3c-0.2,0.1-0.4,0.1-0.7,0.2c-0.1,0-0.2,0.1-0.4,0.1
				c-0.1,0-0.3,0.1-0.4,0.1c-0.5,0.1-1.1,0.3-1.8,0.5c-0.3,0.1-0.6,0.2-1,0.3c-0.3,0.1-0.6,0.2-1,0.3c-0.3,0.1-0.7,0.2-1,0.3
				c-0.3,0.1-0.7,0.2-1.1,0.4c-0.5,0.2-1,0.4-1.5,0.5c-0.5,0.2-1,0.4-1.5,0.6c-0.5,0.2-1,0.4-1.5,0.6c-0.5,0.2-0.9,0.4-1.4,0.6
				c-0.6,0.3-1.4,0.7-2.2,1c-0.8,0.4-1.6,0.8-2.3,1.2c-0.2,0.1-0.4,0.2-0.5,0.3c-0.2,0.1-0.3,0.2-0.5,0.3c-0.3,0.2-0.6,0.4-0.9,0.5
				c-0.5,0.3-0.9,0.5-1.1,0.6C103.5,51.2,104.1,51,105.7,50.2z"/>
			<path class="st11" d="M108.8,51.6c0.2-0.1,0.3-0.2,0.5-0.4c0.2-0.1,0.4-0.3,0.6-0.4c0.4-0.3,0.8-0.5,1.3-0.8
				c0.1-0.1,0.2-0.1,0.3-0.2l0.2-0.1l0.2-0.1c0.2-0.1,0.4-0.2,0.7-0.4c0.4-0.2,0.8-0.5,1.2-0.7c0.1-0.1,0.2-0.1,0.3-0.2
				c0.1-0.1,0.2-0.1,0.3-0.2c0.2-0.1,0.4-0.2,0.6-0.3c0.4-0.2,0.8-0.4,1.1-0.6c0.4-0.2,0.8-0.3,1.1-0.5c0.4-0.2,0.8-0.3,1.2-0.5
				c0.4-0.2,0.9-0.4,1.5-0.6c0.3-0.1,0.5-0.2,0.8-0.3c0.1-0.1,0.3-0.1,0.4-0.2l0.2-0.1l0.2-0.1c0.6-0.2,1.1-0.4,1.7-0.5
				c0.3-0.1,0.5-0.2,0.8-0.2c0.3-0.1,0.5-0.1,0.7-0.2c0.4-0.1,1.3-0.3,1.6-0.4c0.4-0.1-0.3,0-1.6,0.3c-0.2,0-0.4,0.1-0.6,0.1
				c-0.1,0-0.2,0-0.3,0.1c-0.1,0-0.2,0.1-0.3,0.1c-0.5,0.1-1,0.3-1.5,0.5l-0.4,0.1c-0.1,0-0.3,0.1-0.4,0.1c-0.3,0.1-0.5,0.2-0.8,0.3
				c-0.3,0.1-0.6,0.2-0.9,0.3c-0.3,0.1-0.6,0.2-0.9,0.4c-0.4,0.2-0.8,0.4-1.3,0.5c-0.4,0.2-0.9,0.4-1.3,0.6
				c-0.4,0.2-0.8,0.4-1.2,0.6c-0.4,0.2-0.8,0.4-1.1,0.6c-0.5,0.3-1.2,0.7-1.8,1.1c-0.6,0.4-1.3,0.9-1.9,1.3
				c-0.2,0.1-0.3,0.2-0.4,0.3c-0.1,0.1-0.3,0.2-0.4,0.3c-0.3,0.2-0.5,0.4-0.7,0.5c-0.4,0.3-0.7,0.6-0.9,0.7
				C107,52.8,107.5,52.5,108.8,51.6z"/>
			<path class="st11" d="M112.6,54.1c0.5-0.5,1.2-1,1.8-1.5c0.3-0.3,0.7-0.5,1-0.8c0.3-0.2,0.6-0.5,0.9-0.7c0.1-0.1,0.2-0.1,0.2-0.2
				c0.1-0.1,0.2-0.1,0.2-0.2c0.2-0.1,0.3-0.2,0.5-0.3c0.3-0.2,0.6-0.4,0.9-0.6c0.3-0.2,0.6-0.4,0.9-0.6c0.3-0.2,0.6-0.4,0.9-0.6
				c0.3-0.2,0.7-0.4,1.1-0.7c0.4-0.2,0.8-0.5,1.3-0.8c0.4-0.2,0.9-0.5,1.3-0.7c0.2-0.1,0.4-0.2,0.6-0.3c0.2-0.1,0.4-0.2,0.6-0.3
				c0.3-0.1,1-0.5,1.3-0.6c0.3-0.1-0.3,0-1.3,0.5c-0.1,0.1-0.3,0.1-0.5,0.2c-0.1,0-0.2,0.1-0.3,0.1c-0.1,0-0.2,0.1-0.3,0.1
				c-0.4,0.2-0.8,0.4-1.2,0.6c-0.2,0.1-0.4,0.2-0.6,0.4c-0.2,0.1-0.4,0.3-0.6,0.4c-0.2,0.1-0.4,0.3-0.7,0.4
				c-0.2,0.1-0.5,0.3-0.7,0.4c-0.3,0.2-0.6,0.4-1,0.6c-0.3,0.2-0.7,0.4-1,0.6c-0.3,0.2-0.6,0.4-0.9,0.7c-0.3,0.2-0.6,0.4-0.9,0.6
				c-0.4,0.3-0.9,0.7-1.4,1.1c-0.5,0.4-1,0.9-1.4,1.3c-0.1,0.1-0.2,0.2-0.3,0.3c-0.1,0.1-0.2,0.2-0.3,0.3c-0.2,0.2-0.4,0.4-0.5,0.5
				c-0.3,0.3-0.6,0.5-0.7,0.6C111.3,55.2,111.7,55,112.6,54.1z"/>
		</g>
	</g>
</g>
</svg>
