<?xml version="1.0" encoding="utf-8"?>
<!-- Generator: Adobe Illustrator 24.2.3, SVG Export Plug-In . SVG Version: 6.00 Build 0)  -->
<svg version="1.1" id="Calque_1" xmlns="http://www.w3.org/2000/svg" xmlns:xlink="http://www.w3.org/1999/xlink" x="0px" y="0px"
	 viewBox="0 0 400 400" style="enable-background:new 0 0 400 400;" xml:space="preserve">
<style type="text/css">
	.st0{fill:#80BE99;}
	.st1{fill:#8BA88C;}
	.st2{opacity:0.3;}
	.st3{fill:#262B5F;}
	.st4{fill:#FFFFFF;}
	.st5{opacity:0.5;}
	.st6{opacity:0.35;}
	.st7{fill:#EF7D82;}
	.st8{fill:#6B184E;}
	.st9{fill:#EC6472;}
	.st10{opacity:0.2;}
	.st11{opacity:0.7;}
	.st12{fill:#F4B85E;}
</style>
<g>
	<g>
		<g>
			<g>
				<g>
					<rect x="0.5" y="1.1" class="st0" width="400" height="400"/>
				</g>
			</g>
		</g>
	</g>
	<g>
		<g>
			<g>
				<g>
					<path class="st1" d="M274.2,254.3c-0.8,1.2-3.5,3.9-7.8,5.3c-0.5,0.2-1.1,0.4-1.7,0.5c-4.1,1-9.3,0.9-15.7-2.1
						c-5.6-2.6-5.3-13,3.9-15.3c3.5-0.9,6.9-2.2,8.1-3.8c0.2-0.3,0.4-0.6,0.4-0.9c0.1-0.5,0.1-1-0.2-1.5l-1.3-8l-1.1-7.3
						c2,1.5,3.9,3.2,5.6,4.9C274.3,236.2,277.9,248.7,274.2,254.3z"/>
				</g>
			</g>
		</g>
		<g class="st2">
			<g>
				<g>
					<ellipse class="st3" cx="217.7" cy="318.3" rx="74.6" ry="11.9"/>
				</g>
			</g>
		</g>
		<g>
			<g>
				<g>
					<path class="st1" d="M183.3,306.3c0,0-58.3,26.6-93.8-20c-24.9-32.6-16.6-60.5-0.2-72c11.1-7.8,25.8-8.1,36.6,2.6
						c9.5,9.4,9.9,19.9,7.2,25.9c-0.9,1.9-2.1,3.4-3.5,4.2c-7.8,4.4-13.5,0.6-17.6-8.7c-0.7-1.6-3.8-7.6-8.9-5.3
						c-0.8,0.4-1.5,0.8-2.2,1.3c-7.1,5.5-6.5,19.1-1,32.5c2.7,6.5,6.5,12.9,11.1,18.4c12.7,14.9,45.5,13.1,68.8,7.5L183.3,306.3z"/>
				</g>
			</g>
		</g>
		<g class="st2">
			<g>
				<g>
					<path class="st3" d="M183.3,306.3c0,0-58.3,26.6-93.8-20c-23.3-30.6-17.5-57-3.2-69.7c-7.5,14.2-6.4,39.1,11.8,63
						c26.6,34.9,65.4,25.1,83.5,19.8L183.3,306.3z"/>
				</g>
			</g>
		</g>
		<g>
			<g>
				<g>
					<path class="st4" d="M129.6,246.9c-7.8,4.4-13.5,0.6-17.6-8.7c-0.7-1.6-3.8-7.6-8.9-5.3c-0.8,0.4-1.6,0.8-2.2,1.3l0.6-3.9
						c0.2-1.2-0.6-2.4-1.8-2.4l-5.9-0.4c-1.5-0.1-2.4-1.9-1.5-3.3l3.4-5.2c0.8-1.2,0.2-2.8-1.1-3.2l-5.4-1.6
						c11.1-7.8,25.8-8.1,36.6,2.6C138.4,229.3,135.1,243.8,129.6,246.9z"/>
				</g>
			</g>
		</g>
		<g>
			<g>
				<g>
					<path class="st3" d="M146,315.4c-17.3,0-40.2-5.3-57.7-28.1c-10.5-13.8-16.1-28.1-16.1-41.4c0-11.4,4.2-21.8,11.7-29.2
						c5.9-5.8,13.4-9.2,21-9.6c8.2-0.4,15.8,2.5,21.9,8.6c6.7,6.6,10,14.8,9,22.5c-0.6,4.6-2.7,8.5-5.5,10.1
						c-3.6,2.1-7,2.6-10.1,1.5c-3.7-1.3-7-5-9.6-10.9c-0.7-1.5-3.1-6.2-6.9-4.5c-4.5,2-6.1,6.9-6.6,10.7
						c-1.4,10.7,3.6,27.7,15.8,38.4c18.4,16,49.6,11.7,66.6,7.6c0.8-0.2,1.6,0.3,1.8,1.2c0.2,0.9-0.3,1.7-1.1,1.9
						c-17.5,4.2-49.7,8.6-69.2-8.3c-13.1-11.4-18.5-29.8-16.9-41.3c0.9-6.4,3.8-11.1,8.4-13.2c5-2.3,9,1.9,10.9,6.1
						c2.2,5.1,4.9,8.2,7.8,9.2c2.3,0.8,4.8,0.4,7.7-1.2c2-1.1,3.5-4.1,4-7.7c0.4-3.2,0.4-11.4-8.1-19.8c-12.4-12.2-28.9-8.8-38.8,1
						c-12.1,11.9-18.1,36.3,4.7,66.2c14.4,18.9,34.2,27.9,58.9,26.9c18.5-0.8,33-7.3,33.1-7.4c0.8-0.4,1.7,0,2,0.8
						c0.3,0.8,0,1.8-0.8,2.1c-0.6,0.3-15,6.8-34.1,7.6C148.5,315.4,147.3,315.4,146,315.4z"/>
				</g>
			</g>
		</g>
		<g>
			<g>
				<g>
					<path class="st1" d="M274.6,287.6l-4.3,23.3c0,0-4.4,0.5-11.2,1.1c0,0,0,0,0,0c-19.3-3.2-54.8,0.9-66.3,2.4
						c-1-0.2-2-0.4-3.1-0.6c-0.8,1.5-1.7,2.7-2.7,3.5c-6.7,5.3-15.2,1.3-15.2,1.3C139.3,332,123.2,307,123.2,307
						c-13.1-27.6,9.8-64.9,21.6-81.3c2.3-3.2,4.2-5.6,5.3-6.9c2.1-1.9,4.2-3.7,6.3-5.6c1.7-0.5,3.5-0.9,5.4-1.3
						c16.3-3.4,31.4-2.1,43.8,0.8c12.4,0.5,24.9,1,37.3,1.6l10.4,6.1c0,0,0.7,3.3,1.6,8.3c0.5,2.8,1.2,6,1.8,9.5
						c1.4,7.3,2.8,15.5,3.8,22c0.2,1.4,0.4,2.6,0.5,3.8c0.2,0,0.4,0,0.6,0c6.8,0.1,10,5.1,11.6,12.7c0,0.1,0.1,0.3,0.1,0.4
						C274,280.2,274.4,283.7,274.6,287.6z"/>
				</g>
			</g>
		</g>
		<g class="st5">
			<g>
				<g>
					<path class="st4" d="M275.4,276.7c-3.5-8.3-9.4-7.7-9.4-7.7l-0.3-5.1C271.3,264.1,274,269,275.4,276.7z"/>
				</g>
			</g>
		</g>
		<g class="st6">
			<g>
				<g>
					<g>
						<path class="st4" d="M184.6,318.5c0,0,1.5,0.8,3.7,1.2c-2.3,0.5-4.5,0.2-6.1-0.2C183,319.2,183.8,318.8,184.6,318.5z"/>
					</g>
				</g>
			</g>
			<g>
				<g>
					<g>
						<path class="st3" d="M185.7,320.2c-1.2,0-2.3-0.1-3.6-0.4l-0.8-0.2l0.7-0.3c0.8-0.3,1.6-0.6,2.4-1l0.1-0.1l0.1,0.1
							c0,0,1.5,0.7,3.6,1.1l1.2,0.2l-1.2,0.3C187.5,320.1,186.6,320.2,185.7,320.2z M183,319.4c1.4,0.3,2.7,0.3,3.9,0.2
							c-1.2-0.3-2.1-0.7-2.4-0.8C184.1,319,183.5,319.2,183,319.4z"/>
					</g>
				</g>
			</g>
		</g>
		<g class="st6">
			<g>
				<g>
					<g>
						<path class="st4" d="M210.1,313.7c0.2,0.1,0.5,0.1,0.7,0.2c-0.3,0-0.6,0.1-0.9,0.1C210,313.9,210.1,313.8,210.1,313.7z"/>
					</g>
				</g>
			</g>
			<g>
				<g>
					<g>
						<path class="st3" d="M209.6,314.3l0.4-0.9l0.2,0.1c0.2,0.1,0.5,0.1,0.7,0.2l1.2,0.3l-1.5,0.2c-0.2,0-0.4,0.1-0.6,0.1
							L209.6,314.3z"/>
					</g>
				</g>
			</g>
		</g>
		<g class="st5">
			<g>
				<g>
					<path class="st4" d="M205.5,212.6l2.7,0.1c-15.6-0.2-31.2-0.3-46.8-0.5c-1.9,2.2-3.7,4.3-5.6,6.5c-1.1,1.4-3,3.8-5.3,6.9
						c-11.8,16.4-34.8,53.7-21.6,81.3c0,0,9,14,27.3,15.4c-22.1,1.6-33.1-15.4-33.1-15.4c-13.1-27.6,9.8-64.9,21.6-81.3
						c2.3-3.2,4.2-5.6,5.3-6.9c0.9-1.2,2.7-3.1,5.5-4.6c2.3-1.2,4.5-1.7,5.9-1.9C176.1,212.4,190.8,212.5,205.5,212.6z"/>
				</g>
			</g>
		</g>
		<g class="st6">
			<g>
				<g>
					<g>
						<path class="st4" d="M266.5,311.6c-0.9,0.1-1.9,0.2-3,0.3c0,0,0,0,0,0c-3.8-0.8-8.3-1.1-13.1-1.2
							C256.3,310.7,261.9,310.9,266.5,311.6z"/>
					</g>
				</g>
			</g>
			<g>
				<g>
					<g>
						<path class="st3" d="M263.6,312.2L263.6,312.2l-0.2,0l0,0c-3.5-0.7-7.8-1.1-13-1.2l0-0.5c6.4-0.1,11.8,0.2,16.1,0.9l1.8,0.3
							l-1.8,0.2C265.7,312,264.7,312.1,263.6,312.2L263.6,312.2z M263.5,311.6L263.5,311.6c0.4,0.1,0.7,0,1,0
							c-1.2-0.1-2.4-0.3-3.7-0.4C261.8,311.4,262.6,311.5,263.5,311.6L263.5,311.6z"/>
					</g>
				</g>
			</g>
		</g>
		<g class="st6">
			<g>
				<g>
					<g>
						<path class="st4" d="M179.2,318.5c0,0,1.2,0.6,2.9,1c-6.6,2.6-12.5,3.3-17.6,2.9C169,322,173.9,320.9,179.2,318.5z"/>
					</g>
				</g>
			</g>
			<g>
				<g>
					<g>
						<path class="st3" d="M167.2,322.7c-0.9,0-1.8,0-2.7-0.1l0-0.5c4.7-0.4,9.6-1.7,14.5-3.9l0.1-0.1l0.1,0.1c0,0,1.2,0.6,2.9,1
							l0.8,0.2l-0.7,0.3C177.1,321.7,172.1,322.7,167.2,322.7z M179.2,318.7c-3.9,1.7-7.7,2.9-11.3,3.5c4.3-0.1,8.8-1,13.5-2.7
							C180.3,319.2,179.5,318.9,179.2,318.7z"/>
					</g>
				</g>
			</g>
		</g>
		<g class="st6">
			<g>
				<g>
					<g>
						<path class="st4" d="M250.5,310.8c-14.8,0.2-31.1,2.5-37.8,3.6c-0.6-0.1-1.2-0.3-1.8-0.5C219.7,312.6,236.4,310.5,250.5,310.8
							z"/>
					</g>
				</g>
			</g>
			<g>
				<g>
					<g>
						<path class="st3" d="M212.7,314.6L212.7,314.6c-0.7-0.2-1.3-0.3-1.9-0.5l-1.2-0.3l1.2-0.2c8.8-1.3,25.5-3.3,39.6-3.1l0,0.5
							C235.7,311.3,219.2,313.6,212.7,314.6L212.7,314.6z M212.2,313.9c0.2,0,0.4,0.1,0.5,0.1c3.1-0.5,8.6-1.3,15.1-2
							C221.8,312.7,216.3,313.4,212.2,313.9z"/>
					</g>
				</g>
			</g>
		</g>
		<g>
			<g>
				<g>
					<ellipse class="st4" cx="226.3" cy="269.9" rx="25.1" ry="35.5"/>
				</g>
			</g>
		</g>
		<g>
			<g>
				<g>
					<path class="st3" d="M276.5,289.2c-0.8,0-1.5-0.7-1.6-1.5c-0.8-13.8-2.6-21.6-9.7-23c-0.9-0.2-1.4-1-1.3-1.9
						c0.2-0.9,1-1.4,1.9-1.3c10,1.9,11.5,13.4,12.2,25.9C278.2,288.4,277.5,289.1,276.5,289.2C276.6,289.2,276.5,289.2,276.5,289.2z
						"/>
				</g>
			</g>
		</g>
		<g>
			<g>
				<g>
					<path class="st1" d="M290.7,295c-0.1,0.4-0.3,0.8-0.4,1.2c-0.4,1.2-0.9,2.4-1.4,3.6c-0.3,0.6-0.5,1.2-0.8,1.8
						c-0.4,0.8-0.8,1.5-1.2,2.3c-0.4,0.7-0.8,1.5-1.2,2.2c-0.5,0.9-1.1,1.7-1.6,2.5c-0.1,0.2-0.2,0.3-0.3,0.5
						c-0.4,0.6-0.9,1.2-1.3,1.8c-0.7,0.8-1.4,1.6-2,2.3c-1.3,1.3-2.7,2.3-3.9,2.8h0c-0.2,0.1-0.3,0.1-0.5,0.2
						c-0.1,0-0.3,0.1-0.4,0.1h0c-0.1,0-0.2,0-0.3,0.1c0,0,0,0,0,0c-0.1,0-0.1,0-0.2,0c-0.1,0-0.1,0-0.2,0c0,0,0,0,0,0
						c-0.1,0-0.1,0-0.2,0c0,0-0.1,0-0.2,0c-0.1,0-0.2,0-0.3,0c-0.1,0-0.2,0-0.3,0c-0.1,0-0.2,0-0.3,0c-0.1,0-0.2,0-0.3,0
						c-0.1,0-0.1,0-0.2,0c-0.3,0-0.5,0-0.8,0c-0.1,0-0.3,0-0.4,0c-0.1,0-0.2,0-0.3,0c0,0-0.1,0-0.2,0c-0.1,0-0.2,0-0.3,0
						c-0.2,0-0.5-0.1-0.7-0.2c-0.1,0-0.2-0.1-0.4-0.1c-0.1,0-0.2-0.1-0.4-0.1c-0.1,0-0.2-0.1-0.3-0.1c-0.1,0-0.2-0.1-0.3-0.1
						c0,0,0,0,0,0c-0.2-0.1-0.4-0.2-0.5-0.2c-0.1-0.1-0.2-0.1-0.4-0.2c0,0-0.1,0-0.1,0c-0.4-0.2-0.8-0.5-1.2-0.7c0,0-0.1,0-0.1-0.1
						c-0.1-0.1-0.1-0.1-0.2-0.2c-0.1,0-0.1-0.1-0.2-0.2c-0.1-0.1-0.1-0.1-0.2-0.2c-0.1,0-0.1-0.1-0.2-0.1c-0.1-0.1-0.2-0.1-0.2-0.2
						c-0.1-0.1-0.2-0.1-0.2-0.2c0,0,0,0,0,0c-0.1,0-0.1-0.1-0.2-0.1c-0.2-0.1-0.3-0.3-0.4-0.4c-0.1-0.1-0.1-0.1-0.2-0.2
						c-0.2-0.3-0.4-0.5-0.5-0.6c0,0-0.1-0.1-0.1-0.1c0,0,0,0,0,0c0,0,0,0,0,0c-0.2-0.1-0.5-0.1-0.7-0.1c0,0,0,0,0,0
						c-16.2-3.2-46,0.9-55.7,2.4c-1.9,0.3-3.1,0.5-3.1,0.5l62.1-20.7l0.7-0.2c0.1-0.3,0.1-0.5,0.2-0.8c0.1-0.3,0.1-0.5,0.2-0.8
						c0.2-0.6,0.3-1.1,0.5-1.6c0.1-0.2,0.1-0.4,0.2-0.6c0.1-0.5,0.3-0.9,0.5-1.4c0.1-0.2,0.1-0.4,0.2-0.6c0.4-1.1,0.8-2.2,1.2-3.1
						c0.1-0.2,0.2-0.4,0.2-0.6c0.1-0.2,0.1-0.3,0.2-0.5c0.1-0.2,0.2-0.4,0.3-0.6c0.1-0.1,0.1-0.2,0.2-0.4c0.1-0.2,0.2-0.4,0.3-0.6
						c0.1-0.2,0.2-0.3,0.3-0.5c0.3-0.6,0.7-1.2,1.1-1.7c0.1-0.1,0.2-0.3,0.3-0.4c0.3-0.4,0.5-0.8,0.8-1.1c0.1-0.1,0.2-0.2,0.3-0.3
						c0.3-0.3,0.5-0.6,0.8-0.9c0.1-0.1,0.2-0.2,0.3-0.3c0.1-0.1,0.2-0.1,0.2-0.2c0.3-0.3,0.6-0.6,0.9-0.8c0.1-0.1,0.2-0.1,0.2-0.2
						c0.1-0.1,0.2-0.1,0.2-0.2c0.1-0.1,0.2-0.1,0.2-0.2c0.2-0.2,0.4-0.3,0.6-0.4c0.1-0.1,0.2-0.1,0.3-0.2c0.2-0.1,0.5-0.2,0.7-0.3
						c0.1,0,0.2-0.1,0.2-0.1c0.4-0.2,0.8-0.3,1.1-0.4c0.1,0,0.2,0,0.2-0.1c0.4-0.1,0.9-0.2,1.3-0.2c1.4-0.1,2.7,0.1,3.9,0.5
						c0.4,0.1,0.7,0.3,1,0.4c0.2,0.1,0.4,0.2,0.6,0.3c0,0,0,0,0,0c0.6,0.3,1.1,0.7,1.6,1.1c0.1,0.1,0.2,0.1,0.2,0.2
						c0.1,0.1,0.3,0.2,0.4,0.3c0,0,0,0,0,0c0.1,0.1,0.2,0.2,0.2,0.2c0.2,0.2,0.4,0.4,0.5,0.6c0.1,0.1,0.2,0.2,0.3,0.4
						c0.4,0.5,0.6,0.9,0.8,1.3C293.2,283.2,292.6,289.1,290.7,295z"/>
				</g>
			</g>
		</g>
		<g class="st2">
			<g>
				<g>
					<path class="st3" d="M275.4,316.2C275.4,316.2,275.4,316.2,275.4,316.2C275.3,316.2,275.3,316.2,275.4,316.2
						c-0.2,0.1-0.3,0.1-0.4,0.1c0,0,0,0,0,0c-0.1,0-0.2,0-0.3,0.1c-0.4,0.1-0.7,0.1-1.1,0.1c-0.1,0-0.2,0-0.3,0
						c-2.4,0.1-4.3-0.7-5.9-1.7c-0.2-0.1-0.3-0.2-0.5-0.3c-0.3-0.2-0.6-0.4-0.8-0.6c-0.2-0.1-0.3-0.3-0.5-0.4c0,0,0,0,0,0
						c-0.2-0.2-0.4-0.4-0.6-0.5c-0.1-0.1-0.1-0.1-0.2-0.2c-0.3-0.4-0.6-0.6-0.6-0.7c0,0,0,0,0,0v0c0,0,0,0,0,0
						c-0.2-0.1-0.5-0.1-0.7-0.1c0,0,0,0,0,0c-16.2-3.2-46,0.9-55.7,2.4c-1.9,0.3-3.1,0.5-3.1,0.5l2.1-10.2c22.3-7.2,59-4.2,59-4.2v0
						c-0.5,1.9-0.9,3.8-1.1,5.8C263.8,312.5,269.5,317.7,275.4,316.2z"/>
				</g>
			</g>
		</g>
		<g>
			<g>
				<g>
					<path class="st4" d="M276.5,315.9c-0.2,0.1-0.3,0.1-0.5,0.2c-6.2,2-12.3-3.3-11.4-9.8c0.5-3.8,1.6-7.4,2.4-11
						c0.1-0.5,0.2-0.9,0.4-1.3l0,0c7.3-28.9,21.8-19.5,24-14.7C296.1,289.8,284.3,313,276.5,315.9z"/>
				</g>
			</g>
		</g>
		<g>
			<g>
				<g>
					<path class="st3" d="M270.6,318.1c-0.2,0-0.3,0-0.5,0c-0.2,0-0.4,0-0.5,0L269,318c-0.1,0-0.3,0-0.4-0.1c-0.3,0-0.6-0.1-0.9-0.2
						l-0.7-0.2c-0.1,0-0.2-0.1-0.3-0.1l-1-0.3c-0.7-0.3-1.4-0.6-2.1-1c-0.2-0.1-0.4-0.2-0.6-0.4l-0.1,0c-0.1,0-0.1-0.1-0.2-0.1
						c-0.1-0.1-0.2-0.1-0.3-0.2c-0.1,0-1-0.7-1-0.7l-0.1-0.1c-0.6-0.5-0.9-0.9-1.2-1.1l-0.2,0c-0.1,0-0.2,0-0.3,0l-0.3,0
						c-17.9-3-50.8,1.1-60.5,2.5c-2.2,0.3-3.3,0.5-3.4,0.5l-0.2,0l-0.2,0c-1,0-1.8-0.7-1.8-1.6c0-0.8,0.7-1.5,1.5-1.6
						c0.3-0.1,1.6-0.2,3.5-0.5c12.6-1.7,43.3-5.4,61.3-2.5l0.6-0.5l0.9,0.8c0.1,0,0.2,0,0.2,0c0.6,0.1,1,0.5,1.1,0.7
						c0.1,0.1,0.7,0.6,1.2,1.1c0.2,0.1,0.7,0.5,0.8,0.6c0.1,0,0.1,0.1,0.2,0.1l0.3,0.2c0.1,0.1,0.3,0.2,0.5,0.3
						c0.5,0.3,0.9,0.5,1.4,0.7h0.2l0.3,0.2c0,0,0.1,0,0.1,0l0.4,0.1c0,0,0.1,0,0.2,0l0.5,0.1c0.2,0,0.4,0.1,0.7,0.1
						c0.1,0,0.2,0,0.3,0c0.1,0,0.1,0,0.2,0l0.3,0c0.1,0,0.2,0,0.4,0c0.2,0,0.4,0,0.7,0c0.1,0,0.2,0,0.2,0l0.1,0c0.1,0,0.1,0,0.2,0
						c0.1,0,0.1,0,0.2,0c0.1,0,0.2,0,0.3,0l0.1,0c0.1,0,0.1,0,0.2,0l0.9-0.2c0,0,0.1,0,0.1,0l0.2-0.1c0.1,0,0.1,0,0.2,0
						c0.2,0,0.3-0.1,0.4-0.1l0.2-0.1c1-0.4,2.3-1.2,3.5-2.3c0.7-0.6,1.4-1.3,2.1-2.1c0.5-0.5,1-1.1,1.4-1.7c0.1-0.2,0.2-0.3,0.3-0.4
						c0.6-0.8,1.2-1.6,1.7-2.5c0.5-0.7,0.9-1.4,1.3-2.1c0.4-0.7,0.9-1.5,1.2-2.2c0.3-0.6,0.6-1.2,0.9-1.7c0.6-1.2,1.1-2.3,1.5-3.5
						c0.2-0.4,0.3-0.8,0.4-1.2c2.2-6.1,2.5-11.4,0.8-14.7c-0.1-0.2-0.3-0.5-0.7-1c-0.1-0.1-0.2-0.2-0.3-0.3
						c-0.1-0.1-0.3-0.3-0.5-0.5c-0.1-0.1-0.1-0.1-0.2-0.2l-0.1-0.1c-0.1-0.1-0.2-0.2-0.3-0.3l-0.2-0.2c-0.5-0.4-1-0.7-1.5-0.9
						l-0.2-0.1c-0.1-0.1-0.3-0.1-0.4-0.2c-0.3-0.1-0.7-0.3-1-0.4c-1.2-0.4-2.4-0.5-3.6-0.4c-0.4,0-0.8,0.1-1.2,0.2l-0.2,0
						c-0.4,0.1-0.7,0.2-1.1,0.3l-0.2,0.1c-0.2,0.1-0.4,0.2-0.6,0.3l-0.3,0.1c-0.2,0.1-0.4,0.2-0.6,0.4c-0.1,0-0.1,0.1-0.2,0.1
						l-0.1,0c-0.1,0-0.1,0.1-0.2,0.1c-0.1,0.1-0.2,0.1-0.2,0.2c-0.3,0.2-0.6,0.5-0.9,0.7c-0.7,0.6-1.8,0.6-2.5,0
						c-0.7-0.6-0.7-1.6,0-2.3c0.4-0.3,0.7-0.6,1.1-0.9c0.1-0.1,0.2-0.1,0.3-0.2c0.1-0.1,0.2-0.1,0.3-0.2c0.1-0.1,0.2-0.1,0.3-0.2
						c0.3-0.2,0.6-0.3,0.8-0.5l0.3-0.2c0.3-0.2,0.6-0.3,0.9-0.4l0.3-0.1c0.5-0.2,1-0.3,1.5-0.5c0.1,0,0.2,0,0.2-0.1l0.1,0
						c0.6-0.1,1.1-0.2,1.7-0.3c1.7-0.2,3.4,0,5.1,0.6c0.4,0.1,0.9,0.3,1.3,0.5c0.1,0.1,0.3,0.1,0.4,0.2h1.3l0,0.7
						c0.4,0.2,0.8,0.5,1.1,0.8l0.3,0.2c0.2,0.1,0.3,0.2,0.5,0.4l0,0c0.1,0.1,0.2,0.2,0.3,0.3c0.2,0.2,0.5,0.4,0.7,0.6
						c0.2,0.2,0.3,0.3,0.4,0.4c0.5,0.6,0.9,1.1,1.1,1.6c2.5,5.2,1,12.1-0.7,17c-0.1,0.4-0.3,0.8-0.5,1.3c-0.5,1.2-1,2.5-1.6,3.7
						c-0.3,0.6-0.6,1.1-0.9,1.8c-0.4,0.8-0.9,1.6-1.3,2.4c-0.4,0.8-0.9,1.5-1.4,2.2c-0.6,0.9-1.2,1.8-1.9,2.6
						c-0.1,0.2-0.3,0.3-0.4,0.5c-0.5,0.6-1,1.3-1.5,1.8c-0.8,0.9-1.6,1.7-2.4,2.4c-1.7,1.5-3.4,2.6-5,3.1l-0.3,0.1
						c-0.1,0-0.2,0.1-0.3,0.1c-0.1,0-0.3,0.1-0.5,0.1l-0.3,0.1c0,0,0,0,0,0c-0.1,0-0.1,0-0.2,0l-0.1,0l-0.2,0.1l-0.3,0
						c0,0-0.1,0-0.2,0c-0.1,0-0.2,0-0.4,0.1c-0.1,0-0.2,0-0.3,0l-0.1,0c-0.1,0-0.2,0-0.3,0c-0.1,0-0.2,0-0.3,0c-0.1,0-0.3,0-0.4,0
						C270.9,318.1,270.8,318.1,270.6,318.1z M260.3,312L260.3,312L260.3,312z"/>
				</g>
			</g>
		</g>
		<g>
			<g>
				<g>
					<path class="st3" d="M266.3,293.9L266.3,293.9L266.3,293.9c0-0.8,0-1.6,0.1-2.4c0.1-0.8,0.2-1.6,0.3-2.3c0.3-1.6,0.8-3,1.3-4.6
						c0.1-0.4,0.3-0.8,0.4-1.1c0.2-0.4,0.3-0.8,0.5-1.1c0.3-0.7,0.7-1.4,1.2-2.1c0.2-0.4,0.4-0.7,0.6-1c0.2-0.4,0.5-0.7,0.7-1
						c0.5-0.7,1.1-1.3,1.7-1.9c0.6-0.6,1.6-0.6,2.2,0c0.6,0.5,0.6,1.4,0.1,2l-0.1,0.1c-0.2,0.3-0.5,0.5-0.7,0.8
						c-0.2,0.3-0.4,0.6-0.7,0.8c-0.2,0.3-0.4,0.6-0.7,0.9l-0.6,0.9c-0.2,0.3-0.4,0.6-0.6,0.9l-0.6,1c-0.2,0.3-0.4,0.6-0.6,1
						c-0.2,0.3-0.4,0.7-0.5,1l-1,2c-0.4,0.7-0.7,1.4-1,2C267.8,291.1,267.1,292.5,266.3,293.9L266.3,293.9L266.3,293.9z"/>
				</g>
			</g>
		</g>
		<g class="st2">
			<g>
				<g>
					<path class="st3" d="M133.1,242.8c-0.9,1.9-2.1,3.4-3.5,4.2c-7.8,4.4-13.5,0.6-17.6-8.7c-0.7-1.6-3.8-7.6-8.9-5.3
						c-0.8,0.4-1.5,0.8-2.2,1.3c-7.1,5.5-6.5,19.1-1,32.5l-2.3-0.1c0,0-9.9-28.1,3.2-39.2c13.6-11.5,19,4.1,24.1,11.2
						C127.9,243,131,243.3,133.1,242.8z"/>
				</g>
			</g>
		</g>
		<g>
			<g>
				<g>
					
						<ellipse transform="matrix(0.42 -0.9075 0.9075 0.42 -112.9027 425.6283)" class="st7" cx="276.6" cy="301.1" rx="9.1" ry="5"/>
				</g>
			</g>
		</g>
		<g>
			<g>
				<g>
					<path class="st7" d="M278,287.3c-0.8,1.7-2.2,2.7-3.1,2.3c-0.9-0.4-1.1-2.2-0.3-3.9c0.8-1.7,2.2-2.7,3.1-2.3
						C278.7,283.9,278.8,285.6,278,287.3z"/>
				</g>
			</g>
		</g>
		<g>
			<g>
				<g>
					
						<ellipse transform="matrix(0.4912 -0.871 0.871 0.4912 -105.1994 390.5934)" class="st7" cx="281.7" cy="285.3" rx="4.8" ry="2.8"/>
				</g>
			</g>
		</g>
		<g>
			<g>
				<g>
					
						<ellipse transform="matrix(0.42 -0.9075 0.9075 0.42 -99.4606 428.6685)" class="st7" cx="285.7" cy="292.2" rx="3.1" ry="1.7"/>
				</g>
			</g>
		</g>
		<g>
			<g>
				<g>
					<path class="st1" d="M265,283.2l-13.6,0.2l4.6-14.2l0.1-2.2l0.4-18.6l0.8-32.7c0,0,4.5,14.8,7,33.3c0.7,5.6,1.3,11.6,1.4,17.5
						C265.9,272.1,265.7,277.8,265,283.2z"/>
				</g>
			</g>
		</g>
		<g>
			<g>
				<g>
					<path class="st3" d="M265,284.8c-0.1,0-0.1,0-0.2,0c-0.9-0.1-1.5-0.9-1.4-1.8c1.6-12.7,1.1-25.7-1.3-37.6
						c-0.2-0.9,0.4-1.7,1.2-1.9c0.9-0.2,1.7,0.4,1.9,1.2c2.5,12.2,2.9,25.6,1.3,38.6C266.5,284.2,265.8,284.8,265,284.8z"/>
				</g>
			</g>
		</g>
		<g>
			<g>
				<g>
					<path class="st4" d="M187.1,317.1c-0.1,0.1-0.3,0.2-0.4,0.3c-5.9,4.3-15.2,1.8-17.2-4.6c-1.7-5.4-2.7-11.6-3.3-16.9l0.8,4.4
						c-5.4-29.5,14.8-26.5,19.4-22.9C196.5,285.5,194.3,311.5,187.1,317.1z"/>
				</g>
			</g>
		</g>
		<g>
			<g>
				<g>
					<g>
						<path class="st4" d="M204.2,315.8c0.3-0.4,0.5-0.8,0.8-1.3C204.7,314.9,204.4,315.4,204.2,315.8z"/>
					</g>
				</g>
			</g>
			<g>
				<g>
					<g>
						<path class="st3" d="M204.4,315.9l-0.4-0.3c0.3-0.4,0.5-0.8,0.8-1.3l0.4,0.2C204.9,315.1,204.6,315.5,204.4,315.9z"/>
					</g>
				</g>
			</g>
		</g>
		<g>
			<g>
				<g>
					<g>
						<path class="st4" d="M208,292.2c0.1,0.8,0.1,1.6,0.2,2.3C208.1,293.8,208,293,208,292.2z"/>
					</g>
				</g>
			</g>
			<g>
				<g>
					<g>
						<path class="st3" d="M207.9,294.6c0-0.8-0.1-1.6-0.2-2.3l0.5,0c0.1,0.7,0.1,1.5,0.2,2.4L207.9,294.6z"/>
					</g>
				</g>
			</g>
		</g>
		<g>
			<g>
				<g>
					<path class="st3" d="M148.5,223.1c-0.5,0.7-0.9,1.5-0.9,1.5c-0.3,0.4-0.5,0.8-0.7,1.2l-1.7,2.6c-2.3,3.5-4.5,7-6.7,10.5
						c-2.2,3.5-4.3,7.1-6.1,10.7c-1.9,3.6-3.5,7.3-5,11.1c-1.5,3.7-2.8,7.5-3.8,11.4c-0.2,1-0.5,1.9-0.7,2.9l-0.6,2.9
						c-0.3,1.9-0.6,3.9-0.8,5.8c-0.8,7.8,0.2,15.7,3.5,22.9l-0.1-0.2c0.2,0.3,0.5,0.8,0.8,1.1c0.3,0.4,0.6,0.8,1,1.2
						c0.7,0.8,1.4,1.5,2.1,2.2c1.5,1.4,3.1,2.8,4.8,4c3.4,2.4,7.4,4.2,11.7,5.2c2.1,0.5,4.3,0.8,6.5,0.9c1.1,0.1,2.2,0,3.3,0
						c0.6,0,1.1-0.1,1.7-0.1l0.8-0.1c0.3,0,0.6-0.1,0.8-0.1c4.4-0.6,8.7-1.8,12.8-3.5l0.9-0.4l0.9,0.4c0.1,0.1,0.4,0.2,0.6,0.2
						c0.2,0.1,0.5,0.2,0.7,0.2c0.5,0.1,1,0.3,1.5,0.4c1,0.2,2,0.3,3,0.3c1,0,2-0.1,2.9-0.3c0.5-0.1,0.9-0.2,1.4-0.4l0.7-0.3
						c0.2-0.1,0.4-0.2,0.6-0.3c0.2-0.1,0.4-0.2,0.6-0.3l0.6-0.4c0.4-0.3,0.7-0.5,1-0.8c0.6-0.6,1.1-1.4,1.5-2.2
						c0.9-1.6,1.5-3.4,2-5.2c1-3.6,1.4-7.5,1.4-11.2c0-3.8-0.5-7.6-1.7-11.1c-0.6-1.8-1.4-3.5-2.5-4.9c-0.3-0.4-0.6-0.7-0.9-1.1
						c-0.3-0.3-0.6-0.6-1-0.9c-0.2-0.2-0.3-0.2-0.5-0.4c-0.2-0.1-0.3-0.2-0.6-0.3c-0.4-0.2-0.8-0.4-1.3-0.5
						c-1.8-0.6-3.9-0.9-5.8-0.6c-1.9,0.3-3.7,1-5,2.2c-1.4,1.2-2.3,2.7-2.9,4.4c-0.6,1.7-0.9,3.5-1.1,5.3c-0.4,3.7-0.2,7.5-0.6,11.4
						l0,0c0,0.3-0.3,0.5-0.7,0.5c-0.3,0-0.5-0.2-0.6-0.3c-1.8-3.7-2.4-7.8-2.2-11.8c0.1-2,0.6-4.1,1.4-6.1c0.4-1,0.9-2,1.5-3
						c0.7-0.9,1.4-1.9,2.4-2.7c1.9-1.7,4.5-2.8,7.2-3.1c2.7-0.3,5.4,0,7.8,0.8c0.6,0.2,1.2,0.5,1.8,0.8c0.3,0.1,0.6,0.3,0.9,0.5
						c0.3,0.2,0.6,0.4,0.8,0.6c0.5,0.4,0.9,0.8,1.3,1.2c0.4,0.4,0.8,0.9,1.1,1.3c1.4,1.8,2.3,3.8,2.9,5.8c1.3,4,1.8,8,1.9,12
						c0,4-0.4,8-1.5,12c-0.5,2-1.2,3.9-2.3,5.9c-0.6,1-1.2,1.9-2,2.8c-0.4,0.4-1,0.9-1.5,1.2l-0.8,0.5c-0.3,0.2-0.6,0.3-0.8,0.5
						c-0.3,0.1-0.6,0.3-0.9,0.4l-0.9,0.4c-0.6,0.3-1.3,0.4-1.9,0.6c-1.3,0.3-2.7,0.4-4,0.4c-1.3,0-2.6-0.2-3.9-0.5
						c-0.6-0.1-1.2-0.3-1.9-0.5c-0.3-0.1-0.6-0.2-0.9-0.3c-0.3-0.1-0.6-0.2-0.9-0.4l1.8,0c-4.3,1.8-9,3.2-13.9,3.8
						c-0.3,0-0.6,0.1-0.9,0.1l-0.9,0.1c-0.6,0-1.2,0.1-1.9,0.1c-1.2,0-2.5,0.1-3.7,0c-2.5-0.1-5-0.4-7.4-1c-4.8-1.1-9.2-3.2-13-5.8
						c-1.9-1.3-3.7-2.8-5.3-4.3c-0.8-0.8-1.6-1.6-2.3-2.4c-0.4-0.4-0.7-0.8-1.1-1.3c-0.3-0.4-0.7-0.9-1-1.4l-0.1-0.1l0-0.1
						c-3.6-7.8-4.6-16.2-3.8-24.3c0.1-2,0.5-4.1,0.8-6.1l0.6-3c0.2-1,0.5-2,0.7-3c1.1-4,2.3-7.9,3.9-11.7
						c3.1-7.7,6.9-15.1,11.2-22.3c2.1-3.6,4.5-7.1,7.1-10.5c1-1.4,1.9-2.5,2.9-3.7c0.6-0.7,1-1.1,1.2-1.3c3.5-3.7,4.6-5.6,6.2-7
						c4-3.5,10-3.2,10.1-2.8c0.1,0.3-3.8,0.6-7.7,3.9C154.5,215.9,151.8,218.2,148.5,223.1z"/>
				</g>
			</g>
		</g>
		<g>
			<g>
				<g>
					<path class="st3" d="M154,267.2c2.4,0.5,4.5,1.9,6.1,3.4c1.7,1.5,3.1,3.2,4.3,5c0.3,0.5,0.6,0.9,0.8,1.4l0.4,0.7l0.3,0.7
						l0.7,1.5l0.5,1.5l0.3,0.8c0.1,0.3,0.1,0.5,0.2,0.8l0.3,1.5c0.2,1,0.2,2.1,0.4,3.1c0.1,0.9-0.7,1.7-1.7,1.7
						c-1,0.1-1.9-0.5-2-1.4l0-0.2c-0.1-0.9-0.2-1.9-0.4-2.8l-0.3-1.4l-0.1-0.7l-0.2-0.7c-0.4-1.8-1.2-3.6-2.1-5.3
						c-0.9-1.7-2-3.3-3.3-4.8c-1.3-1.5-2.7-3-4.2-4.6l0,0c-0.1-0.1,0-0.1,0-0.2C153.9,267.2,153.9,267.2,154,267.2z"/>
				</g>
			</g>
		</g>
		<g class="st2">
			<g>
				<g>
					<g>
						<path class="st8" d="M276.5,315.9c-0.3,0.1-0.5,0.2-0.8,0.3c0.1,0,0.2-0.1,0.3-0.1C276.2,316,276.3,315.9,276.5,315.9z"/>
					</g>
				</g>
			</g>
			<g>
				<g>
					<g>
						<path class="st3" d="M275.8,316.4l-0.1-0.5c0.1,0,0.2-0.1,0.3-0.1c0.1,0,0.2-0.1,0.3-0.1c0,0,0.1,0,0.1,0l0,0c0,0,0,0,0,0
							l0.2,0.5c0,0,0,0,0,0l0,0c0,0,0,0,0,0c0,0-0.1,0-0.1,0C276.2,316.3,276,316.3,275.8,316.4z"/>
					</g>
				</g>
			</g>
		</g>
		<g>
			<g>
				<g>
					<ellipse class="st7" cx="180.9" cy="302.4" rx="5.8" ry="8.9"/>
				</g>
			</g>
		</g>
		<g class="st2">
			<g>
				<g>
					<path class="st3" d="M193.3,295.9c0-0.3,0-0.7,0-1c0-0.1,0-0.2,0-0.4c0-0.8-0.1-1.6-0.2-2.3c-0.7,6.7-2.8,12.7-5.9,15
						c-0.1,0-0.1,0.1-0.2,0.1c0,0,0,0,0,0c-3.1,2.3-6.8,2.4-10.1,1.6c-5.2-1.1-9.4-4.3-9.4-4.3c-0.1,0-1.1,3-2.2,4.2
						c-7.9,8.9-28.5,4.8-36.2-3.7c-3.6-4-6.3-8.3-7.8-13.2c-0.9-3-1.6-6-1.8-8.5c-0.7,8.2,0.2,16.2,3.7,23.6c0,0,16,24.9,48.6,11.5
						c0.1,0,0.1-0.1,0.2-0.1c0,0,7.5,3.6,14-0.5c0.1-0.1,0.2-0.2,0.4-0.2c0.1-0.1,0.3-0.2,0.4-0.3c0.1-0.1,0.3-0.2,0.4-0.3
						c0.5-0.4,0.9-0.8,1.3-1.4c0.2-0.3,0.5-0.6,0.7-1c0.1-0.1,0.1-0.2,0.2-0.4c0.5-0.8,0.9-1.7,1.3-2.7c0.4-1,0.7-2,1-3.1
						c0.5-1.9,0.9-4,1.2-6.2c0-0.4,0.1-0.9,0.1-1.3c0.1-1.4,0.2-2.7,0.2-4.1C193.3,296.7,193.3,296.3,193.3,295.9z"/>
				</g>
			</g>
		</g>
		<g>
			<g>
				<g>
					<ellipse class="st7" cx="173.6" cy="289.6" rx="2.1" ry="3.3"/>
				</g>
			</g>
		</g>
		<g>
			<g>
				<g>
					<ellipse class="st7" cx="180" cy="285.9" rx="3" ry="4.5"/>
				</g>
			</g>
		</g>
		<g>
			<g>
				<g>
					<ellipse class="st7" cx="186.8" cy="287.8" rx="1.8" ry="3"/>
				</g>
			</g>
		</g>
		<g>
			<g>
				<g>
					<path class="st1" d="M235.8,113.3c6.4-4.5,35.5-24.5,41.4-19.8c10.3,8.3,1.3,39.4-0.9,46.4"/>
				</g>
			</g>
		</g>
		<g class="st5">
			<g>
				<g>
					<path class="st4" d="M235.8,113.3l4.3,2.8c9.4-6.5,33.6-22.3,38.9-18c0.9,0.7,1.7,1.7,2.3,2.7c-0.7-3.1-2-5.7-4.1-7.3
						C271.3,88.8,242.1,108.9,235.8,113.3z"/>
				</g>
			</g>
		</g>
		<g>
			<g>
				<g>
					<path class="st3" d="M276.2,141.6c-0.2,0-0.3,0-0.5-0.1c-0.8-0.3-1.3-1.2-1-2c5.3-16.9,8.9-38.8,1.5-44.7
						c-0.5-0.4-3.7-1.9-18.7,6.6c-9,5.1-18.2,11.4-20.7,13.3c-0.7,0.5-1.7,0.3-2.2-0.4c-0.5-0.7-0.3-1.7,0.4-2.2
						c2.6-1.8,11.9-8.3,21-13.4c15.9-9,20.3-7.9,22.3-6.3c10.9,8.7,2.5,39.1-0.4,48.2C277.5,141.2,276.9,141.6,276.2,141.6z"/>
				</g>
			</g>
		</g>
		<g>
			<g>
				<g>
					<path class="st9" d="M274.1,102.9c0,0,1.5-0.6,1.5,3c0,6-2.1,21.3-8.9,27c0,0-10.8-15.1-13.7-16.8s3.1-3.8,4.7-6.1
						C259.5,107.7,273,102.4,274.1,102.9z"/>
				</g>
			</g>
		</g>
		<g class="st10">
			<g>
				<g>
					<path class="st3" d="M253.1,116c1.7,1,6,6.5,9.4,11c3.8-7,5-17.3,5-22c0-0.1,0-0.1,0-0.2c-4.1,1.6-8.7,3.8-9.6,5.1
						C256.2,112.2,250.2,114.3,253.1,116z"/>
				</g>
			</g>
		</g>
		<g>
			<g>
				<g>
					<path class="st3" d="M274,102.8c-2.1,0.7-4.1,1.5-6.2,2.4c-2,0.9-4,1.9-5.9,2.9c-1.9,1.1-3.8,2.2-5.5,3.5
						c-1.7,1.3-3.4,2.7-4.8,4.2h0l-0.2-2.1c0.9,0.7,1.7,1.4,2.5,2.2c0.8,0.7,1.6,1.5,2.3,2.3c1.5,1.6,2.9,3.2,4.2,4.9
						c1.3,1.7,2.6,3.4,3.7,5.2c0.6,0.9,1.1,1.8,1.7,2.7c0.5,0.9,1.1,1.9,1.6,2.8c0.2,0.3,0.1,0.7-0.2,0.8c-0.3,0.2-0.6,0.1-0.8-0.2
						l0,0c-0.6-0.9-1.1-1.8-1.7-2.6c-0.6-0.9-1.2-1.7-1.8-2.6c-1.2-1.7-2.6-3.3-3.9-4.9c-1.4-1.6-2.8-3.1-4.3-4.5
						c-0.8-0.7-1.5-1.4-2.3-2.1c-0.8-0.6-1.6-1.3-2.4-1.8l-1.4-0.9l1.2-1.2c1.7-1.6,3.5-3,5.4-4.2c1.9-1.2,3.9-2.3,5.9-3.3
						c2-1,4.1-1.9,6.2-2.6c2.1-0.8,4.2-1.5,6.4-2c0.3-0.1,0.7,0.1,0.8,0.4C274.5,102.4,274.3,102.7,274,102.8L274,102.8z"/>
				</g>
			</g>
		</g>
		<g class="st2">
			<g>
				<g>
					<path class="st3" d="M261.3,226.2c-1.9-1.7-3.9-3.4-6.2-4.9l0.1,1c-0.2-1.3-0.4-2-0.4-2l-9.7-6.1l-34.7-1.6
						c-15.5,0.5-31,1.1-46.5,1.6l0,0c-2.2,1.8-4.7,4.2-7.1,7.3c-1.1,1.4-2,2.8-2.9,4.1c0.9,0.6,1.9,1.2,2.9,1.7
						c1.7,0.9,3.5,1.8,5.3,2.5c7.6,3.2,16.1,5.1,24.6,6.1c1,0.1,2,0.2,3,0.3c29.6,2.7,59.5-5,59.5-5c2.2-0.8,4.4-1.6,6.5-2.5
						C255.6,228.9,259.7,227,261.3,226.2z"/>
				</g>
			</g>
		</g>
		<g>
			<g>
				<g>
					<path class="st1" d="M295.4,191.6c-0.4,3.5-8.3-0.5-8.3-0.5s-0.4,1.1,1.2,4.3c1.2,2.3,2.3,4,1.8,5.3c-0.5,1.4-2.8,1.7-5.5,1.4
						c-1.9-0.2-3.5,0.1-5.5,2.4c-0.4,0.4-0.8,1-1.3,1.6c0,0,0,0,0,0v0c-6.1,7.3-14.5,12.7-24.4,16.4c0,0-55.3,15.7-86.1-5.8
						c-4.8-3.4-8.9-7.6-12.2-12.7c-0.8-0.2-1.6-0.2-2.4-0.1c-2.7,0.3-5,0.1-5.5-1.2c-0.5-1.3,0.3-3.2,1.4-5.6c0.8-2,1.2-3.2,1.3-3.7
						c0-0.1-0.1-0.3-0.2-0.2c-1.4,0.7-7.7,3.8-8.1,0.6c-0.1-0.6,0.2-1.7,0.7-3.1c0.8-2.5,2.1-5.9,2.7-9.4c1.5-8.9,2.6-15.1,3.4-18.9
						c0-0.1,0-0.2,0.1-0.3c0-0.1,0-0.2,0.1-0.3c0-0.1,0-0.2,0.1-0.3c0.2-1.1,0.5-2.2,0.8-3.3c1.3-5,3.2-10,5.6-15.6l20-22l13.3-14.7
						c7.7-3.9,16.6-6.3,26.4-6.9c2-0.1,3.9-0.2,5.8-0.1c0,0,0.1,0,0.1,0c7.2,0.2,13.5,2.1,19.7,4.2c23.9,8.3,36.8,30.3,36.8,30.3
						c3.1,5.3,5.6,10.2,7.5,15.2c0.9,2.4,1.7,4.9,2.3,7.4c0,0,0,0,0,0.1c0.3,1.1,2.1,8.5,4.9,22.9
						C292.7,184.6,295.6,189.9,295.4,191.6z"/>
				</g>
			</g>
		</g>
		<g class="st2">
			<g>
				<g>
					<path class="st3" d="M148.5,197.1c-1,2.4-1.9,4.3-1.4,5.6c0.5,1.3,2.8,1.6,5.5,1.2c0.8-0.1,1.6-0.1,2.4,0.1
						c3.3,5,7.5,9.2,12.2,12.7c30.9,21.4,86.1,5.8,86.1,5.8c9.9-3.7,18.3-9.1,24.4-16.4l0,0c0,0,0,0,0,0c0.4-0.6,0.9-1.1,1.3-1.6
						c2-2.3,3.6-2.5,5.5-2.4c2.7,0.3,5,0,5.5-1.4c0.5-1.3-0.6-3-1.8-5.3c-0.1-0.2-0.2-0.4-0.3-0.6c-1,0.2-2.2,0.2-3.5,0.1
						c-1.9-0.2-3.5,0.1-5.5,2.4c-0.4,0.4-0.8,1-1.3,1.6c0,0,0,0,0,0l0,0c-6.1,7.3-14.5,12.7-24.4,16.4c0,0-55.3,15.7-86.1-5.8
						c-4.3-3.1-8.1-6.8-11.3-11.3c-0.8-1.1-2-1.7-3.3-1.5c0,0,0,0,0,0c-1.5,0.2-2.8,0.2-3.8-0.1
						C148.6,196.8,148.5,196.9,148.5,197.1z"/>
				</g>
			</g>
		</g>
		<g>
			<g>
				<g>
					<path class="st4" d="M210.2,198.1c0.6,9,10.3,11.3,21.9,10.5c11.7-0.8,21-4.3,20.4-13.3s-10.1-17-21.8-16.3
						C219.1,179.9,209.7,189.1,210.2,198.1z"/>
				</g>
			</g>
		</g>
		<g>
			<g>
				<g>
					<path class="st3" d="M223.7,201.8c0-1.2,0.3-2.3,0.7-3.5c0.4-1.1,1-2.2,1.8-3.2c0.8-1,1.9-1.8,3.1-2.3c1.2-0.5,2.6-0.6,3.8-0.5
						c1.3,0.1,2.5,0.5,3.7,1.1c1.1,0.7,2.1,1.7,2.7,2.8c1.2,2.3,1.3,4.8,0.7,7.1c-0.1,0.2-0.3,0.4-0.5,0.3c-0.2-0.1-0.3-0.2-0.3-0.4
						l0,0c0-2.2-0.5-4.3-1.6-5.9c-0.6-0.8-1.3-1.4-2.1-1.8c-0.8-0.4-1.7-0.6-2.7-0.7c-1.9-0.2-3.7,0.4-5.1,1.8
						c-1.4,1.4-2.5,3.3-3.3,5.3l0,0c-0.1,0.2-0.3,0.3-0.6,0.2C223.7,202.1,223.6,201.9,223.7,201.8z"/>
				</g>
			</g>
		</g>
		<g>
			<g>
				<g>
					<path class="st3" d="M234.6,185.4c0.2,0.6,0.3,1.1,0.4,1.7c0.1,0.6,0.2,1.1,0.3,1.7c0.1,0.6,0.1,1.2,0.1,1.8
						c0,0.6-0.1,1.3-0.4,1.9l0,0c-0.2,0.6-0.9,1-1.5,0.7c-0.6-0.2-1-0.9-0.7-1.5c0-0.1,0.1-0.2,0.1-0.2c0.2-0.3,0.3-0.8,0.5-1.2
						c0.1-0.5,0.2-1,0.2-1.5c0-0.5,0.1-1,0.1-1.6c0-0.5,0-1.1-0.1-1.6l0,0c0-0.3,0.2-0.6,0.5-0.7C234.3,185,234.6,185.2,234.6,185.4
						z"/>
				</g>
			</g>
		</g>
		<g>
			<g>
				<g>
					<path class="st3" d="M224.7,184.3c0.4,2.5,5.3,3.9,8.8,3.9c2.7,0,6.9-1.8,6.9-4.5c0-2.1-2.4-3.6-8.8-3
						C226.4,181.2,224.4,182.7,224.7,184.3z"/>
				</g>
			</g>
		</g>
		<g class="st11">
			<g>
				<g>
					<g>
						<path class="st4" d="M231.8,182.1c-0.1,0.4,1.1,1,2,1c0.5,0,2.4,0,2.5-0.5c0.1-0.5-0.4-0.9-2.2-1.1
							C232.6,181.3,231.9,181.6,231.8,182.1z"/>
					</g>
				</g>
			</g>
			<g>
				<g>
					<g>
						<path class="st3" d="M233.8,183.3c-0.8,0-1.7-0.4-2.1-0.8c-0.2-0.2-0.2-0.4-0.1-0.5l0,0c0.1-0.5,0.6-1,2.6-0.8
							c1.2,0.1,2,0.4,2.3,0.8c0.1,0.2,0.2,0.4,0.1,0.6C236.6,182.8,236.4,183.3,233.8,183.3C233.8,183.3,233.8,183.3,233.8,183.3z
							 M232.1,182.1c0,0,0,0,0.1,0.1c0.3,0.3,1,0.6,1.7,0.6c0,0,0,0,0,0c1.7,0,2.2-0.2,2.3-0.3c0-0.1,0-0.1,0-0.2
							c-0.1-0.2-0.5-0.4-1.9-0.6C232.7,181.6,232.2,181.8,232.1,182.1z"/>
					</g>
				</g>
			</g>
		</g>
		<g>
			<g>
				<g>
					<path class="st1" d="M194,113.3c-6.4-4.5-35.5-24.5-41.4-19.8c-10.3,8.3,0.6,44,2.8,51"/>
				</g>
			</g>
		</g>
		<g class="st5">
			<g>
				<g>
					<path class="st4" d="M295.4,191.6c-0.1,0.7-0.4,1.1-1,1.3c-0.9-2.4-2.1-5.5-2.7-8.6c-2.8-14.4-4.6-21.9-4.9-22.9
						c0-0.1,0-0.1,0-0.1c-0.6-2.6-1.4-5-2.3-7.5c-1.9-5-3.2-10.5-6.3-15.8c0,0-14.1-21.4-38-29.6c-6.1-2.1-12.5-4-19.7-4.2
						c0,0-0.1,0-0.1,0c-1.9-0.1-3.9,0-5.8,0.1c-9.8,0.6-18,2.3-26,7.1L186,113c-9.4-6.5-29.9-19.1-35.2-14.9
						c-0.9,0.7-1.7,1.7-2.3,2.7c0.7-3.1,2-5.7,4.1-7.3c5-4,24.4,7.7,33.9,14l-0.3-0.5c8.7-5,18.5-7.4,28.3-7.9
						c2-0.1,3.9-0.2,5.8-0.1c0.1,0,0.1,0,0.1,0c7.2,0.2,13.5,2.1,19.7,4.2c23.9,8.3,36.8,30.3,36.8,30.3c3.1,5.3,5.6,10.2,7.5,15.2
						c0.9,2.4,1.7,4.9,2.3,7.5c0,0,0,0,0,0.1c0.3,1.1,2.1,8.5,4.9,22.9C292.7,184.6,295.6,189.9,295.4,191.6z"/>
				</g>
			</g>
		</g>
		<g>
			<g>
				<g>
					<path class="st9" d="M155.6,102.9c0,0-1.5-0.6-1.5,3c0,6,2.1,21.3,8.9,27c0,0,10.8-15.1,13.7-16.8c2.8-1.7-3.1-3.8-4.7-6.1
						C170.3,107.7,156.8,102.4,155.6,102.9z"/>
				</g>
			</g>
		</g>
		<g class="st10">
			<g>
				<g>
					<path class="st3" d="M176.7,116c-1.7,1-6,6.5-9.4,11c-3.8-7-5-17.3-5-22c0-0.1,0-0.1,0-0.2c4.1,1.6,8.7,3.8,9.6,5.1
						C173.6,112.2,179.5,114.3,176.7,116z"/>
				</g>
			</g>
		</g>
		<g>
			<g>
				<g>
					<path class="st3" d="M156,101.6c2.2,0.6,4.3,1.3,6.4,2c2.1,0.8,4.2,1.7,6.2,2.6c2,1,4,2.1,5.9,3.3c1.9,1.2,3.7,2.6,5.4,4.2h0
						l1.2,1.2l-1.4,0.9c-0.8,0.5-1.6,1.2-2.4,1.8c-0.8,0.7-1.6,1.3-2.3,2.1c-1.5,1.4-3,2.9-4.3,4.5c-1.4,1.6-2.7,3.2-3.9,4.9
						c-0.6,0.8-1.2,1.7-1.8,2.6c-0.6,0.9-1.1,1.8-1.7,2.6l0,0c-0.2,0.3-0.6,0.4-0.8,0.2c-0.3-0.2-0.4-0.5-0.2-0.8
						c0.5-0.9,1-1.9,1.6-2.8c0.6-0.9,1.1-1.8,1.7-2.7c1.1-1.8,2.4-3.5,3.7-5.2c1.3-1.7,2.7-3.3,4.2-4.9c0.7-0.8,1.5-1.6,2.3-2.3
						c0.8-0.8,1.6-1.5,2.5-2.2l-0.2,2.1c-1.5-1.5-3.1-3-4.8-4.2c-1.7-1.3-3.6-2.5-5.5-3.5c-1.9-1.1-3.9-2-5.9-2.9
						c-2-0.9-4.1-1.7-6.2-2.4l0,0c-0.3-0.1-0.5-0.5-0.4-0.8C155.4,101.7,155.7,101.5,156,101.6z"/>
				</g>
			</g>
		</g>
		<g>
			<g>
				<g>
					<path class="st3" d="M247.7,223.1c4.1-1.4,8.2-3,12.1-4.9c3.9-1.9,7.6-4.1,10.9-6.8c0.8-0.7,1.6-1.4,2.4-2.1
						c0.4-0.4,0.8-0.7,1.2-1.1l0.5-0.5l0.5-0.6c0.4-0.4,0.7-0.8,1-1.2l0.2-0.3c0,0,0.1-0.1,0.1-0.1l0.1-0.2c0.2-0.3,0.4-0.5,0.6-0.8
						c0.8-0.9,1.7-1.8,2.7-2.5c1.1-0.7,2.4-1.2,3.7-1.2l0.5,0c0.2,0,0.4,0,0.5,0c0.3,0,0.5,0,0.8,0.1c0.5,0,1,0,1.5,0
						c0.5,0,0.9-0.1,1.3-0.3c0.4-0.1,0.5-0.3,0.5-0.4c0.1-0.1,0.1-0.4,0-0.8c-0.1-0.4-0.2-0.9-0.4-1.3c-0.4-1-0.9-1.9-1.3-3
						c-0.5-1.1-0.9-2.1-1.2-3.3l0-0.1l0-0.1c0-0.1,0-0.1,0-0.2c0-0.3,0-0.5,0.2-0.8c0.1-0.3,0.4-0.5,0.7-0.6c0.3-0.2,0.8-0.1,1.1,0
						l0.4,0.2l0.7,0.3c0.5,0.2,1,0.4,1.5,0.6c1,0.3,2,0.6,2.8,0.7c0.4,0,0.8-0.1,0.8-0.1c0,0,0,0,0,0c0,0,0-0.2,0-0.3
						c0-0.3-0.2-0.8-0.3-1.3c-0.2-0.5-0.3-1-0.5-1.5c-0.8-2-1.6-4.1-2.2-6.3c-0.2-0.5-0.3-1.1-0.4-1.7c-0.1-0.6-0.3-1.1-0.4-1.7
						l-0.6-3.2l-1.3-6.4c-0.9-4.3-1.8-8.6-2.9-12.8l2.7-0.6l0,0.1l-2.7,0.6c-0.9-3.7-2.2-7.3-3.7-10.8c-1.5-3.5-3.4-6.9-5.3-10.3
						c-1.9-3.3-4.2-6.4-6.7-9.3c-2.5-2.9-5.2-5.7-8-8.2c-0.7-0.7-1.5-1.2-2.2-1.9l-1.1-0.9c-0.4-0.3-0.8-0.6-1.1-0.9
						c-0.8-0.6-1.5-1.2-2.3-1.7l-2.4-1.6c-0.4-0.3-0.8-0.5-1.2-0.8l-1.2-0.7c-0.8-0.5-1.7-1-2.5-1.4l-2.6-1.2
						c-0.4-0.2-0.9-0.4-1.3-0.6l-1.3-0.5l-2.7-1c-0.9-0.3-1.8-0.6-2.7-0.9c-1.8-0.6-3.7-1.1-5.5-1.6c-1.9-0.5-3.7-0.9-5.6-1.1
						c-0.9-0.1-1.9-0.2-2.8-0.3l-1.4-0.1l-0.7,0l-0.4,0l-0.2,0c0,0,0,0,0,0l0,0c0,0,0,0,0.1,0l-0.2,0c-2.9-0.1-5.8,0.1-8.7,0.4
						c-2.9,0.3-5.7,0.9-8.5,1.6c-5.6,1.5-11.1,3.6-16,6.6l-0.9,0.5l-0.8-0.6c-3-2.1-6-4.1-9.1-6c-3.1-1.9-6.2-3.7-9.5-5.3
						c-1.6-0.8-3.2-1.5-4.9-2.1c-1.6-0.6-3.3-1.1-4.9-1.3c-0.8-0.1-1.6-0.1-2.2,0c-0.3,0.1-0.6,0.2-0.8,0.3
						c-0.1,0.1-0.2,0.1-0.3,0.2l-0.4,0.4c-1.1,1-1.9,2.5-2.4,4c-0.5,1.6-0.8,3.3-1,5c-0.2,1.7-0.2,3.5-0.2,5.3
						c0,1.8,0.2,3.6,0.4,5.4c0.2,1.8,0.5,3.6,0.8,5.4c0.6,3.6,1.4,7.1,2.3,10.6c0.9,3.5,2,7,3.2,10.4l0.2,0.6l-0.3,0.6
						c-0.7,1.6-1.4,3.2-2,4.8c-0.6,1.7-1.2,3.3-1.7,5c-0.5,1.7-1,3.4-1.4,5.1c-0.2,0.9-0.4,1.7-0.6,2.6l-0.3,1.3l-0.3,1.2l0,0.1
						c-0.2,0.7-0.3,1.5-0.5,2.3l-0.4,2.3l-0.8,4.7l-1.6,9.4c-0.5,3.3-1.7,6.4-2.7,9.4c-0.2,0.7-0.5,1.5-0.6,2.1
						c0,0.2-0.1,0.3-0.1,0.4c0,0.2,0,0.1,0,0.2c0,0,0,0,0,0c0,0,0,0,0,0c0,0-0.1-0.1-0.1-0.1c-0.1-0.1,0,0,0.2,0
						c0.2,0,0.5,0,0.8-0.1c0.6-0.1,1.3-0.3,2-0.6c0.7-0.3,1.4-0.6,2-0.9l0.5-0.2l0.1-0.1c0.1,0-0.1,0,0.3-0.1c0.3-0.1,0.7-0.1,1.1,0
						c0.7,0.2,1,0.7,1.2,1.2c0.1,0.2,0.1,0.5,0.1,0.7c0,0.1,0,0.1,0,0.2l0,0.1l0,0c-0.1,0.5-0.2,0.9-0.4,1.3
						c-0.3,0.8-0.6,1.6-0.9,2.4c-0.3,0.8-0.6,1.5-0.9,2.2c-0.3,0.7-0.5,1.4-0.6,1.9c0,0.3,0,0.5,0,0.5c0,0,0,0,0,0c0,0,0,0,0,0
						c0,0,0,0,0.1,0.1c0.1,0.1,0.3,0.2,0.6,0.3c0.3,0.1,0.6,0.2,0.9,0.2c0.7,0.1,1.4,0.2,2.2,0.3c0.3,0,1,0.1,1.4,0.2
						c0.5,0.1,0.9,0.3,1.4,0.5c0.8,0.4,1.6,0.9,2.3,1.4c1.4,1,2.6,2.1,3.8,3.2c1.2,1.1,2.3,2.3,3.4,3.5l1.6,1.7
						c0.3,0.3,0.5,0.6,0.8,0.8c0.3,0.3,0.5,0.5,0.7,0.7l-0.4-0.2c0.2,0.1,0.4,0.2,0.5,0.3l0,0l0,0l0.1,0.1l0.1,0.1l0.3,0.2l0.6,0.5
						c0.4,0.3,0.8,0.6,1.2,0.9c0.8,0.6,1.6,1.2,2.4,1.7c0.8,0.6,1.7,1.1,2.5,1.6c0.9,0.5,1.7,1,2.6,1.4c1.8,0.9,3.6,1.7,5.5,2.4
						c1.9,0.7,3.8,1.3,5.7,1.9l0,0c0.3,0.1,0.5,0.4,0.4,0.7c-0.1,0.3-0.4,0.5-0.6,0.4c-4.1-0.5-8.1-1.5-12-3.1
						c-1-0.4-1.9-0.8-2.9-1.3c-0.9-0.5-1.8-1-2.7-1.5c-0.9-0.5-1.8-1.1-2.6-1.7c-0.4-0.3-0.8-0.6-1.3-0.9l-0.6-0.5l-0.3-0.2
						l-0.2-0.1l-0.1-0.1l0,0l0,0c0.1,0.1,0.3,0.2,0.4,0.2l-0.4-0.2c-0.5-0.3-0.8-0.6-1.1-0.9c-0.3-0.3-0.6-0.6-0.9-0.9l-1.7-1.7
						c-1.1-1.1-2.2-2.2-3.3-3.3c-1.1-1-2.3-2-3.5-2.9c-0.6-0.4-1.2-0.8-1.8-1c-0.3-0.1-0.6-0.2-0.9-0.3c-0.3-0.1-0.4-0.1-0.9-0.1
						c-0.8-0.1-1.6-0.2-2.5-0.3c-0.4-0.1-0.9-0.2-1.4-0.4c-0.5-0.2-1-0.4-1.5-0.8c-0.3-0.2-0.5-0.5-0.8-0.8
						c-0.1-0.2-0.2-0.3-0.3-0.5c-0.1-0.2-0.1-0.4-0.2-0.5c-0.2-0.7-0.1-1.3-0.1-1.8c0.2-1,0.5-1.9,0.8-2.6c0.3-0.8,0.6-1.5,0.9-2.2
						c0.3-0.7,0.6-1.4,0.8-2.1c0.1-0.3,0.2-0.7,0.3-1l0,0c0,0,0,0,0,0.1c0,0,0,0.1,0,0.1c0,0.2,0,0.4,0.1,0.6c0.1,0.4,0.4,0.8,1,1
						c0.3,0.1,0.6,0.1,0.9,0c0.4-0.1,0.2-0.1,0.2-0.1l-0.1,0.1l-0.6,0.3c-0.8,0.4-1.5,0.7-2.3,1c-0.8,0.3-1.6,0.6-2.6,0.7
						c-0.5,0.1-1,0.1-1.6,0.1c-0.6,0-1.3-0.2-2-0.7c-0.4-0.3-0.7-0.6-0.9-1c-0.1-0.2-0.2-0.4-0.2-0.6c-0.1-0.2-0.1-0.4-0.1-0.5
						c0-0.4,0-0.8,0-1c0-0.3,0.1-0.5,0.1-0.8c0.2-0.9,0.5-1.7,0.7-2.5c1-3,2.1-5.9,2.6-8.9l1.6-9.4l0.8-4.7l0.4-2.4
						c0.2-0.8,0.3-1.5,0.5-2.4l0,0.1l0.3-1.4l0.3-1.3c0.2-0.9,0.4-1.8,0.7-2.6c0.5-1.8,0.9-3.5,1.5-5.3c0.5-1.7,1.1-3.5,1.7-5.2
						c0.6-1.7,1.3-3.4,2.1-5.1l-0.1,1.2c-1.3-3.5-2.3-7.1-3.3-10.7c-0.9-3.6-1.8-7.2-2.4-10.9c-0.3-1.8-0.6-3.7-0.8-5.5
						c-0.2-1.9-0.4-3.7-0.4-5.6c-0.1-1.9,0-3.8,0.2-5.7c0.2-1.9,0.5-3.8,1.2-5.7c0.6-1.9,1.7-3.8,3.2-5.3l0.6-0.6
						c0.2-0.2,0.5-0.4,0.8-0.5c0.6-0.3,1.2-0.5,1.7-0.6c1.1-0.2,2.2-0.2,3.3-0.1c2,0.3,3.9,0.8,5.7,1.5c1.8,0.7,3.5,1.4,5.2,2.3
						c3.4,1.7,6.6,3.5,9.7,5.5c3.2,2,6.2,4,9.3,6.1l-1.7-0.1c5.3-3.1,11-5.3,16.9-6.8c2.9-0.8,5.9-1.3,9-1.7c3-0.3,6.1-0.5,9.1-0.4
						l-0.2,0c0.1,0,0.2,0,0.2,0l0.2,0l0.2,0l0.4,0l0.7,0l1.5,0.1c1,0.1,2,0.2,3,0.4c2,0.3,4,0.7,5.9,1.2c1.9,0.5,3.8,1.1,5.7,1.7
						c0.9,0.3,1.9,0.6,2.8,1l2.8,1.1l1.4,0.6c0.5,0.2,0.9,0.4,1.4,0.6l2.7,1.3c0.9,0.5,1.7,1,2.6,1.5l1.3,0.7
						c0.4,0.2,0.8,0.5,1.3,0.8l2.5,1.7c0.8,0.6,1.6,1.2,2.4,1.8c0.4,0.3,0.8,0.6,1.2,0.9l1.1,1c0.8,0.6,1.5,1.3,2.3,1.9
						c3,2.6,5.7,5.5,8.3,8.6c2.5,3.1,5,6.2,6.9,9.7c3.9,6.8,7.4,14.1,9.2,21.9l-2.7,0.6l0-0.1l2.7-0.6c1,4.3,2,8.6,2.8,12.9l1.3,6.5
						l0.6,3.2c0.1,0.6,0.2,1,0.3,1.6c0.1,0.5,0.3,1,0.4,1.5c0.6,2,1.4,4.1,2.1,6.1c0.2,0.5,0.4,1.1,0.6,1.6c0.2,0.6,0.4,1.1,0.4,1.9
						c0,0.5,0,0.9-0.2,1.4c-0.2,0.5-0.6,1-1,1.2c-0.4,0.3-0.9,0.4-1.3,0.5c-0.4,0.1-0.8,0.1-1.1,0.1c-1.3-0.1-2.5-0.4-3.6-0.8
						c-0.5-0.2-1.1-0.4-1.6-0.6c-0.3-0.1-0.5-0.2-0.8-0.4l-0.4-0.2c0.2,0.1,0.6,0.1,0.9,0c0.3-0.1,0.5-0.3,0.6-0.5
						c0.1-0.2,0.1-0.4,0.1-0.6c0,0,0-0.1,0-0.1c0-0.1,0-0.1,0,0l0,0c0.2,0.9,0.6,1.9,1,2.9c0.4,1,0.9,2,1.3,3.1
						c0.2,0.5,0.4,1.1,0.6,1.8c0.1,0.7,0.2,1.5-0.2,2.4c-0.1,0.2-0.2,0.4-0.4,0.6c-0.2,0.2-0.3,0.3-0.5,0.5c-0.3,0.3-0.7,0.4-1,0.6
						c-0.7,0.3-1.3,0.3-2,0.4c-0.6,0.1-1.2,0-1.8,0c-0.3,0-0.6,0-0.9-0.1c-0.2,0-0.2,0-0.3,0l-0.3,0c-0.8,0-1.7,0.3-2.5,0.8
						c-0.8,0.5-1.5,1.2-2.1,1.9c-0.2,0.2-0.3,0.4-0.4,0.6l-0.1,0.2c-0.1,0.1-0.1,0.1-0.2,0.2l-0.3,0.4c-0.4,0.5-0.7,0.9-1.1,1.3
						l-0.6,0.6l-0.6,0.6c-0.4,0.4-0.8,0.8-1.2,1.2c-0.8,0.8-1.7,1.5-2.6,2.2c-3.5,2.8-7.4,5.1-11.5,7c-2,1-4.1,1.8-6.2,2.6
						c-2.1,0.8-4.2,1.4-6.3,2.1c-0.5,0.2-1.1-0.1-1.2-0.6C246.9,223.8,247.2,223.3,247.7,223.1L247.7,223.1z"/>
				</g>
			</g>
		</g>
		<g class="st2">
			<g>
				<g>
					<path class="st3" d="M245.7,297.4c-5.6,6.1-12.4-4.1-14.1-7c-0.2-0.4-0.7-0.4-0.9-0.1c-2,2.5-9.3,11.2-13.8,6.9
						c-6.2-5.8,1.1-14.3,7-18.4c0.7-0.5,0.9-1.4,0.4-2.1c-1.3-1.9-2.7-3.8-4-5.9c0,0,0,0,0,0c-0.3-0.4-0.5-0.8-0.8-1.2
						c-0.1,0-0.3,0-0.4,0c-1.4,0.1-2.7,0.1-4.1,0.1c-14.8-0.5-23.7-6.6-23.7-6.6l8.3-23.4c4.5,2.3,8.8,4,12.7,5.3
						c1.2,0.4,2.4,0.8,3.5,1.1c10.5-4.7,39.9-14.6,39.6,1.2c-0.3,14.8-9.2,22.9-15,30.6c-0.5,0.6-0.4,1.5,0.3,2.1
						C245.6,284.3,250.3,292.3,245.7,297.4z"/>
				</g>
			</g>
		</g>
		<g>
			<g>
				<g>
					<g>
						<path class="st12" d="M244.5,276c-0.5,0.6-0.4,1.5,0.3,2.1c5,4.3,9.8,12.3,5.1,17.4c-5.6,6.1-12.4-4.1-14.1-7
							c-0.2-0.4-0.7-0.4-0.9-0.1c-2,2.5-9.3,11.2-13.8,6.9c-6.2-5.8,1.1-14.3,7-18.4c0.7-0.5,0.9-1.4,0.4-2.1
							c-1.3-1.9-2.7-3.8-4-5.9c0,0,0,0,0,0c-3.8-5.9-7.4-12.8-8.1-22.7c-0.1-1.1-0.1-2.3-0.1-3.5c0-19.2,14.9-34.5,22.2-33.9
							c7.5,0.6,21.6,17.4,21.2,36.6C259.2,260.2,250.3,268.4,244.5,276z"/>
					</g>
				</g>
			</g>
			<g>
				<g>
					<g>
						<path class="st3" d="M246,297.7c-0.2,0-0.3,0-0.5,0c-4.4-0.4-8.5-6.5-10-9c-0.1-0.1-0.2-0.2-0.3-0.2c-0.1,0-0.2,0-0.3,0.1
							c-1.8,2.3-6.5,7.8-10.7,8.1c-1.3,0.1-2.5-0.3-3.5-1.2c-1.8-1.7-2.6-3.6-2.4-5.9c0.4-4.9,5.3-10,9.5-12.9
							c0.6-0.4,0.8-1.2,0.4-1.7c-0.5-0.7-1-1.5-1.5-2.2c-0.8-1.2-1.6-2.4-2.4-3.6h0l-0.1-0.1c-3.6-5.6-7.5-12.7-8.2-22.8
							c-0.1-1.2-0.1-2.3-0.1-3.5c0-12.9,6.6-23.6,12.7-29.3c3.5-3.3,7.1-5.1,9.7-4.9c3.9,0.3,9.4,4.9,13.8,11.4
							c3,4.5,7.9,13.8,7.7,25.4c-0.3,12.5-6.5,20.2-12.1,27c-1.1,1.3-2.1,2.5-3,3.8l0,0c-0.4,0.5-0.3,1.3,0.2,1.7
							c3.1,2.6,6.8,7.4,7.1,12.1c0.1,2.2-0.5,4.1-2,5.7C248.8,297,247.4,297.7,246,297.7z M235.2,288C235.2,288,235.2,288,235.2,288
							c0.3,0,0.6,0.2,0.7,0.4c1.2,2,5.4,8.4,9.6,8.8c1.5,0.1,2.9-0.5,4.1-1.8c1.3-1.5,2-3.3,1.8-5.3c-0.3-4.5-3.9-9.2-6.9-11.7
							c-0.7-0.6-0.9-1.7-0.3-2.4c0.9-1.2,2-2.5,3-3.8c5.5-6.7,11.7-14.3,12-26.7c0.4-19-13.6-35.8-21-36.3c-2.5-0.2-5.9,1.5-9.4,4.7
							c-6.1,5.6-12.5,16.2-12.6,28.9c0,1.2,0,2.3,0.1,3.5c0.7,9.9,4.2,16.6,8,22.5h0.1l0,0.2c0.8,1.3,1.7,2.5,2.5,3.6
							c0.5,0.7,1,1.5,1.5,2.2c0.5,0.8,0.3,1.9-0.5,2.4c-4,2.8-8.9,7.8-9.2,12.5c-0.2,2.1,0.6,3.9,2.3,5.5c0.9,0.8,1.9,1.2,3.1,1.1
							c4.1-0.3,9-6.2,10.4-7.9C234.7,288.1,235,288,235.2,288z"/>
					</g>
				</g>
			</g>
		</g>
		<g class="st2">
			<g>
				<g>
					<path class="st3" d="M249.8,295.5c-5.6,6.1-12.4-4.1-14.1-7c-0.2-0.4-0.7-0.4-0.9-0.1c-2,2.5-9.3,11.2-13.8,6.9
						c-2.7-2.5-2.9-5.6-1.6-8.6c0.4,0.7,0.9,1.4,1.6,2.1c4.6,4.3,11.9-4.4,13.8-6.9c0.3-0.3,0.7-0.3,0.9,0.1
						c1.8,2.9,8.6,13.1,14.1,7c0.6-0.6,1-1.3,1.3-2C252.1,290.1,252,293.1,249.8,295.5z"/>
				</g>
			</g>
		</g>
		<g class="st5">
			<g>
				<g>
					<path class="st4" d="M259.5,245.4c0,0.7,0,1.4-0.1,2.1c-1.3-17.6-14.1-32.3-21.1-32.8c-6.9-0.5-20.8,13.3-22.1,31.3
						c-0.1-1-0.1-2.1-0.1-3.2c0-19.2,14.9-34.5,22.2-33.9C245.8,209.4,259.9,226.2,259.5,245.4z"/>
				</g>
			</g>
		</g>
		<g>
			<g>
				<g>
					<path class="st3" d="M221.3,236.7c-0.2,1.1-0.1,2.4,0.2,3.4c0.3,1.1,1,1.9,2,2.3c1,0.4,2.1,0.5,3,0.2l0.2,0l0.2-0.1
						c0.1-0.1,0.2-0.1,0.3-0.2c0.2-0.2,0.4-0.3,0.6-0.5c0.4-0.3,0.7-0.8,0.9-1.3c0.5-1,0.9-2.1,1.1-3.2l0.1-0.2l0-0.1l0-0.1l0,0
						c0,0,0,0,0-0.1c0-0.1,0.1-0.1,0.1-0.2c0.2-0.2,0.4-0.4,0.5-0.4c0.2-0.1,0.3-0.1,0.5,0c0.2,0,0.3,0.1,0.5,0.2
						c0.1,0.1,0.2,0.2,0.3,0.3c0,0.1,0.1,0.1,0.1,0.2l0,0.1l0,0.2c0.1,0.3,0.1,0.6,0.2,0.9c0.1,0.6,0.3,1.1,0.5,1.6
						c0.2,0.5,0.5,1,0.8,1.4c0.3,0.4,0.7,0.8,1.1,1c0.2,0.2,0.4,0.2,0.6,0.3c0.2,0.1,0.5,0.2,0.7,0.2c0.3,0,0.5,0.1,0.8,0.1
						c0.3,0,0.5,0,0.8,0c1-0.1,1.9-0.4,2.6-1.2c0.4-0.4,0.7-0.8,0.9-1.3c0.3-0.5,0.5-1,0.7-1.5c0.2-0.5,0.4-1.1,0.5-1.6
						c0.1-0.3,0.1-0.6,0.2-0.8c0,0,0-0.1,0.1-0.2c0-0.1,0.1-0.2,0.2-0.3c0.1-0.1,0.3-0.2,0.4-0.3c0.1,0,0.3-0.1,0.5,0
						c0.1,0,0.3,0.1,0.4,0.2c0.1,0.1,0.2,0.3,0.3,0.5l0,0.2l0,0.2l0.1,0.4c0.3,1.1,0.7,2.1,1.4,3c0.6,0.9,1.5,1.6,2.5,1.9
						c0.1,0,0.2,0.1,0.4,0.1l0.4,0c0.3,0.1,0.5,0,0.8,0c0.3,0,0.5-0.1,0.8-0.1c0.1,0,0.3,0,0.4-0.1l0.4-0.1c1-0.3,1.8-1.1,2-2.2
						c0.2-1.1,0.1-2.3-0.3-3.4l0,0c-0.1-0.2,0-0.4,0.2-0.4c0.2-0.1,0.3,0,0.4,0.2c0.3,0.6,0.5,1.2,0.6,1.8c0.1,0.6,0.2,1.3,0.1,2
						c-0.1,0.7-0.3,1.4-0.8,1.9c-0.5,0.6-1.1,1-1.7,1.3l-0.5,0.2c-0.2,0-0.3,0.1-0.5,0.1c-0.3,0.1-0.7,0.2-1,0.2c-0.3,0-0.7,0.1-1,0
						l-0.5,0c-0.2,0-0.3-0.1-0.5-0.1c-0.7-0.2-1.3-0.5-1.9-0.9c-0.6-0.4-1.1-0.9-1.5-1.4c-0.8-1.1-1.4-2.3-1.8-3.6
						c0-0.2-0.1-0.3-0.1-0.5l-0.1-0.3l0-0.1l0,0l0,0c0,0,0-0.1,0,0.1c0,0.1,0.1,0.3,0.2,0.4c0.1,0.1,0.3,0.2,0.4,0.2
						c0.2,0,0.4,0,0.5,0c0.1,0,0.2-0.1,0.3-0.2c0.1-0.1,0.1-0.2,0.2-0.3c0-0.1,0.1-0.2,0.1-0.2c0,0.3-0.1,0.6-0.2,1
						c-0.1,0.6-0.3,1.3-0.5,1.9c-0.4,1.2-1,2.5-2,3.5c-1,1.1-2.4,1.8-3.9,1.8c-0.4,0-0.7,0-1,0c-0.3,0-0.7-0.1-1.1-0.2
						c-0.3-0.1-0.7-0.2-1-0.3c-0.3-0.2-0.7-0.3-1-0.5c-0.6-0.4-1.1-0.9-1.6-1.5c-0.4-0.6-0.8-1.2-1-1.8c-0.3-0.6-0.5-1.3-0.6-1.9
						c-0.1-0.3-0.1-0.6-0.2-0.9l0-0.2c0,0,0-0.1,0,0c0,0.1,0,0.1,0.1,0.2c0.1,0.1,0.2,0.2,0.2,0.3c0.2,0.1,0.3,0.2,0.4,0.2
						c0.1,0,0.2,0,0.4,0c0.1,0,0.3-0.1,0.5-0.3c0-0.1,0.1-0.1,0.1-0.2c0-0.1,0-0.1,0-0.1l0,0l0,0.1l0,0.1l-0.1,0.2
						c-0.3,1.2-0.7,2.5-1.4,3.7c-0.4,0.6-0.8,1.1-1.3,1.6c-0.3,0.3-0.6,0.4-0.9,0.6c-0.2,0.1-0.3,0.2-0.5,0.2l-0.3,0.1l-0.3,0.1
						l-0.5,0.1c-0.2,0-0.4,0-0.5,0c-0.4,0-0.7,0-1.1-0.1c-0.7-0.1-1.3-0.3-2-0.6c-0.2-0.1-0.3-0.2-0.5-0.3l-0.4-0.3l-0.4-0.4
						l-0.2-0.2c-0.1-0.1-0.1-0.1-0.2-0.2l-0.3-0.4l-0.2-0.5c-0.1-0.2-0.1-0.3-0.2-0.5c0-0.2-0.1-0.3-0.1-0.5
						c-0.3-1.3-0.1-2.6,0.2-3.9c0.1-0.2,0.2-0.3,0.4-0.2C221.2,236.3,221.3,236.5,221.3,236.7L221.3,236.7z"/>
				</g>
			</g>
		</g>
		<g>
			<g>
				<g>
					<path class="st3" d="M223.4,250.6c-0.4,1-0.7,2.1-0.6,3c0.1,1,0.7,1.6,1.6,1.8c0.5,0.1,1,0.2,1.5,0.2c0.3,0,0.5,0,0.8,0
						c0.2,0,0.5-0.1,0.7-0.1c0.9-0.3,1.8-0.8,2.4-1.5c0.6-0.7,1.1-1.7,1.4-2.6c0-0.1,0.1-0.2,0.1-0.4l0-0.1l0,0l0,0l0-0.1
						c0.1-0.3,0.3-0.5,0.5-0.6c0.2-0.1,0.3-0.1,0.5-0.1c0.1,0,0.3,0,0.5,0.1c0.2,0.1,0.4,0.3,0.5,0.6l0,0.1l0,0l0,0.1l0,0.1l0,0.2
						l0.1,0.4c0.1,0.5,0.2,1,0.4,1.5c0.3,0.9,0.8,1.7,1.6,2.1c0.7,0.4,1.7,0.6,2.7,0.5c0.9,0,1.7-0.4,2.4-1c0.7-0.6,1.2-1.5,1.5-2.5
						c0.2-0.5,0.3-1,0.3-1.4c0-0.1,0-0.2,0-0.3c0,0,0-0.1,0-0.1l0,0c0,0,0,0.1,0-0.1c0-0.2,0-0.4,0.1-0.5c0.2-0.3,0.4-0.4,0.5-0.5
						c0.2-0.1,0.3-0.1,0.5,0c0.2,0,0.4,0.1,0.6,0.3c0.1,0.1,0.2,0.3,0.1,0.2l0,0l0,0l0.4,0.8c0.4,1,0.9,1.9,1.5,2.7
						c0.6,0.8,1.4,1.4,2.3,1.7c0.2,0.1,0.5,0.1,0.7,0.2c0.2,0.1,0.5,0,0.7,0c0.2,0,0.5,0,0.7-0.1c0.1,0,0.3,0,0.4-0.1l0.3-0.1
						c0.2,0,0.4-0.2,0.6-0.3c0.1-0.1,0.2-0.1,0.3-0.2c0,0,0.1-0.1,0.1-0.1l0.1-0.1c0.2-0.2,0.3-0.4,0.4-0.6c0.1-0.2,0.2-0.4,0.2-0.7
						c0.2-1,0.1-2.1-0.2-3.1l0,0c-0.1-0.2,0-0.4,0.2-0.4c0.2,0,0.3,0,0.4,0.2c0.5,1.1,0.8,2.3,0.6,3.5c-0.1,1.3-1,2.6-2.3,3
						l-0.5,0.2c-0.2,0.1-0.3,0.1-0.5,0.1c-0.3,0.1-0.6,0.1-0.9,0.1c-0.3,0-0.6,0.1-1,0c-0.3,0-0.6-0.1-1-0.2
						c-1.3-0.3-2.4-1.1-3.2-2.1c-0.8-0.9-1.4-2-1.9-3.1l-0.4-0.7l0,0l0,0c0-0.1,0,0.1,0.1,0.2c0.2,0.2,0.4,0.3,0.5,0.3
						c0.2,0,0.3,0,0.4,0c0.1-0.1,0.3-0.1,0.5-0.5c0.1-0.1,0.1-0.3,0.1-0.5c0-0.1,0,0,0-0.1l0,0.1l0,0.3c0,0.2,0,0.4,0,0.5
						c-0.1,0.7-0.2,1.3-0.4,1.9c-0.2,0.6-0.4,1.2-0.8,1.7c-0.3,0.6-0.7,1.1-1.2,1.5c-0.2,0.2-0.5,0.5-0.8,0.6
						c-0.3,0.2-0.6,0.4-0.9,0.5c-0.3,0.1-0.7,0.2-1,0.3c-0.3,0-0.7,0.1-1,0.1c-1.2,0.1-2.6-0.1-3.8-0.8c-0.6-0.3-1.1-0.9-1.5-1.4
						c-0.4-0.6-0.7-1.2-0.9-1.8c-0.2-0.6-0.3-1.2-0.4-1.8l-0.1-0.4l0-0.2l0-0.1l0,0l0,0l0,0c0,0,0,0,0,0.1c0.1,0.3,0.3,0.5,0.4,0.5
						c0.2,0.1,0.3,0.1,0.4,0.1c0.1,0,0.2,0,0.4-0.1c0.1-0.1,0.3-0.2,0.4-0.5c0-0.1,0-0.1,0-0.1l0,0l0,0l0,0.1l0,0.1
						c0,0.2-0.1,0.3-0.1,0.4c-0.4,1.2-1,2.3-1.9,3.2c-0.9,0.9-2.1,1.6-3.3,1.9c-0.3,0.1-0.6,0.1-0.9,0.1c-0.3,0-0.6,0-0.9,0
						c-0.6,0-1.2-0.1-1.8-0.3c-0.6-0.2-1.2-0.6-1.7-1.2c-0.4-0.6-0.6-1.3-0.6-1.9c0-1.3,0.5-2.4,1.1-3.4c0.1-0.2,0.3-0.2,0.5-0.1
						C223.5,250.3,223.5,250.5,223.4,250.6L223.4,250.6z"/>
				</g>
			</g>
		</g>
		<g>
			<g>
				<g>
					<path class="st3" d="M228.2,263.7c-0.1,0.7,0,1.4,0.2,2c0.1,0.3,0.3,0.6,0.5,0.7c0.2,0.2,0.5,0.3,0.7,0.4
						c0.3,0.1,0.6,0.1,0.9,0.1c0.1,0,0.3,0,0.4-0.1c0.1,0,0.3-0.1,0.4-0.1c0.5-0.2,0.9-0.7,1.2-1.3c0.2-0.3,0.3-0.6,0.4-0.9
						c0.1-0.2,0.1-0.3,0.2-0.5l0.1-0.2l0-0.1l0,0l0,0c0,0,0-0.1,0.1-0.2c0.1-0.1,0.2-0.2,0.2-0.3c0.2-0.2,0.4-0.2,0.5-0.2
						c0.1,0,0.3,0,0.4,0c0.1,0,0.3,0.1,0.5,0.4c0.1,0.1,0.2,0.3,0.2,0.4l0,0l0,0.1l0,0.2l0,0.3c0,0.2,0.1,0.4,0.1,0.5
						c0.1,0.3,0.2,0.6,0.3,0.9c0.2,0.6,0.6,1,1,1.2l0.2,0.1l0.2,0.1c0.1,0,0.3,0.1,0.4,0.1c0.1,0,0.3,0,0.4,0c0.2,0,0.3,0,0.4,0
						c1-0.1,1.9-1.2,2.3-2.4c0.1-0.3,0.2-0.6,0.2-0.9c0,0,0-0.1,0-0.1l0,0l0,0c0,0,0,0.1,0-0.1c0-0.1,0-0.4,0.1-0.5
						c0.2-0.3,0.4-0.4,0.5-0.5c0.2-0.1,0.3-0.1,0.5,0c0.2,0,0.4,0.1,0.6,0.3c0.1,0.1,0.1,0.2,0.1,0.2l0,0l0,0l0,0.1l0.2,0.5
						c0.3,0.7,0.6,1.3,1,1.9c0.4,0.5,0.8,1,1.4,1.2c0.5,0.2,1.1,0.1,1.7-0.1c0.3-0.1,0.5-0.3,0.7-0.5c0.2-0.2,0.3-0.5,0.4-0.8
						c0.2-0.6,0.2-1.4,0-2l0,0c0-0.2,0.1-0.4,0.2-0.4c0.2,0,0.3,0,0.4,0.2c0.3,0.8,0.5,1.6,0.4,2.5c-0.1,0.4-0.2,0.9-0.5,1.3
						c-0.3,0.4-0.7,0.7-1.1,0.9c-0.2,0.1-0.4,0.2-0.6,0.3c-0.1,0-0.2,0.1-0.3,0.1l-0.3,0.1c-0.1,0-0.2,0-0.4,0l-0.4,0
						c-0.2,0-0.5-0.1-0.7-0.1c-1-0.3-1.7-0.9-2.2-1.6c-0.5-0.7-0.9-1.4-1.3-2.1l-0.2-0.5l0-0.1l0,0l0,0c0,0,0,0.1,0.1,0.2
						c0.2,0.2,0.4,0.3,0.5,0.3c0.2,0,0.3,0,0.4,0c0.1-0.1,0.3-0.1,0.5-0.4c0.1-0.1,0.1-0.3,0.1-0.5c0-0.2,0-0.1,0-0.1l0,0.1l0,0.1
						c0,0.2,0,0.3,0,0.4c0,0.5-0.1,0.9-0.2,1.4c-0.3,0.8-0.6,1.6-1.3,2.4c-0.3,0.4-0.7,0.7-1.1,0.9c-0.4,0.2-0.9,0.5-1.4,0.5
						c-0.3,0.1-0.5,0.1-0.7,0.1c-0.2,0-0.5,0-0.7,0c-0.2,0-0.5-0.1-0.7-0.1c-0.1,0-0.2-0.1-0.4-0.1l-0.4-0.2c-1-0.4-1.6-1.4-1.9-2.2
						c-0.2-0.4-0.3-0.9-0.4-1.3c0-0.2-0.1-0.4-0.1-0.6l0-0.3l0-0.1l0-0.1c0,0,0,0,0,0c0,0.1,0.1,0.3,0.2,0.4
						c0.2,0.2,0.3,0.3,0.5,0.3c0.1,0,0.2,0,0.4,0c0.1,0,0.3-0.1,0.4-0.2c0.1-0.1,0.2-0.2,0.2-0.3c0-0.1,0.1-0.1,0.1-0.2l0,0l0,0
						l0,0.2l-0.1,0.3c-0.1,0.2-0.1,0.4-0.2,0.6c-0.2,0.4-0.4,0.8-0.6,1.2c-0.5,0.7-1.2,1.5-2.1,1.8c-0.2,0.1-0.5,0.2-0.7,0.2
						c-0.2,0-0.5,0-0.7,0c-0.5,0-0.9-0.2-1.3-0.3c-0.9-0.4-1.6-1.3-1.7-2.1c-0.2-0.9-0.1-1.7,0.2-2.5c0.1-0.2,0.2-0.3,0.4-0.2
						C228.1,263.4,228.2,263.5,228.2,263.7L228.2,263.7z"/>
				</g>
			</g>
		</g>
		<g>
			<g>
				<g>
					<ellipse class="st3" cx="231.2" cy="223.1" rx="3" ry="2.7"/>
				</g>
			</g>
		</g>
		<g>
			<g>
				<g>
					<path class="st3" d="M246,299c-0.2,0-0.4,0-0.6,0c-4.3-0.4-8.2-5.4-10.3-8.4c-2.3,2.8-6.6,7.2-10.8,7.5
						c-1.7,0.1-3.2-0.4-4.5-1.6c-2.1-1.9-3-4.3-2.9-7c0.4-5.4,5.6-10.8,10-13.9c-0.5-0.7-0.9-1.4-1.4-2.1
						c-5.2-7.6-11.1-16.1-11-30.8c0-13.4,6.8-24.4,13.2-30.3c3.8-3.5,7.8-5.4,10.8-5.2c8.8,0.7,23.1,18.8,22.7,38.2
						c-0.3,13-7,21.2-12.4,27.8c-1,1.3-2,2.5-2.9,3.7c3.3,2.8,7.2,7.9,7.5,13c0.2,2.6-0.6,4.9-2.3,6.7
						C249.2,298.6,247.4,299,246,299z M235.2,286.6c0,0,0.1,0,0.1,0c0.7,0,1.4,0.4,1.7,1.1c2.3,3.7,5.7,7.8,8.6,8.1
						c1.1,0.1,2-0.3,3-1.4c1.1-1.2,1.6-2.6,1.5-4.4c-0.2-3.9-3.4-8.2-6.4-10.8c-1.3-1.1-1.5-2.9-0.5-4.2c1-1.3,2-2.5,3.1-3.8
						c5.3-6.5,11.4-14,11.7-25.9c0.4-18-13-34.5-19.7-35c-2.1-0.2-5.3,1.5-8.3,4.4c-5.8,5.4-12.1,15.6-12.1,28
						c0,13.7,5.5,21.8,10.5,29c0.5,0.7,1,1.5,1.5,2.2l0,0c1,1.4,0.6,3.3-0.9,4.3c-4.1,2.8-8.4,7.5-8.7,11.5
						c-0.1,1.7,0.5,3.1,1.8,4.4c0.6,0.6,1.3,0.8,2.1,0.7c2.9-0.2,6.7-4,9.4-7.4C233.9,286.9,234.6,286.6,235.2,286.6z M234.3,289.3
						C234.3,289.3,234.3,289.3,234.3,289.3C234.3,289.3,234.3,289.3,234.3,289.3z M227,275.7C227,275.7,227,275.7,227,275.7
						L227,275.7C227,275.7,227,275.7,227,275.7z"/>
				</g>
			</g>
		</g>
		<g class="st2">
			<g>
				<g>
					<path class="st3" d="M234.6,265.7c-3.4,1.5-6.8,2.6-10.2,3.2c-3.8-5.9-7.4-12.8-8.1-22.7c0.4,0.1,0.8,0.2,1.2,0.3
						c6.7,1.8,11.9,2.6,14.7,3.6C241.1,253.3,240.3,263.2,234.6,265.7z"/>
				</g>
			</g>
		</g>
		<g>
			<g>
				<g>
					<path class="st1" d="M234.5,258.1c-6.2,3.5-12.9,5.1-19.2,5.8c-13.2,1.3-24.4-2-24.4-2l6.2-26.4c6.8,2.7,13.1,4.3,18.4,5.2
						c6.8,1.2,12.1,1.5,14.9,2.2C239.8,245,240,255,234.5,258.1z"/>
				</g>
			</g>
		</g>
		<g class="st5">
			<g>
				<g>
					<path class="st4" d="M236,257c1.1-4.1-1-9.3-7.3-10.8c-2.9-0.7-8.1-1-14.9-2.2c-3.5-0.6-5.4-1.3-8.4-2.5
						c-3.2-1.3-6-3.4-8.1-6.1h0c6.8,2.7,13.1,4.3,18.4,5.2c6.8,1.2,12.1,1.5,14.9,2.2C238.9,244.8,239.8,253.1,236,257z"/>
				</g>
			</g>
		</g>
		<g>
			<g>
				<g>
					<path class="st4" d="M234.5,258.1c-6.2,3.5-12.9,5.1-19.2,5.8c-6.4-10-1.3-20.4,0.3-23.2c6.8,1.2,12.1,1.5,14.9,2.2
						C239.8,245,240,255,234.5,258.1z"/>
				</g>
			</g>
		</g>
		<g class="st2">
			<g>
				<g>
					<path class="st3" d="M237.7,248.7c-0.6,1.1-1.5,2-2.6,2.6c-6.2,3.5-12.9,5.1-19.2,5.8c-1.1,0.1-2.2,0.2-3.3,0.2
						c-4.4,0.2-7.8,0.1-10.5-0.2c-4.3-0.4-8.5,1.4-11.2,4.7l0,0c0,0,11.1,3.3,24.4,2c6.2-0.6,13-2.3,19.2-5.8
						C237.7,256.3,238.9,252.2,237.7,248.7z"/>
				</g>
			</g>
		</g>
		<g>
			<g>
				<g>
					<path class="st3" d="M191.2,261.3c2.1-0.2,4.2,0,6.2,0.3c2,0.2,4,0.5,6,0.8c2,0.2,4,0.3,6.1,0.3c2,0,4-0.1,6.1-0.3
						c4-0.4,8-1.2,11.8-2.6c1.9-0.7,3.7-1.5,5.5-2.4l0.7-0.4c0.2-0.1,0.5-0.2,0.6-0.3c0.3-0.2,0.7-0.5,0.9-0.8
						c0.3-0.3,0.5-0.6,0.8-1c0.2-0.4,0.4-0.7,0.5-1.1c0.3-0.8,0.4-1.6,0.4-2.5c0-0.8-0.2-1.7-0.5-2.5c-0.3-0.8-0.8-1.5-1.4-2.1
						c-0.6-0.6-1.3-1.1-2.1-1.6c-0.8-0.4-1.6-0.7-2.6-0.9c-0.9-0.2-1.9-0.4-2.9-0.5l-6.2-0.8c-4.1-0.5-8.3-1.3-12.4-2.3
						c-2-0.5-4.1-1.1-6.1-1.6c-1-0.3-2-0.7-2.9-1.2c-0.9-0.5-1.8-1.1-2.6-2c-0.2-0.2-0.2-0.6,0.1-0.8c0.1-0.1,0.2-0.1,0.3-0.1l0,0
						c1.2-0.2,2.2,0,3.2,0.2c1,0.2,2,0.5,2.9,0.8c1,0.3,1.9,0.7,2.9,1c1,0.3,2,0.6,3,0.8c4,1,8,1.7,12,2.2l6.2,0.8
						c1,0.1,2.1,0.3,3.2,0.5c1.1,0.3,2.2,0.6,3.3,1.2c1,0.5,2,1.3,2.9,2.1c0.8,0.9,1.5,1.9,2,3c0.9,2.3,1,4.9,0.1,7.2
						c-0.2,0.6-0.5,1.1-0.8,1.7c-0.3,0.5-0.7,1-1.2,1.5c-0.4,0.4-0.9,0.9-1.5,1.2c-0.3,0.2-0.5,0.3-0.7,0.4l-0.7,0.4
						c-1.9,1-3.9,1.9-5.9,2.6c-4,1.4-8.2,2.3-12.4,2.7c-2.1,0.2-4.2,0.3-6.3,0.3c-2.1,0-4.2-0.1-6.3-0.2c-2.1-0.1-4.2-0.3-6.3-0.8
						c-2.1-0.4-4.1-1.1-6-2.4c-0.2-0.2-0.3-0.5-0.1-0.7C190.8,261.4,191,261.3,191.2,261.3L191.2,261.3z"/>
				</g>
			</g>
		</g>
		<g class="st2">
			<g>
				<g>
					<path class="st3" d="M265.7,266.5c-2.7,0.8-5.9,1.2-9.6,0.5c-2.2-0.4-4.6-1.1-7.1-2.3c-5.6-2.6-5.3-13,3.9-15.3
						c1.2-0.3,2.5-0.7,3.6-1.1c2-0.8,3.7-1.7,4.5-2.7c1,0.8,2.1,1.9,3.2,3.4C265,254.6,265.5,260.5,265.7,266.5z"/>
				</g>
			</g>
		</g>
		<g>
			<g>
				<g>
					<path class="st4" d="M266.4,259.6c-4.3,1.5-10.1,1.8-17.4-1.6c-5.6-2.6-5.3-13,3.9-15.3c3.5-0.9,6.9-2.2,8.1-3.8
						c2.3,1.8,5.2,5.1,6.5,10.5C268.4,253.5,267.6,257,266.4,259.6z"/>
				</g>
			</g>
		</g>
		<g class="st2">
			<g>
				<g>
					<path class="st3" d="M275.3,245.7c-0.2,0.5-0.4,1-0.7,1.4c-0.7,1.1-3,3.4-6.8,4.9c-0.3,0.1-0.7,0.3-1.1,0.4
						c-0.3,0.1-0.6,0.2-0.8,0.3c-0.3,0.1-0.6,0.2-0.9,0.2c-0.4,0.1-0.8,0.2-1.1,0.2c-0.2,0-0.3,0.1-0.5,0.1
						c-0.4,0.1-0.8,0.1-1.3,0.2c-0.2,0-0.3,0-0.5,0c-0.2,0-0.4,0-0.6,0c-0.2,0-0.4,0-0.6,0c-3.2,0-6.8-0.7-11-2.6
						c-1.4-0.7-2.5-1.8-3.1-3.2c-2.1,3.9-1,8.8,2.7,10.5c4.1,1.9,7.8,2.6,11,2.6c0.2,0,0.4,0,0.6,0c0.2,0,0.4,0,0.6,0
						c0.2,0,0.3,0,0.5,0c0.4,0,0.9-0.1,1.3-0.2c0.2,0,0.4-0.1,0.5-0.1c0.4-0.1,0.8-0.2,1.2-0.2c0.3-0.1,0.6-0.1,0.8-0.2
						c0.3-0.1,0.6-0.2,0.8-0.3c4.4-1.5,7.1-4.2,7.8-5.3C275.6,252.2,275.9,249.2,275.3,245.7z"/>
				</g>
			</g>
		</g>
		<g>
			<g>
				<g>
					<path class="st3" d="M259.9,262.3c-3.4,0-7.2-0.8-11.6-2.8c-3.2-1.5-5-4.9-4.6-8.8c0.4-3.6,2.9-8,8.8-9.5l0.4-0.1
						c2.5-0.6,6.2-1.5,6.8-3.1c0.3-1-0.5-2.6-2.2-4.6c-0.6-0.7-0.5-1.7,0.1-2.3c0.7-0.6,1.7-0.5,2.3,0.1c2.6,3,3.6,5.5,2.9,7.7
						c-1.1,3.3-5.5,4.4-9,5.3l-0.4,0.1c-3.7,0.9-6.1,3.4-6.4,6.7c-0.2,2.5,0.8,4.7,2.8,5.6c15.2,7,22.4-3,22.5-3.1
						c4.1-6.5-0.7-20.8-14.3-30.9c-0.7-0.5-0.9-1.5-0.3-2.2c0.5-0.7,1.5-0.9,2.2-0.3c15.2,11.3,20,27.4,15,35.2
						C273.3,257.6,268.2,262.3,259.9,262.3z"/>
				</g>
			</g>
		</g>
		<g>
			<g>
				<g>
					<path class="st3" d="M240.7,208l0.2,0.2c0.1,0.1,0.1,0.1,0.2,0.2c0.1,0.1,0.3,0.2,0.4,0.4c0.2,0.2,0.5,0.5,0.7,0.8
						c0.4,0.5,0.8,1.1,1.1,1.7c0.6,1.2,1.1,2.4,1.4,3.7c0.3,1.3,0.4,2.6,0.4,3.8c0,0.6-0.1,1.3-0.1,1.9c-0.1,0.6-0.2,1.2-0.4,1.8
						c0,0.1-0.1,0.2-0.3,0.2c-0.1,0-0.1-0.1-0.2-0.2l0,0c-0.1-0.6-0.2-1.2-0.4-1.8c-0.2-0.6-0.3-1.2-0.4-1.7
						c-0.3-1.1-0.7-2.2-1.2-3.2c-0.5-1-1-2-1.6-2.9c-0.3-0.5-0.6-0.9-0.9-1.4c-0.2-0.2-0.3-0.4-0.5-0.6c-0.1-0.1-0.2-0.2-0.2-0.3
						l-0.1-0.2c0,0-0.1-0.1-0.1-0.1l-0.2-0.9c-0.1-0.7,0.3-1.5,1.1-1.6C240,207.6,240.4,207.7,240.7,208z"/>
				</g>
			</g>
		</g>
		<g>
			<g>
				<g>
					<path class="st3" d="M229.1,248.1c1.2-0.3,2.4-0.7,3.5-1.1c0.6-0.2,1.1-0.5,1.6-0.8c0.5-0.3,1-0.6,1.5-0.9
						c0.7-0.5,1.7-0.3,2.1,0.4c0.5,0.7,0.3,1.7-0.4,2.1c-0.2,0.1-0.4,0.2-0.6,0.2l0,0c-0.7,0.1-1.3,0.2-2,0.3
						c-0.7,0.1-1.3,0.1-1.9,0.1C231.6,248.4,230.4,248.3,229.1,248.1z"/>
				</g>
			</g>
		</g>
		<g>
			<g>
				<g>
					<path class="st3" d="M230.1,254.9c1.4-0.3,2.6-0.8,3.8-1.4c0.6-0.3,1.1-0.7,1.6-1c0.5-0.4,1-0.8,1.4-1.2l0,0
						c0.6-0.6,1.6-0.6,2.2,0c0.6,0.6,0.6,1.6,0,2.2c-0.1,0.1-0.3,0.2-0.5,0.3c-0.7,0.3-1.4,0.6-2.1,0.8c-0.7,0.2-1.4,0.4-2.2,0.4
						C232.9,255.1,231.5,255.1,230.1,254.9z"/>
				</g>
			</g>
		</g>
		<g>
			<g>
				<g>
					<path class="st3" d="M253.6,248.8c-1.2,0.4-2.4,0.8-3.7,1c-0.6,0.1-1.3,0.2-1.9,0.3c-0.7,0.1-1.3,0.1-2,0l0,0
						c-0.8,0-1.5-0.7-1.5-1.6c0-0.8,0.7-1.5,1.6-1.5c0.2,0,0.4,0.1,0.6,0.1c0.5,0.2,1,0.5,1.6,0.6c0.6,0.2,1.1,0.4,1.7,0.5
						C251.2,248.6,252.4,248.7,253.6,248.8z"/>
				</g>
			</g>
		</g>
		<g>
			<g>
				<g>
					<path class="st3" d="M253.8,255.6c-1.2,0.5-2.6,0.8-4,0.8c-0.7,0-1.4,0-2.1,0c-0.7-0.1-1.4-0.2-2.2-0.4c-0.8-0.2-1.3-1-1.1-1.8
						c0.2-0.8,1-1.3,1.8-1.1c0.2,0,0.4,0.1,0.5,0.2c0.5,0.3,1,0.7,1.5,0.9c0.5,0.3,1.1,0.5,1.7,0.7
						C251.2,255.4,252.5,255.6,253.8,255.6z"/>
				</g>
			</g>
		</g>
		<g class="st2">
			<g>
				<g>
					<path class="st3" d="M292.3,285c0,0.9-0.1,1.9-0.2,2.9c0,0.3-0.1,0.7-0.1,1c-0.2,1.3-0.5,2.5-0.9,3.8c-0.1,0.3-0.2,0.6-0.3,0.9
						c-0.6,1.9-1.4,3.9-2.3,5.8c-0.1,0.3-0.3,0.6-0.4,0.8c-0.8,1.7-1.8,3.4-2.8,4.9c-0.1,0.2-0.3,0.5-0.4,0.7
						c-0.2,0.2-0.3,0.5-0.5,0.7c-0.2,0.3-0.5,0.7-0.7,1c-0.3,0.4-0.6,0.8-0.9,1.2c-0.1,0.2-0.3,0.4-0.4,0.5c-1,1.3-2.1,2.5-3.1,3.4
						c-0.1,0.1-0.3,0.2-0.4,0.3c-1.5,1.3-3,2.3-4.3,2.8c-0.2,0.1-0.3,0.1-0.5,0.2c-0.1,0-0.2,0.1-0.4,0.1
						c-6.7,1.7-13.2-3.5-12.3-9.9c0.3-1.9,0.8-3.9,1.3-5.8c0.1,0.2,1.6,5.3,6.1,7.4c1.8,0.8,4.1,1.1,6.9,0.4
						c0.8-0.2,1.6-0.6,2.4-1.1C283.7,303.8,289.8,293.9,292.3,285z"/>
				</g>
			</g>
		</g>
		<path class="st3" d="M202.7,158.9c-1.3-0.5-4.6,2.4-8,7.1c-2.7-5-5.5-8.2-7.1-8c-1.2,0.2-1.8,0.9-1.8,0.9c0,0-0.4,0.5-0.6,1.3
			c-0.2,1.4,2.6,4.6,7.1,8c-4.9,2.8-8.2,5.7-8,7.1c0.1,0.8,0.6,1.4,0.6,1.4c0,0,0.5,0.7,1.6,1c1.4,0.4,4.7-2.5,8-7.1
			c2.8,5.1,5.8,8.4,7.1,8c0.9-0.2,1.5-0.9,1.5-0.9c0,0,0.6-0.5,0.9-1.3c0.5-1.2-2.4-4.5-7.1-8c5-2.9,8.3-5.8,8-7.1
			c-0.2-0.8-0.6-1.3-0.6-1.3C204.2,159.9,203.6,159.2,202.7,158.9z"/>
		<path class="st3" d="M263.6,158.1c-1.3-0.5-4.6,2.4-8,7.1c-2.7-5-5.5-8.2-7.1-8c-1.2,0.2-1.8,0.9-1.8,0.9c0,0-0.4,0.5-0.6,1.3
			c-0.2,1.4,2.6,4.6,7.1,8c-4.9,2.8-8.2,5.7-8,7.1c0.1,0.8,0.6,1.4,0.6,1.4c0,0,0.5,0.7,1.6,1c1.4,0.4,4.7-2.5,8-7.1
			c2.8,5.1,5.8,8.4,7.1,8c0.9-0.2,1.5-0.9,1.5-0.9c0,0,0.6-0.5,0.9-1.3c0.5-1.2-2.4-4.5-7.1-8c5-2.9,8.3-5.8,8-7.1
			c-0.2-0.8-0.6-1.3-0.6-1.3C265.1,159.1,264.5,158.4,263.6,158.1z"/>
	</g>
</g>
</svg>
